SplineFontDB: 3.0
FontName: Gudea
FullName: Gudea
FamilyName: Gudea
Weight: Book
Copyright: Copyright (c) 2012, Agustina Mingote (agustinamingote@gmail.com), with Reserved Font Names "Gudea"
Version: 1.003
ItalicAngle: 0
UnderlinePosition: -50
UnderlineWidth: 50
Ascent: 800
Descent: 200
sfntRevision: 0x00010083
LayerCount: 2
Layer: 0 1 "Back"  1
Layer: 1 1 "Fore"  0
XUID: [1021 729 630234613 5649722]
FSType: 0
OS2Version: 2
OS2_WeightWidthSlopeOnly: 0
OS2_UseTypoMetrics: 1
CreationTime: 1325880165
ModificationTime: 1325942843
PfmFamily: 17
TTFWeight: 400
TTFWidth: 5
LineGap: 0
VLineGap: 0
Panose: 2 0 0 0 0 0 0 0 0 0
OS2TypoAscent: 172
OS2TypoAOffset: 1
OS2TypoDescent: -64
OS2TypoDOffset: 1
OS2TypoLinegap: 0
OS2WinAscent: 0
OS2WinAOffset: 1
OS2WinDescent: 24
OS2WinDOffset: 1
HheadAscent: 0
HheadAOffset: 1
HheadDescent: -24
HheadDOffset: 1
OS2SubXSize: 700
OS2SubYSize: 650
OS2SubXOff: 0
OS2SubYOff: 140
OS2SupXSize: 700
OS2SupYSize: 650
OS2SupXOff: 0
OS2SupYOff: 477
OS2StrikeYSize: 50
OS2StrikeYPos: 250
OS2Vendor: 'pyrs'
OS2CodePages: 20000001.00000000
OS2UnicodeRanges: 800000af.4000206a.00000000.00000000
Lookup: 258 0 0 "'kern' Horizontal Kerning in Latin lookup 0"  {"'kern' Horizontal Kerning in Latin lookup 0 subtable"  } ['kern' ('DFLT' <'dflt' > 'latn' <'dflt' > ) ]
MarkAttachClasses: 1
DEI: 91125
TtTable: prep
PUSHW_1
 511
SCANCTRL
PUSHB_1
 4
SCANTYPE
EndTTInstrs
ShortTable: maxp 16
  1
  0
  278
  60
  7
  47
  4
  2
  0
  1
  1
  0
  64
  0
  2
  1
EndShort
LangName: 1033 "" "" "Regular" "AgustinaMingote: Gudea: 2012" "" "Version 1.003" "" "Gudea is a trademark of Agustina Mingote." "Agustina Mingote" "Agustina Mingote" "" "" "" "This Font Software is licensed under the SIL Open Font License, Version 1.1. This license is available with a FAQ at: http://scripts.sil.org/OFL" "http://scripts.sil.org/OFL" 
GaspTable: 1 65535 15 1
Encoding: UnicodeBmp
UnicodeInterp: none
NameList: Adobe Glyph List
DisplaySize: -24
AntiAlias: 1
FitToEm: 1
BeginChars: 65547 278

StartChar: flecha0
Encoding: 12 12 3
Width: 464
GlyphClass: 2
Flags: W
LayerCount: 2
Fore
SplineSet
354 -62 m 1,0,-1
 20 274 l 1,1,-1
 354 608 l 1,2,-1
 354 -62 l 1,0,-1
EndSplineSet
EndChar

StartChar: exclam
Encoding: 33 33 5
Width: 266
GlyphClass: 2
Flags: W
LayerCount: 2
Fore
SplineSet
171 190 m 1,0,-1
 96 190 l 1,1,-1
 96 701 l 1,2,-1
 171 701 l 1,3,-1
 171 190 l 1,0,-1
170 0 m 1,4,-1
 95 0 l 1,5,-1
 95 93 l 1,6,-1
 170 93 l 1,7,-1
 170 0 l 1,4,-1
EndSplineSet
EndChar

StartChar: quotedbl
Encoding: 34 34 6
Width: 378
GlyphClass: 2
Flags: W
LayerCount: 2
Fore
SplineSet
322 442 m 1,0,-1
 247 442 l 1,1,-1
 247 701 l 1,2,-1
 322 701 l 1,3,-1
 322 442 l 1,0,-1
130 442 m 1,4,-1
 55 442 l 1,5,-1
 55 701 l 1,6,-1
 130 701 l 1,7,-1
 130 442 l 1,4,-1
EndSplineSet
EndChar

StartChar: numbersign
Encoding: 35 35 7
Width: 619
GlyphClass: 2
Flags: W
LayerCount: 2
Fore
SplineSet
588 465 m 1,0,-1
 484 465 l 1,1,-1
 463 256 l 1,2,-1
 561 256 l 1,3,-1
 561 191 l 1,4,-1
 456 191 l 1,5,-1
 437 0 l 1,6,-1
 361 0 l 1,7,-1
 381 191 l 1,8,-1
 222 191 l 1,9,-1
 202 0 l 1,10,-1
 126 0 l 1,11,-1
 146 191 l 1,12,-1
 30 191 l 1,13,-1
 30 256 l 1,14,-1
 152 256 l 1,15,-1
 175 465 l 1,16,-1
 56 465 l 1,17,-1
 56 530 l 1,18,-1
 180 530 l 1,19,-1
 198 700 l 1,20,-1
 274 700 l 1,21,-1
 256 530 l 1,22,-1
 415 530 l 1,23,-1
 433 700 l 1,24,-1
 508 700 l 1,25,-1
 492 530 l 1,26,-1
 588 530 l 1,27,-1
 588 465 l 1,0,-1
410 465 m 1,28,-1
 251 465 l 1,29,-1
 228 256 l 1,30,-1
 387 256 l 1,31,-1
 410 465 l 1,28,-1
EndSplineSet
EndChar

StartChar: dollar
Encoding: 36 36 8
Width: 508
GlyphClass: 2
Flags: W
LayerCount: 2
Fore
SplineSet
279 660 m 1,0,1
 338 653 338 653 387 638 c 1,2,-1
 405 633 l 1,3,-1
 391 573 l 1,4,-1
 336 589 l 1,5,6
 283 602 283 602 244 602 c 0,7,8
 141 602 141 602 141 508 c 0,9,10
 141 438 141 438 250 400 c 0,11,12
 296 385 296 385 341 367 c 128,-1,13
 386 349 386 349 418 311 c 128,-1,14
 450 273 450 273 450 216 c 0,15,16
 450 138 450 138 405.5 90 c 128,-1,17
 361 42 361 42 279 32 c 1,18,-1
 279 -60 l 1,19,-1
 214 -60 l 1,20,-1
 214 30 l 1,21,22
 133 35 133 35 62 79 c 1,23,-1
 84 129 l 1,24,25
 164 92 164 92 236.5 92 c 128,-1,26
 309 92 309 92 346.5 121.5 c 128,-1,27
 384 151 384 151 384 198.5 c 128,-1,28
 384 246 384 246 352 273 c 128,-1,29
 320 300 320 300 274.5 316.5 c 128,-1,30
 229 333 229 333 183.5 352.5 c 128,-1,31
 138 372 138 372 106 410 c 128,-1,32
 74 448 74 448 74 511.5 c 128,-1,33
 74 575 74 575 112.5 614.5 c 128,-1,34
 151 654 151 654 214 660 c 1,35,-1
 214 747 l 1,36,-1
 279 747 l 1,37,-1
 279 660 l 1,0,1
EndSplineSet
EndChar

StartChar: percent
Encoding: 37 37 9
Width: 737
GlyphClass: 2
Flags: W
LayerCount: 2
Fore
SplineSet
597 688 m 1,0,-1
 189 1 l 1,1,-1
 111 1 l 1,2,-1
 519 688 l 1,3,-1
 597 688 l 1,0,-1
600 252 m 128,-1,5
 582 286 582 286 546.5 286 c 128,-1,6
 511 286 511 286 493 252 c 128,-1,7
 475 218 475 218 475 164 c 0,8,9
 475 44 475 44 545 44 c 0,10,11
 618 44 618 44 618 164 c 0,12,4
 618 218 618 218 600 252 c 128,-1,5
545 336 m 0,13,14
 678 336 678 336 678 165 c 128,-1,15
 678 -6 678 -6 543 -6 c 0,16,17
 478 -6 478 -6 446.5 39.5 c 128,-1,18
 415 85 415 85 415 160.5 c 128,-1,19
 415 236 415 236 447 286 c 128,-1,20
 479 336 479 336 545 336 c 0,13,14
230 612 m 128,-1,22
 212 646 212 646 176.5 646 c 128,-1,23
 141 646 141 646 123 612 c 128,-1,24
 105 578 105 578 105 524 c 0,25,26
 105 404 105 404 175 404 c 0,27,28
 248 404 248 404 248 524 c 0,29,21
 248 578 248 578 230 612 c 128,-1,22
175 696 m 0,30,31
 308 696 308 696 308 525 c 128,-1,32
 308 354 308 354 173 354 c 0,33,34
 108 354 108 354 76.5 399.5 c 128,-1,35
 45 445 45 445 45 520.5 c 128,-1,36
 45 596 45 596 77 646 c 128,-1,37
 109 696 109 696 175 696 c 0,30,31
EndSplineSet
EndChar

StartChar: ampersand
Encoding: 38 38 10
Width: 756
GlyphClass: 2
Flags: W
LayerCount: 2
Fore
SplineSet
527 361 m 1,0,-1
 599 361 l 1,1,2
 592 248 592 248 572 195 c 0,3,4
 566 177 566 177 552 147 c 1,5,-1
 695 1 l 1,6,-1
 595 1 l 1,7,-1
 513 90 l 1,8,9
 479 49 479 49 418 21 c 128,-1,10
 357 -7 357 -7 294 -7 c 0,11,12
 180 -7 180 -7 119.5 47 c 128,-1,13
 59 101 59 101 59 193 c 0,14,15
 59 259 59 259 95 297 c 128,-1,16
 131 335 131 335 211 374 c 1,17,18
 152 427 152 427 124 464 c 128,-1,19
 96 501 96 501 96 539 c 0,20,21
 96 614 96 614 150 662 c 128,-1,22
 204 710 204 710 289 710 c 128,-1,23
 374 710 374 710 424.5 665.5 c 128,-1,24
 475 621 475 621 475 557 c 128,-1,25
 475 493 475 493 439.5 450 c 128,-1,26
 404 407 404 407 326 365 c 1,27,-1
 495 201 l 1,28,29
 527 267 527 267 527 361 c 1,0,-1
466 138 m 1,30,-1
 261 334 l 1,31,32
 134 276 134 276 134 187 c 0,33,34
 134 129 134 129 177.5 93.5 c 128,-1,35
 221 58 221 58 283.5 58 c 128,-1,36
 346 58 346 58 394.5 82.5 c 128,-1,37
 443 107 443 107 466 138 c 1,30,-1
189 500 m 128,-1,39
 207 478 207 478 216 468 c 0,40,41
 237 445 237 445 277 409 c 1,42,43
 403 472 403 472 403 555 c 0,44,45
 403 600 403 600 369 622.5 c 128,-1,46
 335 645 335 645 285 645 c 128,-1,47
 235 645 235 645 203 621 c 128,-1,48
 171 597 171 597 171 559.5 c 128,-1,38
 171 522 171 522 189 500 c 128,-1,39
EndSplineSet
EndChar

StartChar: quotesingle
Encoding: 39 39 11
Width: 185
GlyphClass: 2
Flags: W
LayerCount: 2
Fore
SplineSet
130 367 m 1,0,-1
 55 367 l 1,1,-1
 55 626 l 1,2,-1
 130 626 l 1,3,-1
 130 367 l 1,0,-1
EndSplineSet
EndChar

StartChar: parenleft
Encoding: 40 40 12
Width: 282
GlyphClass: 2
Flags: W
LayerCount: 2
Fore
SplineSet
196 -130 m 1,0,1
 78 76 78 76 78 316.5 c 128,-1,2
 78 557 78 557 201 764 c 1,3,-1
 267 751 l 1,4,5
 153 540 153 540 153 316.5 c 128,-1,6
 153 93 153 93 265 -118 c 1,7,-1
 196 -130 l 1,0,1
EndSplineSet
EndChar

StartChar: parenright
Encoding: 41 41 13
Width: 282
GlyphClass: 2
Flags: W
LayerCount: 2
Fore
SplineSet
88 764 m 1,0,1
 211 557 211 557 211 316.5 c 128,-1,2
 211 76 211 76 93 -130 c 1,3,-1
 24 -118 l 1,4,5
 136 93 136 93 136 316.5 c 128,-1,6
 136 540 136 540 22 751 c 1,7,-1
 88 764 l 1,0,1
EndSplineSet
EndChar

StartChar: asterisk
Encoding: 42 42 14
Width: 430
GlyphClass: 2
Flags: W
LayerCount: 2
Fore
SplineSet
383 490 m 1,0,-1
 352 432 l 1,1,-1
 233 513 l 1,2,-1
 246 370 l 1,3,-1
 181 370 l 1,4,-1
 191 513 l 1,5,-1
 72 432 l 1,6,-1
 41 485 l 1,7,-1
 171 548 l 1,8,-1
 42 611 l 1,9,-1
 77 666 l 1,10,-1
 191 584 l 1,11,-1
 181 727 l 1,12,-1
 246 727 l 1,13,-1
 233 584 l 1,14,-1
 352 665 l 1,15,-1
 383 608 l 1,16,-1
 253 550 l 1,17,-1
 383 490 l 1,0,-1
EndSplineSet
EndChar

StartChar: plus
Encoding: 43 43 15
Width: 469
GlyphClass: 2
Flags: W
LayerCount: 2
Fore
SplineSet
440 262 m 1,0,-1
 267 262 l 1,1,-1
 267 69 l 1,2,-1
 192 69 l 1,3,-1
 192 262 l 1,4,-1
 28 262 l 1,5,-1
 28 327 l 1,6,-1
 192 327 l 1,7,-1
 192 527 l 1,8,-1
 267 527 l 1,9,-1
 267 327 l 1,10,-1
 440 327 l 1,11,-1
 440 262 l 1,0,-1
EndSplineSet
EndChar

StartChar: comma
Encoding: 44 44 16
Width: 244
GlyphClass: 2
Flags: W
LayerCount: 2
Fore
SplineSet
187 87 m 1,0,-1
 74 -172 l 1,1,-1
 25 -156 l 1,2,-1
 112 111 l 1,3,-1
 187 87 l 1,0,-1
EndSplineSet
EndChar

StartChar: hyphen
Encoding: 45 45 17
Width: 287
GlyphClass: 2
Flags: W
LayerCount: 2
Fore
SplineSet
239 254 m 1,0,-1
 48 254 l 1,1,-1
 48 329 l 1,2,-1
 239 329 l 1,3,-1
 239 254 l 1,0,-1
EndSplineSet
EndChar

StartChar: period
Encoding: 46 46 18
Width: 183
GlyphClass: 2
Flags: W
LayerCount: 2
Fore
SplineSet
129 0 m 1,0,-1
 54 0 l 1,1,-1
 54 106 l 1,2,-1
 129 106 l 1,3,-1
 129 0 l 1,0,-1
EndSplineSet
EndChar

StartChar: slash
Encoding: 47 47 19
Width: 491
GlyphClass: 2
Flags: W
LayerCount: 2
Fore
SplineSet
451 800 m 1,0,-1
 127 -145 l 1,1,-1
 47 -145 l 1,2,-1
 372 800 l 1,3,-1
 451 800 l 1,0,-1
EndSplineSet
EndChar

StartChar: zero
Encoding: 48 48 20
Width: 580
GlyphClass: 2
Flags: W
LayerCount: 2
Fore
SplineSet
526 352 m 0,0,1
 526 83 526 83 383 14 c 0,2,3
 340 -6 340 -6 284 -6 c 0,4,5
 55 -6 55 -6 55 352 c 0,6,7
 55 497 55 497 104 597 c 0,8,9
 130 650 130 650 179 680 c 128,-1,10
 228 710 228 710 296 710 c 0,11,12
 526 710 526 710 526 352 c 0,0,1
451 350 m 2,13,-1
 451 354 l 2,14,15
 451 645 451 645 291 645 c 0,16,17
 232 645 232 645 195 602.5 c 128,-1,18
 158 560 158 560 144 497.5 c 128,-1,19
 130 435 130 435 130 352 c 0,20,21
 130 59 130 59 290.5 59 c 128,-1,22
 451 59 451 59 451 350 c 2,13,-1
EndSplineSet
EndChar

StartChar: one
Encoding: 49 49 21
Width: 519
GlyphClass: 2
Flags: W
LayerCount: 2
Fore
SplineSet
42 0 m 1,0,-1
 42 65 l 1,1,-1
 237 65 l 1,2,-1
 237 626 l 1,3,-1
 65 515 l 1,4,-1
 28 571 l 1,5,-1
 237 700 l 1,6,-1
 312 700 l 1,7,-1
 312 65 l 1,8,-1
 465 65 l 1,9,-1
 465 0 l 1,10,-1
 42 0 l 1,0,-1
EndSplineSet
EndChar

StartChar: two
Encoding: 50 50 22
Width: 524
GlyphClass: 2
Flags: W
LayerCount: 2
Fore
SplineSet
470 65 m 1,0,-1
 469 0 l 1,1,-1
 57 0 l 1,2,-1
 57 72 l 1,3,4
 225 243 225 243 301.5 347 c 128,-1,5
 378 451 378 451 378 527 c 0,6,7
 378 645 378 645 247 645 c 0,8,9
 176 645 176 645 106 629 c 2,10,-1
 84 624 l 1,11,-1
 70 682 l 1,12,13
 146 710 146 710 247 710 c 128,-1,14
 348 710 348 710 401 664.5 c 128,-1,15
 454 619 454 619 454 531.5 c 128,-1,16
 454 444 454 444 379.5 333.5 c 128,-1,17
 305 223 305 223 151 65 c 1,18,-1
 470 65 l 1,0,-1
EndSplineSet
EndChar

StartChar: three
Encoding: 51 51 23
Width: 528
GlyphClass: 2
Flags: W
LayerCount: 2
Fore
SplineSet
136 391 m 1,0,-1
 231 391 l 2,1,2
 299 391 299 391 337.5 429 c 128,-1,3
 376 467 376 467 376 524 c 0,4,5
 376 645 376 645 242 645 c 0,6,7
 208 645 208 645 168 634.5 c 128,-1,8
 128 624 128 624 104 614 c 2,9,-1
 81 604 l 1,10,-1
 67 662 l 1,11,12
 102 682 102 682 149.5 696 c 128,-1,13
 197 710 197 710 239 710 c 0,14,15
 346 710 346 710 398.5 662 c 128,-1,16
 451 614 451 614 451 540.5 c 128,-1,17
 451 467 451 467 413.5 418.5 c 128,-1,18
 376 370 376 370 317 359 c 1,19,20
 386 349 386 349 430 306 c 128,-1,21
 474 263 474 263 474 197 c 0,22,23
 474 101 474 101 410 47.5 c 128,-1,24
 346 -6 346 -6 231 -6 c 0,25,26
 183 -6 183 -6 137.5 6 c 128,-1,27
 92 18 92 18 70 30 c 2,28,-1
 49 41 l 1,29,-1
 74 97 l 1,30,31
 156 59 156 59 236.5 59 c 128,-1,32
 317 59 317 59 357.5 93.5 c 128,-1,33
 398 128 398 128 398 189 c 128,-1,34
 398 250 398 250 354.5 288 c 128,-1,35
 311 326 311 326 231 326 c 2,36,-1
 136 326 l 1,37,-1
 136 391 l 1,0,-1
EndSplineSet
EndChar

StartChar: four
Encoding: 52 52 24
Width: 540
GlyphClass: 2
Flags: W
LayerCount: 2
Fore
SplineSet
331 -1 m 1,0,-1
 331 131 l 1,1,-1
 15 131 l 1,2,-1
 15 180 l 1,3,-1
 234 700 l 1,4,-1
 309 700 l 1,5,-1
 97 196 l 1,6,-1
 331 196 l 1,7,-1
 331 382 l 1,8,-1
 403 382 l 1,9,-1
 403 196 l 1,10,-1
 486 196 l 1,11,-1
 486 131 l 1,12,-1
 403 131 l 1,13,-1
 403 -1 l 1,14,-1
 331 -1 l 1,0,-1
EndSplineSet
EndChar

StartChar: five
Encoding: 53 53 25
Width: 558
GlyphClass: 2
Flags: W
LayerCount: 2
Fore
SplineSet
385.5 102.5 m 128,-1,1
 429 145 429 145 429 218 c 128,-1,2
 429 291 429 291 377 325.5 c 128,-1,3
 325 360 325 360 232 360 c 2,4,-1
 100 361 l 1,5,-1
 124 700 l 1,6,-1
 481 700 l 1,7,-1
 476 635 l 1,8,-1
 188 635 l 1,9,-1
 177 424 l 1,10,11
 209 425 209 425 240 425 c 0,12,13
 360 425 360 425 432 373.5 c 128,-1,14
 504 322 504 322 504 230 c 0,15,16
 504 122 504 122 440 58 c 128,-1,17
 376 -6 376 -6 257 -6 c 0,18,19
 208 -6 208 -6 159.5 7 c 128,-1,20
 111 20 111 20 87 34 c 2,21,-1
 63 47 l 1,22,-1
 86 100 l 1,23,24
 176 60 176 60 259 60 c 128,-1,0
 342 60 342 60 385.5 102.5 c 128,-1,1
EndSplineSet
EndChar

StartChar: six
Encoding: 54 54 26
Width: 576
GlyphClass: 2
Flags: W
LayerCount: 2
Fore
SplineSet
304 423 m 0,0,1
 408 423 408 423 465 371 c 128,-1,2
 522 319 522 319 522 219 c 128,-1,3
 522 119 522 119 463 56.5 c 128,-1,4
 404 -6 404 -6 304 -6 c 0,5,6
 72 -6 72 -6 72 310 c 0,7,8
 72 602 72 602 207 679 c 0,9,10
 261 710 261 710 338 710 c 0,11,12
 377 710 377 710 415 702 c 128,-1,13
 453 694 453 694 471 686 c 2,14,-1
 489 677 l 1,15,-1
 471 617 l 1,16,17
 401 644 401 644 329 644 c 0,18,19
 240 644 240 644 198.5 575 c 128,-1,20
 157 506 157 506 149 386 c 1,21,22
 233 423 233 423 304 423 c 0,0,1
309 59 m 0,23,24
 372 59 372 59 409.5 102.5 c 128,-1,25
 447 146 447 146 447 213 c 0,26,27
 447 358 447 358 300 358 c 0,28,29
 224 358 224 358 147 311 c 1,30,31
 147 187 147 187 185 123 c 128,-1,32
 223 59 223 59 309 59 c 0,23,24
EndSplineSet
EndChar

StartChar: seven
Encoding: 55 55 27
Width: 507
GlyphClass: 2
Flags: W
LayerCount: 2
Fore
SplineSet
26 625 m 1,0,-1
 26 700 l 1,1,-1
 477 700 l 1,2,-1
 477 625 l 1,3,-1
 167 0 l 1,4,-1
 84 0 l 1,5,-1
 393 625 l 1,6,-1
 26 625 l 1,0,-1
EndSplineSet
EndChar

StartChar: eight
Encoding: 56 56 28
Width: 575
GlyphClass: 2
Flags: W
LayerCount: 2
Fore
SplineSet
448 661.5 m 128,-1,1
 503 613 503 613 503 543 c 128,-1,2
 503 473 503 473 471.5 422.5 c 128,-1,3
 440 372 440 372 404 344 c 1,4,5
 459 315 459 315 490 280.5 c 128,-1,6
 521 246 521 246 521 194 c 0,7,8
 521 99 521 99 458.5 46.5 c 128,-1,9
 396 -6 396 -6 284.5 -6 c 128,-1,10
 173 -6 173 -6 117.5 49 c 128,-1,11
 62 104 62 104 62 185 c 0,12,13
 62 221 62 221 76 253.5 c 128,-1,14
 90 286 90 286 113 308 c 0,15,16
 154 347 154 347 188 364 c 1,17,18
 85 421 85 421 85 515.5 c 128,-1,19
 85 610 85 610 143 660 c 128,-1,20
 201 710 201 710 297 710 c 128,-1,0
 393 710 393 710 448 661.5 c 128,-1,1
370 286 m 0,21,22
 335 304 335 304 258 332 c 1,23,24
 223 317 223 317 194 292 c 0,25,26
 137 245 137 245 137 188 c 128,-1,27
 137 131 137 131 175 94 c 128,-1,28
 213 57 213 57 285.5 57 c 128,-1,29
 358 57 358 57 402 92 c 128,-1,30
 446 127 446 127 446 187 c 128,-1,31
 446 247 446 247 370 286 c 0,21,22
430 530 m 0,32,33
 430 580 430 580 394 612.5 c 128,-1,34
 358 645 358 645 297.5 645 c 128,-1,35
 237 645 237 645 197.5 612.5 c 128,-1,36
 158 580 158 580 158 529 c 0,37,38
 158 487 158 487 194 450 c 0,39,40
 221 421 221 421 339 374 c 1,41,42
 430 442 430 442 430 530 c 0,32,33
EndSplineSet
EndChar

StartChar: nine
Encoding: 57 57 29
Width: 557
GlyphClass: 2
Flags: W
LayerCount: 2
Fore
SplineSet
271 281 m 0,0,1
 167 281 167 281 110 333 c 128,-1,2
 53 385 53 385 53 485 c 128,-1,3
 53 585 53 585 112 647.5 c 128,-1,4
 171 710 171 710 271 710 c 0,5,6
 503 710 503 710 503 394 c 0,7,8
 503 102 503 102 368 25 c 0,9,10
 314 -6 314 -6 237 -6 c 0,11,12
 198 -6 198 -6 160 2 c 128,-1,13
 122 10 122 10 104 18 c 2,14,-1
 86 27 l 1,15,-1
 104 87 l 1,16,17
 174 60 174 60 246 60 c 0,18,19
 409 60 409 60 425 318 c 1,20,21
 351 281 351 281 271 281 c 0,0,1
266 645 m 0,22,23
 203 645 203 645 165.5 601.5 c 128,-1,24
 128 558 128 558 128 491 c 0,25,26
 128 346 128 346 275 346 c 0,27,28
 349 346 349 346 428 392 c 1,29,-1
 428 396 l 2,30,31
 428 518 428 518 390 581.5 c 128,-1,32
 352 645 352 645 266 645 c 0,22,23
EndSplineSet
EndChar

StartChar: colon
Encoding: 58 58 30
Width: 217
GlyphClass: 2
Flags: W
LayerCount: 2
Fore
SplineSet
146 0 m 1,0,-1
 71 0 l 1,1,-1
 71 106 l 1,2,-1
 146 106 l 1,3,-1
 146 0 l 1,0,-1
146 394 m 1,4,-1
 71 394 l 1,5,-1
 71 500 l 1,6,-1
 146 500 l 1,7,-1
 146 394 l 1,4,-1
EndSplineSet
EndChar

StartChar: semicolon
Encoding: 59 59 31
Width: 276
GlyphClass: 2
Flags: W
LayerCount: 2
Fore
SplineSet
205 394 m 1,0,-1
 130 394 l 1,1,-1
 130 500 l 1,2,-1
 205 500 l 1,3,-1
 205 394 l 1,0,-1
205 89 m 1,4,-1
 92 -170 l 1,5,-1
 43 -154 l 1,6,-1
 133 113 l 1,7,-1
 205 89 l 1,4,-1
EndSplineSet
EndChar

StartChar: less
Encoding: 60 60 32
Width: 528
GlyphClass: 2
Flags: W
LayerCount: 2
Fore
SplineSet
453 45 m 1,0,-1
 61 269 l 1,1,-1
 61 326 l 1,2,-1
 453 551 l 1,3,-1
 453 471 l 1,4,-1
 134 298 l 1,5,-1
 453 123 l 1,6,-1
 453 45 l 1,0,-1
EndSplineSet
EndChar

StartChar: equal
Encoding: 61 61 33
Width: 580
GlyphClass: 2
Flags: W
LayerCount: 2
Fore
SplineSet
505 361 m 1,0,-1
 75 361 l 1,1,-1
 75 426 l 1,2,-1
 505 426 l 1,3,-1
 505 361 l 1,0,-1
505 163 m 1,4,-1
 75 163 l 1,5,-1
 75 228 l 1,6,-1
 505 228 l 1,7,-1
 505 163 l 1,4,-1
EndSplineSet
EndChar

StartChar: greater
Encoding: 62 62 34
Width: 528
GlyphClass: 2
Flags: W
LayerCount: 2
Fore
SplineSet
467 270 m 1,0,-1
 75 46 l 1,1,-1
 75 123 l 1,2,-1
 394 298 l 1,3,-1
 75 471 l 1,4,-1
 75 551 l 1,5,-1
 467 326 l 1,6,-1
 467 270 l 1,0,-1
EndSplineSet
EndChar

StartChar: question
Encoding: 63 63 35
Width: 463
GlyphClass: 2
Flags: W
LayerCount: 2
Fore
SplineSet
342 426 m 0,0,1
 318 402 318 402 294 380 c 0,2,3
 237 326 237 326 237 257 c 2,4,-1
 237 194 l 1,5,-1
 163 194 l 1,6,-1
 163 252 l 2,7,8
 163 296 163 296 179.5 332.5 c 128,-1,9
 196 369 196 369 219.5 393 c 128,-1,10
 243 417 243 417 266 440 c 0,11,12
 323 494 323 494 323 551 c 0,13,14
 323 644 323 644 212 644 c 0,15,16
 147 644 147 644 91 625 c 1,17,-1
 80 683 l 1,18,19
 161 710 161 710 233.5 710 c 128,-1,20
 306 710 306 710 352 669.5 c 128,-1,21
 398 629 398 629 398 555.5 c 128,-1,22
 398 482 398 482 342 426 c 0,0,1
236 0 m 1,23,-1
 161 0 l 1,24,-1
 161 98 l 1,25,-1
 236 98 l 1,26,-1
 236 0 l 1,23,-1
EndSplineSet
EndChar

StartChar: at
Encoding: 64 64 36
Width: 907
GlyphClass: 2
Flags: W
LayerCount: 2
Fore
SplineSet
530 216 m 1,0,-1
 568 409 l 1,1,2
 566 410 566 410 559.5 417 c 128,-1,3
 553 424 553 424 547 428.5 c 128,-1,4
 541 433 541 433 531 439 c 0,5,6
 511 451 511 451 480 451 c 0,7,8
 412 451 412 451 372 381.5 c 128,-1,9
 332 312 332 312 332 223.5 c 128,-1,10
 332 135 332 135 400 135 c 0,11,12
 435 135 435 135 460.5 152.5 c 128,-1,13
 486 170 486 170 530 216 c 1,0,-1
535 81 m 1,14,-1
 527 147 l 1,15,16
 506 126 506 126 492 114.5 c 128,-1,17
 478 103 478 103 448 89.5 c 128,-1,18
 418 76 418 76 388 76 c 0,19,20
 330 76 330 76 300 115 c 128,-1,21
 270 154 270 154 270 222.5 c 128,-1,22
 270 291 270 291 290 351 c 128,-1,23
 310 411 310 411 342 445 c 0,24,25
 406 515 406 515 474 515 c 0,26,27
 512 515 512 515 531.5 504.5 c 128,-1,28
 551 494 551 494 558 489 c 0,29,30
 572 479 572 479 587 464 c 1,31,-1
 603 504 l 1,32,-1
 649 504 l 1,33,-1
 576 135 l 1,34,35
 660 135 660 135 712.5 195 c 128,-1,36
 765 255 765 255 765 398 c 0,37,38
 765 644 765 644 476 644 c 0,39,40
 305 644 305 644 225.5 541.5 c 128,-1,41
 146 439 146 439 146 232 c 0,42,43
 146 81 146 81 206.5 12 c 128,-1,44
 267 -57 267 -57 402 -57 c 2,45,-1
 575 -57 l 1,46,-1
 577 -111 l 1,47,48
 492 -119 492 -119 398 -119 c 0,49,50
 76 -119 76 -119 76 209 c 0,51,52
 76 709 76 709 477 709 c 0,53,54
 830 709 830 709 830 394 c 0,55,56
 830 214 830 214 749 144 c 0,57,58
 709 110 709 110 657.5 95.5 c 128,-1,59
 606 81 606 81 535 81 c 1,14,-1
EndSplineSet
EndChar

StartChar: A
Encoding: 65 65 37
Width: 579
GlyphClass: 2
Flags: W
LayerCount: 2
Fore
SplineSet
566 0 m 1,0,-1
 482 0 l 1,1,-1
 412 221 l 1,2,-1
 161 221 l 1,3,-1
 92 0 l 1,4,-1
 13 0 l 1,5,-1
 243 700 l 1,6,-1
 334 700 l 1,7,-1
 566 0 l 1,0,-1
395 286 m 1,8,-1
 288 624 l 1,9,-1
 180 286 l 1,10,-1
 395 286 l 1,8,-1
EndSplineSet
EndChar

StartChar: B
Encoding: 66 66 38
Width: 587
GlyphClass: 2
Flags: W
LayerCount: 2
Fore
SplineSet
91 0 m 1,0,-1
 91 700 l 1,1,-1
 291 700 l 2,2,3
 398 700 398 700 451 653.5 c 128,-1,4
 504 607 504 607 504 521 c 0,5,6
 504 463 504 463 466 425 c 128,-1,7
 428 387 428 387 363 379 c 1,8,9
 443 367 443 367 487.5 322 c 128,-1,10
 532 277 532 277 532 210 c 0,11,12
 532 115 532 115 466.5 57.5 c 128,-1,13
 401 0 401 0 284 0 c 2,14,-1
 91 0 l 1,0,-1
169 65 m 1,15,-1
 308 65 l 2,16,17
 374 65 374 65 414 105 c 128,-1,18
 454 145 454 145 454 205 c 128,-1,19
 454 265 454 265 411.5 304 c 128,-1,20
 369 343 369 343 287 343 c 2,21,-1
 169 343 l 1,22,-1
 169 65 l 1,15,-1
296 635 m 1,23,-1
 169 635 l 1,24,-1
 169 407 l 1,25,-1
 286 407 l 2,26,27
 341 407 341 407 383.5 437.5 c 128,-1,28
 426 468 426 468 426 522 c 0,29,30
 426 631 426 631 296 635 c 1,23,-1
EndSplineSet
EndChar

StartChar: C
Encoding: 67 67 39
Width: 584
GlyphClass: 2
Flags: W
LayerCount: 2
Fore
SplineSet
346 -6 m 0,0,1
 203 -6 203 -6 126.5 90.5 c 128,-1,2
 50 187 50 187 50 352 c 128,-1,3
 50 517 50 517 131 613 c 128,-1,4
 212 709 212 709 357 709 c 0,5,6
 437 709 437 709 514 680 c 1,7,-1
 496 618 l 1,8,9
 435 644 435 644 352 644 c 0,10,11
 247 644 247 644 186 567.5 c 128,-1,12
 125 491 125 491 125 357.5 c 128,-1,13
 125 224 125 224 182.5 141.5 c 128,-1,14
 240 59 240 59 343 59 c 0,15,16
 411 59 411 59 514 98 c 1,17,-1
 534 46 l 1,18,19
 448 -6 448 -6 346 -6 c 0,0,1
EndSplineSet
EndChar

StartChar: D
Encoding: 68 68 40
Width: 647
GlyphClass: 2
Flags: W
LayerCount: 2
Fore
SplineSet
597 375 m 0,0,1
 597 206 597 206 499 103 c 128,-1,2
 401 0 401 0 237 0 c 2,3,-1
 91 0 l 1,4,-1
 91 700 l 1,5,-1
 268 700 l 2,6,7
 417 700 417 700 507 609 c 128,-1,8
 597 518 597 518 597 375 c 0,0,1
516 383 m 0,9,10
 516 501 516 501 444 568 c 128,-1,11
 372 635 372 635 272 635 c 2,12,-1
 172 635 l 1,13,-1
 172 65 l 1,14,-1
 246 65 l 2,15,16
 359 65 359 65 437.5 150 c 128,-1,17
 516 235 516 235 516 383 c 0,9,10
EndSplineSet
EndChar

StartChar: E
Encoding: 69 69 41
Width: 542
GlyphClass: 2
Flags: W
LayerCount: 2
Fore
SplineSet
468 0 m 1,0,-1
 91 0 l 1,1,-1
 91 700 l 1,2,-1
 468 700 l 1,3,-1
 468 635 l 1,4,-1
 166 635 l 1,5,-1
 166 413 l 1,6,-1
 443 413 l 1,7,-1
 443 346 l 1,8,-1
 166 346 l 1,9,-1
 166 65 l 1,10,-1
 468 65 l 1,11,-1
 468 0 l 1,0,-1
EndSplineSet
EndChar

StartChar: F
Encoding: 70 70 42
Width: 510
GlyphClass: 2
Flags: W
LayerCount: 2
Fore
SplineSet
469 700 m 1,0,-1
 469 635 l 1,1,-1
 166 635 l 1,2,-1
 166 413 l 1,3,-1
 445 413 l 1,4,-1
 445 346 l 1,5,-1
 166 346 l 1,6,-1
 166 0 l 1,7,-1
 91 0 l 1,8,-1
 91 700 l 1,9,-1
 469 700 l 1,0,-1
EndSplineSet
EndChar

StartChar: G
Encoding: 71 71 43
Width: 646
GlyphClass: 2
Flags: W
LayerCount: 2
Fore
SplineSet
362 -6 m 0,0,1
 217 -6 217 -6 131.5 92 c 128,-1,2
 46 190 46 190 46 353.5 c 128,-1,3
 46 517 46 517 127 613.5 c 128,-1,4
 208 710 208 710 353 710 c 0,5,6
 445 710 445 710 540 674 c 1,7,-1
 522 612 l 1,8,9
 488 626 488 626 433 635.5 c 128,-1,10
 378 645 378 645 348 645 c 0,11,12
 243 645 243 645 182 568 c 128,-1,13
 121 491 121 491 121 360 c 128,-1,14
 121 229 121 229 185.5 144 c 128,-1,15
 250 59 250 59 351 59 c 0,16,17
 422 59 422 59 485 79 c 1,18,-1
 485 290 l 1,19,-1
 339 290 l 1,20,-1
 339 355 l 1,21,-1
 560 355 l 1,22,-1
 560 48 l 1,23,24
 466 -6 466 -6 362 -6 c 0,0,1
EndSplineSet
EndChar

StartChar: H
Encoding: 72 72 44
Width: 664
GlyphClass: 2
Flags: W
LayerCount: 2
Fore
SplineSet
573 0 m 1,0,-1
 498 0 l 1,1,-1
 498 331 l 1,2,-1
 166 331 l 1,3,-1
 166 0 l 1,4,-1
 91 0 l 1,5,-1
 91 700 l 1,6,-1
 166 700 l 1,7,-1
 166 396 l 1,8,-1
 498 396 l 1,9,-1
 498 700 l 1,10,-1
 573 700 l 1,11,-1
 573 0 l 1,0,-1
EndSplineSet
EndChar

StartChar: I
Encoding: 73 73 45
Width: 257
GlyphClass: 2
Flags: W
LayerCount: 2
Fore
SplineSet
166 0 m 1,0,-1
 91 0 l 1,1,-1
 91 700 l 1,2,-1
 166 700 l 1,3,-1
 166 0 l 1,0,-1
EndSplineSet
EndChar

StartChar: J
Encoding: 74 74 46
Width: 343
GlyphClass: 2
Flags: W
LayerCount: 2
Fore
SplineSet
252 211 m 2,0,1
 252 -7 252 -7 101 -7 c 0,2,3
 48 -7 48 -7 1 4 c 1,4,-1
 1 67 l 1,5,6
 55 58 55 58 90 58 c 0,7,8
 140 58 140 58 158.5 104 c 128,-1,9
 177 150 177 150 177 228 c 2,10,-1
 177 641 l 1,11,-1
 32 641 l 1,12,-1
 32 700 l 1,13,-1
 252 700 l 1,14,-1
 252 211 l 2,0,1
EndSplineSet
EndChar

StartChar: K
Encoding: 75 75 47
Width: 573
GlyphClass: 2
Flags: W
LayerCount: 2
Fore
SplineSet
555 0 m 1,0,-1
 461 0 l 1,1,-1
 256 383 l 1,2,-1
 166 288 l 1,3,-1
 166 0 l 1,4,-1
 91 0 l 1,5,-1
 91 699 l 1,6,-1
 165 699 l 1,7,-1
 165 384 l 1,8,-1
 457 700 l 1,9,-1
 549 700 l 1,10,-1
 307 434 l 1,11,-1
 555 0 l 1,0,-1
EndSplineSet
EndChar

StartChar: L
Encoding: 76 76 48
Width: 473
GlyphClass: 2
Flags: W
LayerCount: 2
Fore
SplineSet
466 0 m 1,0,-1
 91 0 l 1,1,-1
 91 700 l 1,2,-1
 166 700 l 1,3,-1
 166 65 l 1,4,-1
 466 65 l 1,5,-1
 466 0 l 1,0,-1
EndSplineSet
EndChar

StartChar: M
Encoding: 77 77 49
Width: 737
GlyphClass: 2
Flags: W
LayerCount: 2
Fore
SplineSet
681 0 m 1,0,-1
 606 0 l 1,1,-1
 606 574 l 1,2,-1
 381 184 l 1,3,-1
 355 185 l 1,4,-1
 130 573 l 1,5,-1
 130 0 l 1,6,-1
 56 0 l 1,7,-1
 56 700 l 1,8,-1
 140 700 l 1,9,-1
 369 315 l 1,10,-1
 606 700 l 1,11,-1
 681 700 l 1,12,-1
 681 0 l 1,0,-1
EndSplineSet
EndChar

StartChar: N
Encoding: 78 78 50
Width: 679
GlyphClass: 2
Flags: W
LayerCount: 2
Fore
SplineSet
588 -1 m 1,0,-1
 506 -1 l 1,1,-1
 169 560 l 1,2,-1
 169 0 l 1,3,-1
 91 0 l 1,4,-1
 91 700 l 1,5,-1
 169 700 l 1,6,-1
 513 118 l 1,7,-1
 513 700 l 1,8,-1
 588 700 l 1,9,-1
 588 -1 l 1,0,-1
EndSplineSet
EndChar

StartChar: O
Encoding: 79 79 51
Width: 648
GlyphClass: 2
Flags: W
LayerCount: 2
Fore
SplineSet
323 -5 m 0,0,1
 186 -5 186 -5 116 96.5 c 128,-1,2
 46 198 46 198 46 355 c 128,-1,3
 46 512 46 512 116.5 611 c 128,-1,4
 187 710 187 710 323.5 710 c 128,-1,5
 460 710 460 710 531 611 c 128,-1,6
 602 512 602 512 602 355 c 0,7,8
 602 140 602 140 480 45 c 0,9,10
 415 -5 415 -5 323 -5 c 0,0,1
325 645 m 0,11,12
 223 645 223 645 172.5 560 c 128,-1,13
 122 475 122 475 122 352 c 128,-1,14
 122 229 122 229 173.5 145 c 128,-1,15
 225 61 225 61 325 61 c 128,-1,16
 425 61 425 61 476 146 c 128,-1,17
 527 231 527 231 527 360 c 0,18,19
 527 522 527 522 436 602 c 1,20,21
 389 645 389 645 325 645 c 0,11,12
EndSplineSet
EndChar

StartChar: P
Encoding: 80 80 52
Width: 541
GlyphClass: 2
Flags: W
LayerCount: 2
Fore
SplineSet
268 294 m 2,0,-1
 166 294 l 1,1,-1
 166 0 l 1,2,-1
 91 0 l 1,3,-1
 91 700 l 1,4,-1
 291 700 l 2,5,6
 403 700 403 700 453.5 651 c 128,-1,7
 504 602 504 602 504 498.5 c 128,-1,8
 504 395 504 395 442 344.5 c 128,-1,9
 380 294 380 294 268 294 c 2,0,-1
257 636 m 2,10,-1
 166 636 l 1,11,-1
 166 358 l 1,12,-1
 232 358 l 2,13,14
 335 358 335 358 382 389 c 128,-1,15
 429 420 429 420 429 495.5 c 128,-1,16
 429 571 429 571 388 603.5 c 128,-1,17
 347 636 347 636 257 636 c 2,10,-1
EndSplineSet
EndChar

StartChar: Q
Encoding: 81 81 53
Width: 651
GlyphClass: 2
Flags: W
LayerCount: 2
Fore
SplineSet
533 96 m 1,0,-1
 631 -5 l 1,1,-1
 582 -54 l 1,2,-1
 487 47 l 1,3,4
 420 -7 420 -7 325.5 -7 c 128,-1,5
 231 -7 231 -7 167 44 c 0,6,7
 46 139 46 139 46 355 c 0,8,9
 46 512 46 512 116.5 611 c 128,-1,10
 187 710 187 710 323.5 710 c 128,-1,11
 460 710 460 710 531 611 c 128,-1,12
 602 512 602 512 602 352 c 128,-1,13
 602 192 602 192 533 96 c 1,0,-1
399 238 m 1,14,-1
 481 149 l 1,15,16
 527 225 527 225 527 350.5 c 128,-1,17
 527 476 527 476 473.5 561 c 128,-1,18
 420 646 420 646 324 646 c 0,19,20
 271 646 271 646 230.5 621 c 128,-1,21
 190 596 190 596 167 554 c 0,22,23
 122 470 122 470 122 349.5 c 128,-1,24
 122 229 122 229 173.5 144 c 128,-1,25
 225 59 225 59 324 59 c 0,26,27
 390 59 390 59 437 97 c 1,28,-1
 349 189 l 1,29,-1
 399 238 l 1,14,-1
EndSplineSet
EndChar

StartChar: R
Encoding: 82 82 54
Width: 603
GlyphClass: 2
Flags: W
LayerCount: 2
Fore
SplineSet
228 329 m 2,0,-1
 166 329 l 1,1,-1
 166 1 l 1,2,-1
 91 1 l 1,3,-1
 91 701 l 1,4,-1
 293 701 l 2,5,6
 395 701 395 701 446.5 654.5 c 128,-1,7
 498 608 498 608 498 522 c 0,8,9
 498 462 498 462 456.5 412 c 128,-1,10
 415 362 415 362 354 354 c 1,11,12
 403 343 403 343 423.5 322.5 c 128,-1,13
 444 302 444 302 472 235 c 2,14,-1
 571 1 l 1,15,-1
 492 1 l 1,16,-1
 395 225 l 2,17,18
 368 288 368 288 334.5 308.5 c 128,-1,19
 301 329 301 329 228 329 c 2,0,-1
289 637 m 2,20,-1
 166 637 l 1,21,-1
 166 393 l 1,22,-1
 279 393 l 2,23,24
 341 393 341 393 377.5 429.5 c 128,-1,25
 414 466 414 466 414 522 c 128,-1,26
 414 578 414 578 381 607.5 c 128,-1,27
 348 637 348 637 289 637 c 2,20,-1
EndSplineSet
EndChar

StartChar: S
Encoding: 83 83 55
Width: 551
GlyphClass: 2
Flags: W
LayerCount: 2
Fore
SplineSet
443 675 m 1,0,-1
 427 608 l 1,1,-1
 369 625 l 1,2,3
 307 640 307 640 262 640 c 0,4,5
 144 640 144 640 144 535 c 0,6,7
 144 489 144 489 180 459.5 c 128,-1,8
 216 430 216 430 267.5 412.5 c 128,-1,9
 319 395 319 395 370.5 374.5 c 128,-1,10
 422 354 422 354 458 311.5 c 128,-1,11
 494 269 494 269 494 204 c 0,12,13
 494 105 494 105 433 49.5 c 128,-1,14
 372 -6 372 -6 260 -6 c 0,15,16
 204 -6 204 -6 147.5 10.5 c 128,-1,17
 91 27 91 27 55 49 c 1,18,-1
 80 106 l 1,19,20
 171 64 171 64 252.5 64 c 128,-1,21
 334 64 334 64 376.5 97 c 128,-1,22
 419 130 419 130 419 193 c 0,23,24
 419 257 419 257 350 293 c 0,25,26
 319 309 319 309 281.5 323 c 128,-1,27
 244 337 244 337 206.5 353.5 c 128,-1,28
 169 370 169 370 138.5 391 c 128,-1,29
 108 412 108 412 88.5 448 c 128,-1,30
 69 484 69 484 69 532 c 0,31,32
 69 618 69 618 120.5 664 c 128,-1,33
 172 710 172 710 259 710 c 128,-1,34
 346 710 346 710 443 675 c 1,0,-1
EndSplineSet
EndChar

StartChar: T
Encoding: 84 84 56
Width: 504
GlyphClass: 2
Flags: W
LayerCount: 2
Fore
SplineSet
216 0 m 1,0,-1
 216 633 l 1,1,-1
 20 633 l 1,2,-1
 20 700 l 1,3,-1
 484 700 l 1,4,-1
 484 633 l 1,5,-1
 290 633 l 1,6,-1
 290 0 l 1,7,-1
 216 0 l 1,0,-1
EndSplineSet
EndChar

StartChar: U
Encoding: 85 85 57
Width: 664
GlyphClass: 2
Flags: W
LayerCount: 2
Fore
SplineSet
332 -6 m 128,-1,1
 214 -6 214 -6 152.5 60.5 c 128,-1,2
 91 127 91 127 91 258 c 2,3,-1
 91 700 l 1,4,-1
 167 700 l 1,5,-1
 167 246 l 2,6,7
 167 157 167 157 209.5 108 c 128,-1,8
 252 59 252 59 330.5 59 c 128,-1,9
 409 59 409 59 453 107.5 c 128,-1,10
 497 156 497 156 497 246 c 2,11,-1
 497 700 l 1,12,-1
 573 700 l 1,13,-1
 573 258 l 2,14,15
 573 127 573 127 511.5 60.5 c 128,-1,0
 450 -6 450 -6 332 -6 c 128,-1,1
EndSplineSet
EndChar

StartChar: V
Encoding: 86 86 58
Width: 546
GlyphClass: 2
Flags: W
LayerCount: 2
Fore
SplineSet
533 700 m 1,0,-1
 317 0 l 1,1,-1
 212 0 l 1,2,-1
 13 700 l 1,3,-1
 97 700 l 1,4,-1
 268 85 l 1,5,-1
 451 700 l 1,6,-1
 533 700 l 1,0,-1
EndSplineSet
EndChar

StartChar: W
Encoding: 87 87 59
Width: 751
GlyphClass: 2
Flags: W
LayerCount: 2
Fore
SplineSet
738 699 m 1,0,-1
 572 0 l 1,1,-1
 485 0 l 1,2,-1
 383 406 l 1,3,-1
 258 0 l 1,4,-1
 176 0 l 1,5,-1
 13 699 l 1,6,-1
 99 699 l 1,7,-1
 221 85 l 1,8,-1
 354 510 l 1,9,-1
 410 510 l 1,10,-1
 533 85 l 1,11,-1
 659 699 l 1,12,-1
 738 699 l 1,0,-1
EndSplineSet
EndChar

StartChar: X
Encoding: 88 88 60
Width: 584
GlyphClass: 2
Flags: W
LayerCount: 2
Fore
SplineSet
564 0 m 1,0,-1
 472 0 l 1,1,-1
 294 315 l 1,2,-1
 111 0 l 1,3,-1
 20 0 l 1,4,-1
 252 368 l 1,5,-1
 41 701 l 1,6,-1
 136 701 l 1,7,-1
 297 424 l 1,8,-1
 463 701 l 1,9,-1
 553 701 l 1,10,-1
 339 368 l 1,11,-1
 564 0 l 1,0,-1
EndSplineSet
EndChar

StartChar: Y
Encoding: 89 89 61
Width: 552
GlyphClass: 2
Flags: W
LayerCount: 2
Fore
SplineSet
539 700 m 1,0,-1
 309 315 l 1,1,-1
 309 0 l 1,2,-1
 234 0 l 1,3,-1
 234 315 l 1,4,-1
 13 700 l 1,5,-1
 96 700 l 1,6,-1
 273 376 l 1,7,-1
 458 700 l 1,8,-1
 539 700 l 1,0,-1
EndSplineSet
EndChar

StartChar: Z
Encoding: 90 90 62
Width: 508
GlyphClass: 2
Flags: W
LayerCount: 2
Fore
SplineSet
479 0 m 1,0,-1
 40 0 l 1,1,-1
 40 62 l 1,2,-1
 360 635 l 1,3,-1
 39 635 l 1,4,-1
 39 700 l 1,5,-1
 448 700 l 1,6,-1
 448 643 l 1,7,-1
 131 66 l 1,8,-1
 479 66 l 1,9,-1
 479 0 l 1,0,-1
EndSplineSet
EndChar

StartChar: bracketleft
Encoding: 91 91 63
Width: 340
GlyphClass: 2
Flags: W
LayerCount: 2
Fore
SplineSet
301 -200 m 1,0,-1
 91 -200 l 1,1,-1
 91 800 l 1,2,-1
 298 800 l 1,3,-1
 298 735 l 1,4,-1
 166 735 l 1,5,-1
 166 -136 l 1,6,-1
 301 -136 l 1,7,-1
 301 -200 l 1,0,-1
EndSplineSet
EndChar

StartChar: backslash
Encoding: 92 92 64
Width: 484
GlyphClass: 2
Flags: W
LayerCount: 2
Fore
SplineSet
363 -145 m 1,0,-1
 39 800 l 1,1,-1
 118 800 l 1,2,-1
 443 -145 l 1,3,-1
 363 -145 l 1,0,-1
EndSplineSet
EndChar

StartChar: bracketright
Encoding: 93 93 65
Width: 340
GlyphClass: 2
Flags: W
LayerCount: 2
Fore
SplineSet
249 -200 m 1,0,-1
 39 -200 l 1,1,-1
 39 -136 l 1,2,-1
 174 -136 l 1,3,-1
 174 735 l 1,4,-1
 42 735 l 1,5,-1
 42 800 l 1,6,-1
 249 800 l 1,7,-1
 249 -200 l 1,0,-1
EndSplineSet
EndChar

StartChar: asciicircum
Encoding: 94 94 66
Width: 639
GlyphClass: 2
Flags: W
LayerCount: 2
Fore
SplineSet
347 667 m 1,0,-1
 571 275 l 1,1,-1
 494 275 l 1,2,-1
 319 594 l 1,3,-1
 146 275 l 1,4,-1
 66 275 l 1,5,-1
 291 667 l 1,6,-1
 347 667 l 1,0,-1
EndSplineSet
EndChar

StartChar: underscore
Encoding: 95 95 67
Width: 430
GlyphClass: 2
Flags: W
LayerCount: 2
Fore
SplineSet
430 -236 m 1,0,-1
 0 -236 l 1,1,-1
 0 -171 l 1,2,-1
 430 -171 l 1,3,-1
 430 -236 l 1,0,-1
EndSplineSet
EndChar

StartChar: grave
Encoding: 96 96 68
Width: 391
GlyphClass: 2
Flags: W
LayerCount: 2
Fore
SplineSet
264 592 m 1,0,-1
 206 571 l 1,1,-1
 76 703 l 1,2,-1
 151 733 l 1,3,-1
 264 592 l 1,0,-1
EndSplineSet
EndChar

StartChar: a
Encoding: 97 97 69
Width: 516
GlyphClass: 2
Flags: W
LayerCount: 2
Fore
SplineSet
307 299 m 2,0,-1
 348 299 l 1,1,2
 348 390 348 390 325 417.5 c 128,-1,3
 302 445 302 445 223 445 c 128,-1,4
 144 445 144 445 89 424 c 1,5,-1
 75 482 l 1,6,7
 159 510 159 510 249 510 c 0,8,9
 425 510 425 510 425 334 c 2,10,-1
 425 0 l 1,11,-1
 381 0 l 1,12,-1
 355 59 l 1,13,14
 309 21 309 21 275.5 7.5 c 128,-1,15
 242 -6 242 -6 198 -6 c 0,16,17
 128 -6 128 -6 89 35.5 c 128,-1,18
 50 77 50 77 50 145 c 0,19,20
 50 299 50 299 307 299 c 2,0,-1
349 236 m 1,21,-1
 304 236 l 2,22,23
 202 236 202 236 163.5 216 c 128,-1,24
 125 196 125 196 125 153.5 c 128,-1,25
 125 111 125 111 147 84 c 128,-1,26
 169 57 169 57 204.5 57 c 128,-1,27
 240 57 240 57 272.5 73.5 c 128,-1,28
 305 90 305 90 349 131 c 1,29,-1
 349 236 l 1,21,-1
EndSplineSet
EndChar

StartChar: b
Encoding: 98 98 70
Width: 546
GlyphClass: 2
Flags: W
LayerCount: 2
Fore
SplineSet
91 700 m 1,0,-1
 166 700 l 1,1,-1
 166 450 l 1,2,3
 252 511 252 511 320 511 c 0,4,5
 500 511 500 511 500 252 c 0,6,7
 500 105 500 105 436 46 c 0,8,9
 379 -6 379 -6 302 -6 c 0,10,11
 263 -6 263 -6 223 11.5 c 128,-1,12
 183 29 183 29 157 49 c 1,13,-1
 135 0 l 1,14,-1
 91 0 l 1,15,-1
 91 700 l 1,0,-1
166 379 m 1,16,-1
 166 107 l 1,17,18
 186 84 186 84 219.5 71 c 128,-1,19
 253 58 253 58 285 58 c 0,20,21
 363 58 363 58 394 104 c 128,-1,22
 425 150 425 150 425 248 c 128,-1,23
 425 346 425 346 394 396 c 128,-1,24
 363 446 363 446 315 446 c 0,25,26
 243 446 243 446 166 379 c 1,16,-1
EndSplineSet
EndChar

StartChar: c
Encoding: 99 99 71
Width: 433
GlyphClass: 2
Flags: W
LayerCount: 2
Fore
SplineSet
385 78 m 1,0,-1
 400 19 l 1,1,2
 320 -5 320 -5 259 -5 c 0,3,4
 152 -5 152 -5 98 65 c 128,-1,5
 44 135 44 135 44 258 c 128,-1,6
 44 381 44 381 100 445.5 c 128,-1,7
 156 510 156 510 265 510 c 0,8,9
 312 510 312 510 397 486 c 1,10,-1
 367 428 l 1,11,12
 312 444 312 444 268 444 c 0,13,14
 192 444 192 444 158.5 399 c 128,-1,15
 125 354 125 354 125 257 c 0,16,17
 125 60 125 60 266 60 c 0,18,19
 322 60 322 60 385 78 c 1,0,-1
EndSplineSet
EndChar

StartChar: d
Encoding: 100 100 72
Width: 542
GlyphClass: 2
Flags: W
LayerCount: 2
Fore
SplineSet
376 700 m 1,0,-1
 451 700 l 1,1,-1
 451 0 l 1,2,-1
 407 0 l 1,3,-1
 382 57 l 1,4,5
 290 -8 290 -8 222 -8 c 0,6,7
 42 -8 42 -8 42 251 c 0,8,9
 42 398 42 398 106 456 c 0,10,11
 163 509 163 509 235 509 c 128,-1,12
 307 509 307 509 376 460 c 1,13,-1
 376 700 l 1,0,-1
376 124 m 1,14,-1
 376 384 l 1,15,16
 355 409 355 409 320.5 427 c 128,-1,17
 286 445 286 445 257 445 c 0,18,19
 179 445 179 445 148 399 c 128,-1,20
 117 353 117 353 117 255 c 128,-1,21
 117 157 117 157 148 107 c 128,-1,22
 179 57 179 57 227 57 c 0,23,24
 299 57 299 57 376 124 c 1,14,-1
EndSplineSet
EndChar

StartChar: e
Encoding: 101 101 73
Width: 489
GlyphClass: 2
Flags: W
LayerCount: 2
Fore
SplineSet
438 234 m 1,0,-1
 119 234 l 1,1,2
 119 138 119 138 164.5 98 c 128,-1,3
 210 58 210 58 279 58 c 0,4,5
 314 58 314 58 328 61.5 c 128,-1,6
 342 65 342 65 354.5 68.5 c 128,-1,7
 367 72 367 72 372 74 c 0,8,9
 397 81 397 81 415 87 c 1,10,-1
 427 29 l 1,11,12
 327 -6 327 -6 271 -6 c 0,13,14
 168 -6 168 -6 106 56.5 c 128,-1,15
 44 119 44 119 44 244.5 c 128,-1,16
 44 370 44 370 102.5 440 c 128,-1,17
 161 510 161 510 250.5 510 c 128,-1,18
 340 510 340 510 390 452 c 128,-1,19
 440 394 440 394 440 295 c 0,20,21
 440 268 440 268 438 234 c 1,0,-1
124 291 m 1,22,-1
 368 291 l 1,23,24
 368 365 368 365 342 405 c 128,-1,25
 316 445 316 445 251.5 445 c 128,-1,26
 187 445 187 445 157 402 c 128,-1,27
 127 359 127 359 124 291 c 1,22,-1
EndSplineSet
EndChar

StartChar: f
Encoding: 102 102 74
Width: 291
GlyphClass: 2
Flags: W
LayerCount: 2
Fore
SplineSet
113 500 m 1,0,-1
 113 596 l 2,1,2
 113 657 113 657 150.5 683.5 c 128,-1,3
 188 710 188 710 231.5 710 c 128,-1,4
 275 710 275 710 316 697 c 1,5,-1
 305 643 l 1,6,7
 272 649 272 649 256 649 c 0,8,9
 187 649 187 649 187 582 c 2,10,-1
 187 500 l 1,11,-1
 289 500 l 1,12,-1
 289 440 l 1,13,-1
 187 440 l 1,14,-1
 187 0 l 1,15,-1
 112 0 l 1,16,-1
 112 440 l 1,17,-1
 35 440 l 1,18,-1
 35 500 l 1,19,-1
 113 500 l 1,0,-1
EndSplineSet
EndChar

StartChar: g
Encoding: 103 103 75
Width: 542
GlyphClass: 2
Flags: W
LayerCount: 2
Fore
SplineSet
375 53 m 1,0,1
 291 -7 291 -7 222 -7 c 0,2,3
 42 -7 42 -7 42 252 c 0,4,5
 42 399 42 399 106 458 c 0,6,7
 163 510 163 510 244.5 510 c 128,-1,8
 326 510 326 510 381 436 c 1,9,-1
 407 501 l 1,10,-1
 451 501 l 1,11,-1
 451 -25 l 2,12,13
 451 -134 451 -134 397 -187 c 128,-1,14
 343 -240 343 -240 251 -240 c 0,15,16
 204 -240 204 -240 167 -228 c 128,-1,17
 130 -216 130 -216 90 -201 c 1,18,-1
 104 -148 l 1,19,20
 188 -175 188 -175 244.5 -175 c 128,-1,21
 301 -175 301 -175 338 -140 c 128,-1,22
 375 -105 375 -105 375 -34 c 2,23,-1
 375 53 l 1,0,1
375 125 m 1,24,-1
 375 312 l 2,25,26
 375 371 375 371 336 408 c 128,-1,27
 297 445 297 445 256 445 c 0,28,29
 178 445 178 445 147 399.5 c 128,-1,30
 116 354 116 354 116 254 c 0,31,32
 116 58 116 58 226 58 c 0,33,34
 298 58 298 58 375 125 c 1,24,-1
EndSplineSet
EndChar

StartChar: h
Encoding: 104 104 76
Width: 556
GlyphClass: 2
Flags: W
LayerCount: 2
Fore
SplineSet
465 0 m 1,0,-1
 390 0 l 1,1,-1
 390 329 l 2,2,3
 390 450 390 450 289 450 c 0,4,5
 214 450 214 450 166 402 c 1,6,-1
 166 0 l 1,7,-1
 91 0 l 1,8,-1
 91 700 l 1,9,-1
 165 700 l 1,10,-1
 165 463 l 1,11,12
 187 481 187 481 199.5 489 c 128,-1,13
 212 497 212 497 240.5 505 c 128,-1,14
 269 513 269 513 305 513 c 0,15,16
 374 513 374 513 419.5 471 c 128,-1,17
 465 429 465 429 465 351 c 2,18,-1
 465 0 l 1,0,-1
EndSplineSet
EndChar

StartChar: i
Encoding: 105 105 77
Width: 228
GlyphClass: 2
Flags: W
LayerCount: 2
Fore
SplineSet
77 0 m 1,0,-1
 77 500 l 1,1,-1
 152 500 l 1,2,-1
 152 0 l 1,3,-1
 77 0 l 1,0,-1
152 700 m 1,4,-1
 152 611 l 1,5,-1
 77 611 l 1,6,-1
 77 700 l 1,7,-1
 152 700 l 1,4,-1
EndSplineSet
EndChar

StartChar: j
Encoding: 106 106 78
Width: 222
GlyphClass: 2
Flags: W
LayerCount: 2
Fore
SplineSet
146 700 m 1,0,-1
 146 612 l 1,1,-1
 71 612 l 1,2,-1
 71 700 l 1,3,-1
 146 700 l 1,0,-1
30 -204 m 1,4,5
 71 -151 71 -151 71 -34 c 2,6,-1
 71 500 l 1,7,-1
 146 500 l 1,8,-1
 146 -10 l 2,9,10
 146 -96 146 -96 129.5 -147 c 128,-1,11
 113 -198 113 -198 74 -239 c 1,12,-1
 30 -204 l 1,4,5
EndSplineSet
EndChar

StartChar: k
Encoding: 107 107 79
Width: 509
GlyphClass: 2
Flags: W
LayerCount: 2
Fore
SplineSet
91 700 m 1,0,-1
 166 700 l 1,1,-1
 166 288 l 1,2,-1
 380 500 l 1,3,-1
 475 500 l 1,4,-1
 263 297 l 1,5,-1
 486 0 l 1,6,-1
 401 0 l 1,7,-1
 219 250 l 1,8,-1
 166 196 l 1,9,-1
 166 0 l 1,10,-1
 91 0 l 1,11,-1
 91 700 l 1,0,-1
EndSplineSet
EndChar

StartChar: l
Encoding: 108 108 80
Width: 257
GlyphClass: 2
Flags: W
LayerCount: 2
Fore
SplineSet
91 0 m 1,0,-1
 91 700 l 1,1,-1
 166 700 l 1,2,-1
 166 0 l 1,3,-1
 91 0 l 1,0,-1
EndSplineSet
EndChar

StartChar: m
Encoding: 109 109 81
Width: 850
GlyphClass: 2
Flags: W
LayerCount: 2
Fore
SplineSet
302 511 m 0,0,1
 398 511 398 511 439 443 c 1,2,3
 524 511 524 511 596 511 c 128,-1,4
 668 511 668 511 713.5 470.5 c 128,-1,5
 759 430 759 430 759 353 c 2,6,-1
 759 0 l 1,7,-1
 686 0 l 1,8,-1
 686 322 l 2,9,10
 686 383 686 383 658.5 414.5 c 128,-1,11
 631 446 631 446 585 446 c 0,12,13
 522 446 522 446 458 396 c 1,14,15
 463 374 463 374 463 353 c 2,16,-1
 463 0 l 1,17,-1
 390 0 l 1,18,-1
 390 322 l 2,19,20
 390 383 390 383 362.5 414.5 c 128,-1,21
 335 446 335 446 289 446 c 0,22,23
 259 446 259 446 234 438 c 128,-1,24
 209 430 209 430 197 422 c 128,-1,25
 185 414 185 414 166 398 c 1,26,-1
 166 0 l 1,27,-1
 91 0 l 1,28,-1
 91 500 l 1,29,-1
 139 500 l 1,30,-1
 152 449 l 1,31,32
 177 470 177 470 190.5 479.5 c 128,-1,33
 204 489 204 489 235 500 c 128,-1,34
 266 511 266 511 302 511 c 0,0,1
EndSplineSet
EndChar

StartChar: n
Encoding: 110 110 82
Width: 554
GlyphClass: 2
Flags: W
LayerCount: 2
Fore
SplineSet
166 397 m 1,0,-1
 166 0 l 1,1,-1
 91 0 l 1,2,-1
 91 500 l 1,3,-1
 139 500 l 1,4,-1
 151 451 l 1,5,6
 174 469 174 469 188.5 479 c 128,-1,7
 203 489 203 489 235 499.5 c 128,-1,8
 267 510 267 510 303 510 c 0,9,10
 372 510 372 510 417.5 467.5 c 128,-1,11
 463 425 463 425 463 347 c 2,12,-1
 463 0 l 1,13,-1
 388 0 l 1,14,-1
 388 325 l 2,15,16
 388 446 388 446 287 446 c 0,17,18
 215 446 215 446 166 397 c 1,0,-1
EndSplineSet
EndChar

StartChar: o
Encoding: 111 111 83
Width: 518
GlyphClass: 2
Flags: W
LayerCount: 2
Fore
SplineSet
362 394 m 128,-1,1
 324 445 324 445 251 445 c 128,-1,2
 178 445 178 445 147.5 396.5 c 128,-1,3
 117 348 117 348 117 248 c 0,4,5
 117 59 117 59 256 59 c 0,6,7
 329 59 329 59 364.5 104.5 c 128,-1,8
 400 150 400 150 400 246.5 c 128,-1,0
 400 343 400 343 362 394 c 128,-1,1
257 -6 m 128,-1,10
 153 -6 153 -6 97.5 61.5 c 128,-1,11
 42 129 42 129 42 250.5 c 128,-1,12
 42 372 42 372 95.5 441 c 128,-1,13
 149 510 149 510 252.5 510 c 128,-1,14
 356 510 356 510 415.5 440 c 128,-1,15
 475 370 475 370 475 250 c 128,-1,16
 475 130 475 130 418 62 c 128,-1,9
 361 -6 361 -6 257 -6 c 128,-1,10
EndSplineSet
EndChar

StartChar: p
Encoding: 112 112 84
Width: 546
GlyphClass: 2
Flags: W
LayerCount: 2
Fore
SplineSet
166 -238 m 1,0,-1
 91 -238 l 1,1,-1
 91 499 l 1,2,-1
 135 499 l 1,3,-1
 161 443 l 1,4,5
 203 475 203 475 239.5 492.5 c 128,-1,6
 276 510 276 510 320 510 c 0,7,8
 500 510 500 510 500 251 c 0,9,10
 500 104 500 104 436 46 c 0,11,12
 379 -7 379 -7 306.5 -7 c 128,-1,13
 234 -7 234 -7 166 41 c 1,14,-1
 166 -238 l 1,0,-1
166 376 m 1,15,-1
 166 109 l 1,16,17
 186 85 186 85 220 71 c 128,-1,18
 254 57 254 57 285 57 c 0,19,20
 363 57 363 57 394 103 c 128,-1,21
 425 149 425 149 425 247 c 128,-1,22
 425 345 425 345 394 395 c 128,-1,23
 363 445 363 445 315 445 c 0,24,25
 283 445 283 445 251.5 432 c 128,-1,26
 220 419 220 419 204.5 407.5 c 128,-1,27
 189 396 189 396 166 376 c 1,15,-1
EndSplineSet
EndChar

StartChar: q
Encoding: 113 113 85
Width: 542
GlyphClass: 2
Flags: W
LayerCount: 2
Fore
SplineSet
376 138 m 1,0,-1
 376 369 l 1,1,2
 356 400 356 400 312 422.5 c 128,-1,3
 268 445 268 445 231 445 c 0,4,5
 172 445 172 445 144.5 400 c 128,-1,6
 117 355 117 355 117 255 c 0,7,8
 117 58 117 58 247 58 c 0,9,10
 286 58 286 58 321.5 80 c 128,-1,11
 357 102 357 102 376 138 c 1,0,-1
451 -240 m 1,12,-1
 376 -240 l 1,13,-1
 376 56 l 1,14,-1
 360 40 l 2,15,16
 344 25 344 25 333 17.5 c 128,-1,17
 322 10 322 10 295.5 1.5 c 128,-1,18
 269 -7 269 -7 237 -7 c 0,19,20
 154 -7 154 -7 98 52 c 128,-1,21
 42 111 42 111 42 236 c 128,-1,22
 42 361 42 361 88 435.5 c 128,-1,23
 134 510 134 510 235 510 c 0,24,25
 306 510 306 510 381 443 c 1,26,-1
 407 500 l 1,27,-1
 451 500 l 1,28,-1
 451 -240 l 1,12,-1
EndSplineSet
EndChar

StartChar: r
Encoding: 114 114 86
Width: 371
GlyphClass: 2
Flags: W
LayerCount: 2
Fore
SplineSet
166 382 m 1,0,-1
 166 0 l 1,1,-1
 91 0 l 1,2,-1
 91 500 l 1,3,-1
 139 500 l 1,4,-1
 151 441 l 1,5,6
 199 479 199 479 231 494.5 c 128,-1,7
 263 510 263 510 304 510 c 0,8,9
 324 510 324 510 334 508 c 2,10,-1
 348 504 l 1,11,-1
 336 435 l 1,12,13
 318 441 318 441 287 441 c 0,14,15
 227 441 227 441 166 382 c 1,0,-1
EndSplineSet
EndChar

StartChar: s
Encoding: 115 115 87
Width: 436
GlyphClass: 2
Flags: W
LayerCount: 2
Fore
SplineSet
72 89 m 1,0,1
 137 59 137 59 196 59 c 128,-1,2
 255 59 255 59 285.5 82.5 c 128,-1,3
 316 106 316 106 316 145 c 128,-1,4
 316 184 316 184 290 205.5 c 128,-1,5
 264 227 264 227 226.5 239 c 128,-1,6
 189 251 189 251 151.5 265 c 128,-1,7
 114 279 114 279 88 307 c 128,-1,8
 62 335 62 335 62 378 c 0,9,10
 62 441 62 441 103 475.5 c 128,-1,11
 144 510 144 510 214 510 c 128,-1,12
 284 510 284 510 344 489 c 1,13,-1
 351 486 l 1,14,-1
 338 422 l 1,15,16
 278 445 278 445 226.5 445 c 128,-1,17
 175 445 175 445 156 429 c 128,-1,18
 137 413 137 413 137 375 c 0,19,20
 137 351 137 351 163 334 c 128,-1,21
 189 317 189 317 226.5 304.5 c 128,-1,22
 264 292 264 292 301.5 275.5 c 128,-1,23
 339 259 339 259 365 226 c 128,-1,24
 391 193 391 193 391 145 c 0,25,26
 391 75 391 75 342 34.5 c 128,-1,27
 293 -6 293 -6 207 -6 c 128,-1,28
 121 -6 121 -6 54 33 c 1,29,-1
 72 89 l 1,0,1
EndSplineSet
EndChar

StartChar: t
Encoding: 116 116 88
Width: 346
GlyphClass: 2
Flags: W
LayerCount: 2
Fore
SplineSet
103 108 m 2,0,-1
 103 440 l 1,1,-1
 35 440 l 1,2,-1
 35 500 l 1,3,-1
 104 500 l 1,4,-1
 104 643 l 1,5,-1
 179 643 l 1,6,-1
 179 500 l 1,7,-1
 301 500 l 1,8,-1
 301 440 l 1,9,-1
 178 440 l 1,10,-1
 178 122 l 2,11,12
 178 55 178 55 246 55 c 0,13,14
 262 55 262 55 295 61 c 1,15,-1
 306 7 l 1,16,17
 265 -6 265 -6 221.5 -6 c 128,-1,18
 178 -6 178 -6 140.5 20.5 c 128,-1,19
 103 47 103 47 103 108 c 2,0,-1
EndSplineSet
EndChar

StartChar: u
Encoding: 117 117 89
Width: 544
GlyphClass: 2
Flags: W
LayerCount: 2
Fore
SplineSet
377 127 m 1,0,-1
 377 500 l 1,1,-1
 453 500 l 1,2,-1
 453 0 l 1,3,-1
 409 0 l 1,4,-1
 384 59 l 1,5,6
 304 -6 304 -6 231 -6 c 128,-1,7
 158 -6 158 -6 119.5 36.5 c 128,-1,8
 81 79 81 79 81 157 c 2,9,-1
 81 500 l 1,10,-1
 156 500 l 1,11,-1
 156 169 l 2,12,13
 156 110 156 110 173.5 84 c 128,-1,14
 191 58 191 58 231.5 58 c 128,-1,15
 272 58 272 58 314 80 c 128,-1,16
 356 102 356 102 377 127 c 1,0,-1
EndSplineSet
EndChar

StartChar: v
Encoding: 118 118 90
Width: 445
GlyphClass: 2
Flags: W
LayerCount: 2
Fore
SplineSet
434 501 m 1,0,-1
 265 0 l 1,1,-1
 179 0 l 1,2,-1
 11 501 l 1,3,-1
 96 501 l 1,4,-1
 223 80 l 1,5,-1
 351 501 l 1,6,-1
 434 501 l 1,0,-1
EndSplineSet
EndChar

StartChar: w
Encoding: 119 119 91
Width: 679
GlyphClass: 2
Flags: W
LayerCount: 2
Fore
SplineSet
157 0 m 1,0,-1
 11 500 l 1,1,-1
 89 500 l 1,2,-1
 200 79 l 1,3,-1
 303 500 l 1,4,-1
 377 500 l 1,5,-1
 488 75 l 1,6,-1
 590 500 l 1,7,-1
 668 500 l 1,8,-1
 531 0 l 1,9,-1
 443 0 l 1,10,-1
 340 395 l 1,11,-1
 243 0 l 1,12,-1
 157 0 l 1,0,-1
EndSplineSet
EndChar

StartChar: x
Encoding: 120 120 92
Width: 436
GlyphClass: 2
Flags: W
LayerCount: 2
Fore
SplineSet
113 501 m 1,0,-1
 218 324 l 1,1,-1
 323 501 l 1,2,-1
 406 501 l 1,3,-1
 259 255 l 1,4,-1
 412 0 l 1,5,-1
 329 0 l 1,6,-1
 218 198 l 1,7,-1
 107 0 l 1,8,-1
 24 0 l 1,9,-1
 177 255 l 1,10,-1
 30 501 l 1,11,-1
 113 501 l 1,0,-1
EndSplineSet
EndChar

StartChar: y
Encoding: 121 121 93
Width: 445
GlyphClass: 2
Flags: W
LayerCount: 2
Fore
SplineSet
180 -10 m 1,0,-1
 11 500 l 1,1,-1
 96 500 l 1,2,-1
 223 80 l 1,3,-1
 351 500 l 1,4,-1
 434 500 l 1,5,-1
 262 0 l 2,6,7
 229 -97 229 -97 189 -150 c 128,-1,8
 149 -203 149 -203 86 -236 c 1,9,-1
 58 -184 l 1,10,11
 98 -161 98 -161 133 -116 c 128,-1,12
 168 -71 168 -71 180 -10 c 1,0,-1
EndSplineSet
EndChar

StartChar: z
Encoding: 122 122 94
Width: 421
GlyphClass: 2
Flags: W
LayerCount: 2
Fore
SplineSet
49 500 m 1,0,-1
 356 500 l 1,1,-1
 356 440 l 1,2,-1
 136 65 l 1,3,-1
 368 65 l 1,4,-1
 368 0 l 1,5,-1
 49 0 l 1,6,-1
 49 60 l 1,7,-1
 269 435 l 1,8,-1
 49 435 l 1,9,-1
 49 500 l 1,0,-1
EndSplineSet
EndChar

StartChar: braceleft
Encoding: 123 123 95
Width: 356
GlyphClass: 2
Flags: W
LayerCount: 2
Fore
SplineSet
124 145 m 2,0,1
 124 278 124 278 30 278 c 1,2,-1
 30 324 l 1,3,4
 84 324 84 324 104 354.5 c 128,-1,5
 124 385 124 385 124 451 c 2,6,-1
 124 601 l 2,7,8
 124 801 124 801 305 801 c 2,9,-1
 326 801 l 1,10,-1
 326 737 l 1,11,-1
 306 737 l 2,12,13
 244 737 244 737 221.5 705 c 128,-1,14
 199 673 199 673 199 591 c 2,15,-1
 199 438 l 2,16,17
 199 369 199 369 185 343 c 128,-1,18
 171 317 171 317 123 304 c 1,19,20
 167 295 167 295 183 265 c 128,-1,21
 199 235 199 235 199 172 c 2,22,-1
 199 21 l 2,23,24
 199 -72 199 -72 223 -104.5 c 128,-1,25
 247 -137 247 -137 309 -137 c 2,26,-1
 326 -137 l 1,27,-1
 326 -201 l 1,28,-1
 303 -201 l 2,29,30
 217 -201 217 -201 170.5 -156 c 128,-1,31
 124 -111 124 -111 124 -5 c 2,32,-1
 124 145 l 2,0,1
EndSplineSet
EndChar

StartChar: bar
Encoding: 124 124 96
Width: 291
GlyphClass: 2
Flags: W
LayerCount: 2
Fore
SplineSet
183 -203 m 1,0,-1
 108 -203 l 1,1,-1
 108 800 l 1,2,-1
 183 800 l 1,3,-1
 183 -203 l 1,0,-1
EndSplineSet
EndChar

StartChar: braceright
Encoding: 125 125 97
Width: 356
GlyphClass: 2
Flags: W
LayerCount: 2
Fore
SplineSet
232 145 m 2,0,-1
 232 -5 l 2,1,2
 232 -111 232 -111 185.5 -156 c 128,-1,3
 139 -201 139 -201 53 -201 c 2,4,-1
 30 -201 l 1,5,-1
 30 -137 l 1,6,-1
 47 -137 l 2,7,8
 109 -137 109 -137 133 -104.5 c 128,-1,9
 157 -72 157 -72 157 21 c 2,10,-1
 157 172 l 2,11,12
 157 235 157 235 173 265 c 128,-1,13
 189 295 189 295 233 304 c 1,14,15
 185 317 185 317 171 343 c 128,-1,16
 157 369 157 369 157 438 c 2,17,-1
 157 591 l 2,18,19
 157 673 157 673 134.5 705 c 128,-1,20
 112 737 112 737 50 737 c 2,21,-1
 30 737 l 1,22,-1
 30 801 l 1,23,-1
 51 801 l 2,24,25
 232 801 232 801 232 601 c 2,26,-1
 232 451 l 2,27,28
 232 385 232 385 252 354.5 c 128,-1,29
 272 324 272 324 326 324 c 1,30,-1
 326 278 l 1,31,32
 232 278 232 278 232 145 c 2,0,-1
EndSplineSet
EndChar

StartChar: asciitilde
Encoding: 126 126 98
Width: 527
GlyphClass: 2
Flags: W
LayerCount: 2
Fore
SplineSet
473 308 m 1,0,1
 455 269 455 269 424 247.5 c 128,-1,2
 393 226 393 226 351.5 226 c 128,-1,3
 310 226 310 226 256 255.5 c 128,-1,4
 202 285 202 285 163 285 c 128,-1,5
 124 285 124 285 79 240 c 1,6,-1
 54 287 l 1,7,8
 73 315 73 315 104.5 333 c 128,-1,9
 136 351 136 351 176.5 351 c 128,-1,10
 217 351 217 351 271 321 c 128,-1,11
 325 291 325 291 363.5 291 c 128,-1,12
 402 291 402 291 448 337 c 1,13,-1
 473 308 l 1,0,1
EndSplineSet
EndChar

StartChar: exclamdown
Encoding: 161 161 100
Width: 266
GlyphClass: 2
Flags: W
LayerCount: 2
Fore
SplineSet
95 404 m 1,0,-1
 170 404 l 1,1,-1
 170 -107 l 1,2,-1
 95 -107 l 1,3,-1
 95 404 l 1,0,-1
96 594 m 1,4,-1
 171 594 l 1,5,-1
 171 501 l 1,6,-1
 96 501 l 1,7,-1
 96 594 l 1,4,-1
EndSplineSet
EndChar

StartChar: cent
Encoding: 162 162 101
Width: 381
GlyphClass: 2
Flags: W
LayerCount: 2
Fore
SplineSet
325 173 m 1,0,-1
 338 110 l 1,1,2
 276 92 276 92 223 92 c 1,3,-1
 223 0 l 1,4,-1
 158 0 l 1,5,-1
 158 94 l 1,6,7
 44 130 44 130 44 303 c 128,-1,8
 44 476 44 476 158 509 c 1,9,-1
 158 606 l 1,10,-1
 223 606 l 1,11,-1
 223 510 l 1,12,13
 275 510 275 510 339 491 c 1,14,-1
 318 431 l 1,15,16
 274 444 274 444 235 444 c 0,17,18
 171 444 171 444 145 413.5 c 128,-1,19
 119 383 119 383 119 305 c 128,-1,20
 119 227 119 227 143.5 192.5 c 128,-1,21
 168 158 168 158 221 158 c 128,-1,22
 274 158 274 158 325 173 c 1,0,-1
EndSplineSet
EndChar

StartChar: sterling
Encoding: 163 163 102
Width: 540
GlyphClass: 2
Flags: W
LayerCount: 2
Fore
SplineSet
203 415 m 1,0,-1
 370 415 l 1,1,-1
 370 350 l 1,2,-1
 203 350 l 1,3,-1
 203 65 l 1,4,-1
 475 65 l 1,5,-1
 475 0 l 1,6,-1
 128 0 l 1,7,-1
 128 350 l 1,8,-1
 60 350 l 1,9,-1
 60 415 l 1,10,-1
 128 415 l 1,11,-1
 128 596 l 2,12,13
 128 657 128 657 167 684 c 128,-1,14
 206 711 206 711 261 711 c 0,15,16
 291 711 291 711 335 697 c 1,17,-1
 324 643 l 1,18,19
 291 649 291 649 266.5 649 c 128,-1,20
 242 649 242 649 222.5 630 c 128,-1,21
 203 611 203 611 203 574 c 2,22,-1
 203 415 l 1,0,-1
EndSplineSet
EndChar

StartChar: currency
Encoding: 164 164 103
Width: 608
GlyphClass: 2
Flags: W
LayerCount: 2
Fore
SplineSet
440 101 m 1,0,1
 386 61 386 61 300 61 c 128,-1,2
 214 61 214 61 161 105 c 1,3,-1
 106 50 l 1,4,-1
 61 96 l 1,5,-1
 119 154 l 1,6,7
 86 210 86 210 86 292 c 128,-1,8
 86 374 86 374 114 429 c 1,9,-1
 55 489 l 1,10,-1
 108 542 l 1,11,-1
 162 488 l 1,12,13
 216 529 216 529 302.5 529 c 128,-1,14
 389 529 389 529 446 481 c 1,15,-1
 509 544 l 1,16,-1
 555 498 l 1,17,-1
 489 432 l 1,18,19
 524 376 524 376 524 295.5 c 128,-1,20
 524 215 524 215 491 157 c 1,21,-1
 553 95 l 1,22,-1
 500 42 l 1,23,-1
 440 101 l 1,0,1
300 464 m 128,-1,25
 228 464 228 464 192 416 c 128,-1,26
 156 368 156 368 156 293.5 c 128,-1,27
 156 219 156 219 196 172.5 c 128,-1,28
 236 126 236 126 305.5 126 c 128,-1,29
 375 126 375 126 414.5 169.5 c 128,-1,30
 454 213 454 213 454 290.5 c 128,-1,31
 454 368 454 368 413 416 c 128,-1,24
 372 464 372 464 300 464 c 128,-1,25
EndSplineSet
EndChar

StartChar: yen
Encoding: 165 165 104
Width: 610
GlyphClass: 2
Flags: W
LayerCount: 2
Fore
SplineSet
340 236 m 1,0,-1
 340 149 l 1,1,-1
 526 149 l 1,2,-1
 526 84 l 1,3,-1
 340 84 l 1,4,-1
 340 0 l 1,5,-1
 265 0 l 1,6,-1
 265 84 l 1,7,-1
 97 84 l 1,8,-1
 97 149 l 1,9,-1
 265 149 l 1,10,-1
 265 236 l 1,11,-1
 97 236 l 1,12,-1
 97 301 l 1,13,-1
 265 301 l 1,14,-1
 44 700 l 1,15,-1
 127 700 l 1,16,-1
 305 366 l 1,17,-1
 489 700 l 1,18,-1
 570 700 l 1,19,-1
 340 301 l 1,20,-1
 526 301 l 1,21,-1
 526 236 l 1,22,-1
 340 236 l 1,0,-1
EndSplineSet
EndChar

StartChar: brokenbar
Encoding: 166 166 105
Width: 314
GlyphClass: 2
Flags: W
LayerCount: 2
Fore
SplineSet
185 413 m 1,0,-1
 120 413 l 1,1,-1
 120 806 l 1,2,-1
 185 806 l 1,3,-1
 185 413 l 1,0,-1
185 -194 m 1,4,-1
 120 -194 l 1,5,-1
 120 201 l 1,6,-1
 185 201 l 1,7,-1
 185 -194 l 1,4,-1
EndSplineSet
EndChar

StartChar: section
Encoding: 167 167 106
Width: 604
GlyphClass: 2
Flags: W
LayerCount: 2
Fore
SplineSet
246 436 m 1,0,1
 151 374 151 374 151 312 c 0,2,3
 151 274 151 274 185 249 c 128,-1,4
 219 224 219 224 282 198.5 c 128,-1,5
 345 173 345 173 373 155 c 1,6,7
 378 159 378 159 389 166.5 c 128,-1,8
 400 174 400 174 404 177 c 128,-1,9
 408 180 408 180 416.5 186.5 c 128,-1,10
 425 193 425 193 428 197.5 c 128,-1,11
 431 202 431 202 436.5 209.5 c 128,-1,12
 442 217 442 217 444 224 c 0,13,14
 449 243 449 243 449 266.5 c 128,-1,15
 449 290 449 290 437 311.5 c 128,-1,16
 425 333 425 333 401.5 349 c 128,-1,17
 378 365 378 365 355 377.5 c 128,-1,18
 332 390 332 390 299 406.5 c 128,-1,19
 266 423 266 423 246 436 c 1,0,1
147 -49 m 1,20,21
 216 -92 216 -92 284 -92 c 128,-1,22
 352 -92 352 -92 383.5 -67 c 128,-1,23
 415 -42 415 -42 415 0 c 128,-1,24
 415 42 415 42 380 71.5 c 128,-1,25
 345 101 345 101 295.5 120.5 c 128,-1,26
 246 140 246 140 196 161.5 c 128,-1,27
 146 183 146 183 111 221 c 128,-1,28
 76 259 76 259 76 312 c 0,29,30
 76 397 76 397 195 477 c 1,31,32
 158 514 158 514 158 562 c 0,33,34
 158 638 158 638 201.5 674 c 128,-1,35
 245 710 245 710 333 710 c 0,36,37
 394 710 394 710 448 690 c 1,38,-1
 465 683 l 1,39,-1
 453 621 l 1,40,41
 394 645 394 645 342 645 c 0,42,43
 234 645 234 645 234 559 c 0,44,45
 234 507 234 507 336 456 c 0,46,47
 379 435 379 435 421.5 411.5 c 128,-1,48
 464 388 464 388 494 350.5 c 128,-1,49
 524 313 524 313 524 266 c 128,-1,50
 524 219 524 219 503 187 c 128,-1,51
 482 155 482 155 428 117 c 1,52,53
 490 71 490 71 490 1 c 128,-1,54
 490 -69 490 -69 434.5 -113 c 128,-1,55
 379 -157 379 -157 280 -157 c 0,56,57
 243 -157 243 -157 199.5 -144 c 128,-1,58
 156 -131 156 -131 128 -114 c 1,59,-1
 147 -49 l 1,20,21
EndSplineSet
EndChar

StartChar: dieresis
Encoding: 168 168 107
Width: 513
GlyphClass: 2
Flags: W
LayerCount: 2
Fore
SplineSet
123 709 m 1,0,-1
 123 815 l 1,1,-1
 194 815 l 1,2,-1
 194 709 l 1,3,-1
 123 709 l 1,0,-1
302 709 m 1,4,-1
 302 815 l 1,5,-1
 373 815 l 1,6,-1
 373 709 l 1,7,-1
 302 709 l 1,4,-1
EndSplineSet
EndChar

StartChar: copyright
Encoding: 169 169 108
Width: 551
GlyphClass: 2
Flags: W
LayerCount: 2
Fore
SplineSet
351 162 m 1,0,-1
 360 121 l 1,1,2
 318 109 318 109 281 109 c 0,3,4
 221 109 221 109 191 148 c 128,-1,5
 161 187 161 187 161 255.5 c 128,-1,6
 161 324 161 324 192.5 360 c 128,-1,7
 224 396 224 396 284 396 c 0,8,9
 300 396 300 396 359 383 c 1,10,-1
 343 343 l 1,11,12
 309 352 309 352 291 352 c 0,13,14
 247 352 247 352 229.5 332 c 128,-1,15
 212 312 212 312 212 259 c 0,16,17
 212 152 212 152 290 152 c 0,18,19
 322 152 322 152 351 162 c 1,0,-1
386.5 416 m 128,-1,21
 344 479 344 479 269.5 479 c 128,-1,22
 195 479 195 479 158 416.5 c 128,-1,23
 121 354 121 354 121 254 c 128,-1,24
 121 154 121 154 162.5 92.5 c 128,-1,25
 204 31 204 31 276 31 c 128,-1,26
 348 31 348 31 388.5 89.5 c 128,-1,27
 429 148 429 148 429 250.5 c 128,-1,20
 429 353 429 353 386.5 416 c 128,-1,21
428.5 54.5 m 128,-1,29
 373 -19 373 -19 272.5 -19 c 128,-1,30
 172 -19 172 -19 119 54 c 128,-1,31
 66 127 66 127 66 255 c 128,-1,32
 66 383 66 383 117 456 c 128,-1,33
 168 529 168 529 268.5 529 c 128,-1,34
 369 529 369 529 426.5 455 c 128,-1,35
 484 381 484 381 484 254.5 c 128,-1,28
 484 128 484 128 428.5 54.5 c 128,-1,29
EndSplineSet
EndChar

StartChar: ordfeminine
Encoding: 170 170 109
Width: 363
GlyphClass: 2
Flags: W
LayerCount: 2
Fore
SplineSet
293 234 m 1,0,-1
 54 234 l 1,1,-1
 54 289 l 1,2,-1
 293 289 l 1,3,-1
 293 234 l 1,0,-1
215 550 m 1,4,-1
 241 549 l 1,5,6
 241 606 241 606 227 621.5 c 128,-1,7
 213 637 213 637 161.5 637 c 128,-1,8
 110 637 110 637 77 623 c 1,9,-1
 68 667 l 1,10,11
 119 685 119 685 177 685 c 0,12,13
 290 685 290 685 290 573 c 2,14,-1
 290 361 l 1,15,-1
 262 361 l 1,16,-1
 246 399 l 1,17,18
 216 374 216 374 195 366 c 128,-1,19
 174 358 174 358 137.5 358 c 128,-1,20
 101 358 101 358 76.5 384 c 128,-1,21
 52 410 52 410 52 453 c 0,22,23
 52 550 52 550 215 550 c 1,4,-1
238 505 m 1,24,-1
 205 505 l 2,25,26
 144 505 144 505 122.5 494 c 128,-1,27
 101 483 101 483 101 458 c 128,-1,28
 101 433 101 433 113.5 419 c 128,-1,29
 126 405 126 405 147 405 c 0,30,31
 190 405 190 405 238 450 c 1,32,-1
 238 505 l 1,24,-1
EndSplineSet
EndChar

StartChar: guillemotleft
Encoding: 171 171 110
Width: 511
GlyphClass: 2
Flags: W
LayerCount: 2
Fore
SplineSet
436 108 m 1,0,-1
 386 89 l 1,1,-1
 255 297 l 1,2,-1
 387 506 l 1,3,-1
 436 488 l 1,4,-1
 333 299 l 1,5,-1
 436 108 l 1,0,-1
249 97 m 1,6,-1
 198 78 l 1,7,-1
 60 297 l 1,8,-1
 200 518 l 1,9,-1
 249 499 l 1,10,-1
 140 299 l 1,11,-1
 249 97 l 1,6,-1
EndSplineSet
EndChar

StartChar: logicalnot
Encoding: 172 172 111
Width: 518
GlyphClass: 2
Flags: W
LayerCount: 2
Fore
SplineSet
467 125 m 1,0,-1
 392 125 l 1,1,-1
 392 269 l 1,2,-1
 38 269 l 1,3,-1
 38 334 l 1,4,-1
 467 334 l 1,5,-1
 467 125 l 1,0,-1
EndSplineSet
EndChar

StartChar: uni00AD
Encoding: 173 173 112
Width: 400
GlyphClass: 2
Flags: W
LayerCount: 2
Fore
SplineSet
400 257 m 1,0,-1
 0 257 l 1,1,-1
 0 322 l 1,2,-1
 400 322 l 1,3,-1
 400 257 l 1,0,-1
EndSplineSet
EndChar

StartChar: registered
Encoding: 174 174 113
Width: 551
GlyphClass: 2
Flags: W
LayerCount: 2
Fore
SplineSet
270 662 m 128,-1,1
 195 662 195 662 158 599.5 c 128,-1,2
 121 537 121 537 121 437 c 128,-1,3
 121 337 121 337 162.5 275.5 c 128,-1,4
 204 214 204 214 276 214 c 128,-1,5
 348 214 348 214 391 273 c 128,-1,6
 434 332 434 332 434 433.5 c 128,-1,7
 434 535 434 535 389.5 598.5 c 128,-1,0
 345 662 345 662 270 662 c 128,-1,1
428.5 237.5 m 128,-1,9
 373 164 373 164 272.5 164 c 128,-1,10
 172 164 172 164 119 237 c 128,-1,11
 66 310 66 310 66 438 c 128,-1,12
 66 566 66 566 117 639 c 128,-1,13
 168 712 168 712 268.5 712 c 128,-1,14
 369 712 369 712 426.5 638 c 128,-1,15
 484 564 484 564 484 437.5 c 128,-1,8
 484 311 484 311 428.5 237.5 c 128,-1,9
238 426 m 2,16,-1
 226 426 l 1,17,-1
 226 305 l 1,18,-1
 186 305 l 1,19,-1
 186 584 l 1,20,-1
 272 584 l 2,21,22
 357 584 357 584 357 512 c 0,23,24
 357 489 357 489 340 469 c 128,-1,25
 323 449 323 449 299 447 c 1,26,27
 318 442 318 442 325.5 434 c 128,-1,28
 333 426 333 426 347 399 c 1,29,-1
 389 305 l 1,30,-1
 343 305 l 1,31,-1
 306 384 l 2,32,33
 294 409 294 409 280 417.5 c 128,-1,34
 266 426 266 426 238 426 c 2,16,-1
273 550 m 2,35,-1
 226 550 l 1,36,-1
 226 473 l 1,37,-1
 267 473 l 2,38,39
 317 473 317 473 317 511.5 c 128,-1,40
 317 550 317 550 273 550 c 2,35,-1
EndSplineSet
EndChar

StartChar: macron
Encoding: 175 175 114
Width: 497
GlyphClass: 2
Flags: W
LayerCount: 2
Fore
SplineSet
88 614 m 1,0,-1
 88 679 l 1,1,-1
 405 679 l 1,2,-1
 405 614 l 1,3,-1
 88 614 l 1,0,-1
EndSplineSet
EndChar

StartChar: degree
Encoding: 176 176 115
Width: 452
GlyphClass: 2
Flags: W
LayerCount: 2
Fore
SplineSet
343.5 728 m 128,-1,1
 392 680 392 680 392 610.5 c 128,-1,2
 392 541 392 541 343 492.5 c 128,-1,3
 294 444 294 444 224.5 444 c 128,-1,4
 155 444 155 444 106.5 492 c 128,-1,5
 58 540 58 540 58 609.5 c 128,-1,6
 58 679 58 679 107 727.5 c 128,-1,7
 156 776 156 776 225.5 776 c 128,-1,0
 295 776 295 776 343.5 728 c 128,-1,1
300 533 m 128,-1,9
 331 565 331 565 331 611.5 c 128,-1,10
 331 658 331 658 299.5 690 c 128,-1,11
 268 722 268 722 224 722 c 128,-1,12
 180 722 180 722 148.5 690 c 128,-1,13
 117 658 117 658 117 612 c 128,-1,14
 117 566 117 566 148.5 533.5 c 128,-1,15
 180 501 180 501 224.5 501 c 128,-1,8
 269 501 269 501 300 533 c 128,-1,9
EndSplineSet
EndChar

StartChar: plusminus
Encoding: 177 177 116
Width: 503
GlyphClass: 2
Flags: W
LayerCount: 2
Fore
SplineSet
458 357 m 1,0,-1
 285 357 l 1,1,-1
 285 164 l 1,2,-1
 210 164 l 1,3,-1
 210 357 l 1,4,-1
 46 357 l 1,5,-1
 46 422 l 1,6,-1
 210 422 l 1,7,-1
 210 622 l 1,8,-1
 285 622 l 1,9,-1
 285 422 l 1,10,-1
 458 422 l 1,11,-1
 458 357 l 1,0,-1
458 -1 m 1,12,-1
 46 -1 l 1,13,-1
 46 64 l 1,14,-1
 458 64 l 1,15,-1
 458 -1 l 1,12,-1
EndSplineSet
EndChar

StartChar: twosuperior
Encoding: 178 178 117
Width: 436
GlyphClass: 2
Flags: W
LayerCount: 2
Fore
SplineSet
340 370 m 1,0,-1
 331 323 l 1,1,-1
 101 323 l 1,2,-1
 101 355 l 1,3,4
 163 417 163 417 188 444 c 0,5,6
 256 519 256 519 256 563 c 0,7,8
 256 619 256 619 195 619 c 0,9,10
 155 619 155 619 126 611 c 2,11,-1
 115 608 l 1,12,-1
 120 648 l 1,13,14
 169 662 169 662 216.5 662 c 128,-1,15
 264 662 264 662 289 640.5 c 128,-1,16
 314 619 314 619 314 576 c 128,-1,17
 314 533 314 533 283 485 c 128,-1,18
 252 437 252 437 176 370 c 1,19,-1
 340 370 l 1,0,-1
EndSplineSet
EndChar

StartChar: threesuperior
Encoding: 179 179 118
Width: 425
GlyphClass: 2
Flags: W
LayerCount: 2
Fore
SplineSet
141 505 m 1,0,-1
 182 505 l 2,1,2
 218 505 218 505 238 521.5 c 128,-1,3
 258 538 258 538 258 566.5 c 128,-1,4
 258 595 258 595 243 604.5 c 128,-1,5
 228 614 228 614 199 614 c 0,6,7
 155 614 155 614 124 596 c 2,8,-1
 115 591 l 1,9,-1
 105 637 l 1,10,11
 146 662 146 662 198.5 662 c 128,-1,12
 251 662 251 662 278.5 637 c 128,-1,13
 306 612 306 612 306 573.5 c 128,-1,14
 306 535 306 535 286.5 509.5 c 128,-1,15
 267 484 267 484 236 478 c 1,16,17
 272 473 272 473 295 450.5 c 128,-1,18
 318 428 318 428 318 386 c 128,-1,19
 318 344 318 344 284.5 315.5 c 128,-1,20
 251 287 251 287 191 287 c 0,21,22
 166 287 166 287 142 293.5 c 128,-1,23
 118 300 118 300 107 306 c 2,24,-1
 96 312 l 1,25,-1
 109 355 l 1,26,27
 139 337 139 337 180 337 c 0,28,29
 267 337 267 337 267 389 c 0,30,31
 267 452 267 452 180 452 c 2,32,-1
 141 452 l 1,33,-1
 141 505 l 1,0,-1
EndSplineSet
EndChar

StartChar: acute
Encoding: 180 180 119
Width: 404
GlyphClass: 2
Flags: W
LayerCount: 2
Fore
SplineSet
159 571 m 1,0,-1
 101 592 l 1,1,-1
 214 733 l 1,2,-1
 289 703 l 1,3,-1
 159 571 l 1,0,-1
EndSplineSet
EndChar

StartChar: mu
Encoding: 181 181 120
AltUni2: 0003bc.ffffffff.0
Width: 558
GlyphClass: 2
Flags: W
LayerCount: 2
Fore
SplineSet
167 10 m 1,0,-1
 167 -236 l 1,1,-1
 92 -236 l 1,2,-1
 92 500 l 1,3,-1
 168 500 l 1,4,-1
 168 169 l 2,5,6
 168 110 168 110 185.5 83.5 c 128,-1,7
 203 57 203 57 247 57 c 0,8,9
 317 57 317 57 389 127 c 1,10,-1
 389 500 l 1,11,-1
 465 500 l 1,12,-1
 465 0 l 1,13,-1
 421 0 l 1,14,-1
 396 59 l 1,15,16
 365 37 365 37 348 26 c 0,17,18
 299 -6 299 -6 249 -6 c 0,19,20
 209 -6 209 -6 178 6 c 2,21,-1
 167 10 l 1,0,-1
EndSplineSet
EndChar

StartChar: paragraph
Encoding: 182 182 121
Width: 599
GlyphClass: 2
Flags: W
LayerCount: 2
Fore
SplineSet
308 -203 m 1,0,-1
 243 -203 l 1,1,-1
 243 358 l 1,2,3
 165 358 165 358 117.5 408 c 128,-1,4
 70 458 70 458 70 531 c 128,-1,5
 70 604 70 604 118 657 c 128,-1,6
 166 710 166 710 269 710 c 2,7,-1
 534 710 l 1,8,-1
 534 650 l 1,9,-1
 464 650 l 1,10,-1
 464 -203 l 1,11,-1
 399 -203 l 1,12,-1
 399 650 l 1,13,-1
 308 650 l 1,14,-1
 308 -203 l 1,0,-1
EndSplineSet
EndChar

StartChar: periodcentered
Encoding: 183 183 122
Width: 181
GlyphClass: 2
Flags: W
LayerCount: 2
Fore
SplineSet
128 247 m 1,0,-1
 53 247 l 1,1,-1
 53 350 l 1,2,-1
 128 350 l 1,3,-1
 128 247 l 1,0,-1
EndSplineSet
EndChar

StartChar: cedilla
Encoding: 184 184 123
Width: 377
GlyphClass: 2
Flags: W
LayerCount: 2
Fore
SplineSet
272 0 m 1,0,1
 272 -48 272 -48 260.5 -80 c 128,-1,2
 249 -112 249 -112 209 -177 c 1,3,-1
 160 -146 l 1,4,5
 186 -93 186 -93 193.5 -68.5 c 128,-1,6
 201 -44 201 -44 201 0 c 1,7,-1
 272 0 l 1,0,1
EndSplineSet
EndChar

StartChar: onesuperior
Encoding: 185 185 124
Width: 378
GlyphClass: 2
Flags: W
LayerCount: 2
Fore
SplineSet
206 662 m 1,0,-1
 156 662 l 1,1,-1
 53 599 l 1,2,-1
 73 550 l 1,3,-1
 156 600 l 1,4,-1
 156 341 l 1,5,-1
 206 341 l 1,6,-1
 206 662 l 1,0,-1
86 316 m 1,7,-1
 86 364 l 1,8,-1
 276 364 l 1,9,-1
 276 316 l 1,10,-1
 86 316 l 1,7,-1
EndSplineSet
EndChar

StartChar: ordmasculine
Encoding: 186 186 125
Width: 370
GlyphClass: 2
Flags: W
LayerCount: 2
Fore
SplineSet
301 234 m 1,0,-1
 62 234 l 1,1,-1
 62 288 l 1,2,-1
 301 288 l 1,3,-1
 301 234 l 1,0,-1
236 616 m 128,-1,5
 218 650 218 650 182.5 650 c 128,-1,6
 147 650 147 650 129 616 c 128,-1,7
 111 582 111 582 111 528 c 0,8,9
 111 408 111 408 181 408 c 0,10,11
 254 408 254 408 254 528 c 0,12,4
 254 582 254 582 236 616 c 128,-1,5
181 700 m 0,13,14
 314 700 314 700 314 529 c 128,-1,15
 314 358 314 358 179 358 c 0,16,17
 114 358 114 358 82.5 403.5 c 128,-1,18
 51 449 51 449 51 524.5 c 128,-1,19
 51 600 51 600 83 650 c 128,-1,20
 115 700 115 700 181 700 c 0,13,14
EndSplineSet
EndChar

StartChar: guillemotright
Encoding: 187 187 126
Width: 511
GlyphClass: 2
Flags: W
LayerCount: 2
Fore
SplineSet
75 488 m 1,0,-1
 125 507 l 1,1,-1
 256 299 l 1,2,-1
 124 90 l 1,3,-1
 75 108 l 1,4,-1
 178 297 l 1,5,-1
 75 488 l 1,0,-1
262 499 m 1,6,-1
 313 518 l 1,7,-1
 451 299 l 1,8,-1
 311 78 l 1,9,-1
 262 97 l 1,10,-1
 371 297 l 1,11,-1
 262 499 l 1,6,-1
EndSplineSet
EndChar

StartChar: onequarter
Encoding: 188 188 127
Width: 884
GlyphClass: 2
Flags: W
LayerCount: 2
Fore
SplineSet
653 688 m 1,0,-1
 245 0 l 1,1,-1
 172 0 l 1,2,-1
 580 688 l 1,3,-1
 653 688 l 1,0,-1
692 0 m 1,4,-1
 692 85 l 1,5,-1
 489 85 l 1,6,-1
 489 126 l 1,7,-1
 657 427 l 1,8,-1
 715 427 l 1,9,-1
 552 135 l 1,10,-1
 692 135 l 1,11,-1
 692 250 l 1,12,-1
 743 250 l 1,13,-1
 743 134 l 1,14,-1
 811 134 l 1,15,-1
 811 85 l 1,16,-1
 743 85 l 1,17,-1
 743 0 l 1,18,-1
 692 0 l 1,4,-1
88 316 m 1,19,-1
 88 364 l 1,20,-1
 157 364 l 1,21,-1
 157 600 l 1,22,-1
 75 550 l 1,23,-1
 55 599 l 1,24,-1
 158 662 l 1,25,-1
 208 662 l 1,26,-1
 208 364 l 1,27,-1
 278 364 l 1,28,-1
 278 316 l 1,29,-1
 88 316 l 1,19,-1
EndSplineSet
EndChar

StartChar: onehalf
Encoding: 189 189 128
Width: 816
GlyphClass: 2
Flags: W
LayerCount: 2
Fore
SplineSet
653 688 m 1,0,-1
 245 0 l 1,1,-1
 172 0 l 1,2,-1
 580 688 l 1,3,-1
 653 688 l 1,0,-1
762 46 m 1,4,-1
 753 0 l 1,5,-1
 523 0 l 1,6,-1
 523 33 l 1,7,8
 586 96 586 96 610.5 122 c 128,-1,9
 635 148 635 148 656.5 181 c 128,-1,10
 678 214 678 214 678 239 c 0,11,12
 678 295 678 295 617 295 c 0,13,14
 577 295 577 295 548 287 c 2,15,-1
 537 284 l 1,16,-1
 542 324 l 1,17,18
 591 338 591 338 638.5 338 c 128,-1,19
 686 338 686 338 711 316.5 c 128,-1,20
 736 295 736 295 736 252 c 128,-1,21
 736 209 736 209 705 161 c 128,-1,22
 674 113 674 113 598 46 c 1,23,-1
 762 46 l 1,4,-1
75 316 m 1,24,-1
 75 364 l 1,25,-1
 145 364 l 1,26,-1
 145 600 l 1,27,-1
 62 550 l 1,28,-1
 42 599 l 1,29,-1
 145 662 l 1,30,-1
 195 662 l 1,31,-1
 195 364 l 1,32,-1
 265 364 l 1,33,-1
 265 316 l 1,34,-1
 75 316 l 1,24,-1
EndSplineSet
EndChar

StartChar: threequarters
Encoding: 190 190 129
Width: 886
GlyphClass: 2
Flags: W
LayerCount: 2
Fore
SplineSet
128 504 m 1,0,-1
 169 504 l 2,1,2
 205 504 205 504 225 520.5 c 128,-1,3
 245 537 245 537 245 565.5 c 128,-1,4
 245 594 245 594 230 603.5 c 128,-1,5
 215 613 215 613 186 613 c 0,6,7
 138 613 138 613 112 596 c 1,8,-1
 102 590 l 1,9,-1
 92 636 l 1,10,11
 133 661 133 661 185.5 661 c 128,-1,12
 238 661 238 661 265.5 636 c 128,-1,13
 293 611 293 611 293 572.5 c 128,-1,14
 293 534 293 534 273.5 508.5 c 128,-1,15
 254 483 254 483 223 477 c 1,16,17
 259 472 259 472 282 449.5 c 128,-1,18
 305 427 305 427 305 385 c 128,-1,19
 305 343 305 343 271.5 314.5 c 128,-1,20
 238 286 238 286 178 286 c 0,21,22
 153 286 153 286 129 292 c 128,-1,23
 105 298 105 298 94 304 c 2,24,-1
 83 311 l 1,25,-1
 96 354 l 1,26,27
 126 336 126 336 166 336 c 0,28,29
 254 336 254 336 254 388 c 0,30,31
 254 451 254 451 167 451 c 2,32,-1
 128 451 l 1,33,-1
 128 504 l 1,0,-1
692 0 m 1,34,-1
 692 85 l 1,35,-1
 489 85 l 1,36,-1
 489 126 l 1,37,-1
 657 427 l 1,38,-1
 715 427 l 1,39,-1
 552 135 l 1,40,-1
 692 135 l 1,41,-1
 692 250 l 1,42,-1
 744 250 l 1,43,-1
 744 134 l 1,44,-1
 811 134 l 1,45,-1
 811 85 l 1,46,-1
 743 85 l 1,47,-1
 743 0 l 1,48,-1
 692 0 l 1,34,-1
653 688 m 1,49,-1
 245 0 l 1,50,-1
 172 0 l 1,51,-1
 580 688 l 1,52,-1
 653 688 l 1,49,-1
EndSplineSet
EndChar

StartChar: questiondown
Encoding: 191 191 130
Width: 463
GlyphClass: 2
Flags: W
LayerCount: 2
Fore
SplineSet
122 176 m 1,0,1
 145 200 145 200 169 222 c 0,2,3
 226 276 226 276 226 345 c 2,4,-1
 226 408 l 1,5,-1
 300 408 l 1,6,-1
 300 350 l 2,7,8
 300 306 300 306 283.5 269.5 c 128,-1,9
 267 233 267 233 243.5 209 c 128,-1,10
 220 185 220 185 196 162 c 0,11,12
 140 108 140 108 140 51 c 0,13,14
 140 -42 140 -42 251 -42 c 0,15,16
 316 -42 316 -42 372 -23 c 1,17,-1
 383 -81 l 1,18,19
 302 -108 302 -108 229.5 -108 c 128,-1,20
 157 -108 157 -108 111 -67.5 c 128,-1,21
 65 -27 65 -27 65 46.5 c 128,-1,22
 65 120 65 120 122 176 c 1,0,1
227 608 m 1,23,-1
 302 608 l 1,24,-1
 302 510 l 1,25,-1
 227 510 l 1,26,-1
 227 608 l 1,23,-1
EndSplineSet
EndChar

StartChar: Agrave
Encoding: 192 192 131
Width: 579
GlyphClass: 2
Flags: W
LayerCount: 2
Fore
SplineSet
566 0 m 1,0,-1
 482 0 l 1,1,-1
 412 221 l 1,2,-1
 161 221 l 1,3,-1
 92 0 l 1,4,-1
 13 0 l 1,5,-1
 243 700 l 1,6,-1
 334 700 l 1,7,-1
 566 0 l 1,0,-1
395 286 m 1,8,-1
 288 624 l 1,9,-1
 180 286 l 1,10,-1
 395 286 l 1,8,-1
313 753 m 1,11,-1
 252 753 l 1,12,-1
 154 877 l 1,13,-1
 238 877 l 1,14,-1
 313 753 l 1,11,-1
EndSplineSet
EndChar

StartChar: Aacute
Encoding: 193 193 132
Width: 579
GlyphClass: 2
Flags: W
LayerCount: 2
Fore
SplineSet
566 0 m 1,0,-1
 482 0 l 1,1,-1
 412 221 l 1,2,-1
 161 221 l 1,3,-1
 92 0 l 1,4,-1
 13 0 l 1,5,-1
 243 700 l 1,6,-1
 334 700 l 1,7,-1
 566 0 l 1,0,-1
395 286 m 1,8,-1
 288 624 l 1,9,-1
 180 286 l 1,10,-1
 395 286 l 1,8,-1
254 752 m 1,11,-1
 329 876 l 1,12,-1
 413 876 l 1,13,-1
 315 752 l 1,14,-1
 254 752 l 1,11,-1
EndSplineSet
EndChar

StartChar: Atilde
Encoding: 195 195 134
Width: 579
GlyphClass: 2
Flags: W
LayerCount: 2
Fore
SplineSet
445 827 m 1,0,1
 424 799 424 799 397.5 778 c 128,-1,2
 371 757 371 757 351.5 757 c 128,-1,3
 332 757 332 757 274 784.5 c 128,-1,4
 216 812 216 812 203 812 c 128,-1,5
 190 812 190 812 175.5 802.5 c 128,-1,6
 161 793 161 793 153 784 c 2,7,-1
 145 774 l 1,8,-1
 112 800 l 1,9,10
 133 827 133 827 159 848.5 c 128,-1,11
 185 870 185 870 204.5 870 c 128,-1,12
 224 870 224 870 282 842.5 c 128,-1,13
 340 815 340 815 353 815 c 128,-1,14
 366 815 366 815 380.5 824.5 c 128,-1,15
 395 834 395 834 403 844 c 2,16,-1
 411 853 l 1,17,-1
 445 827 l 1,0,1
566 0 m 1,18,-1
 482 0 l 1,19,-1
 412 221 l 1,20,-1
 161 221 l 1,21,-1
 92 0 l 1,22,-1
 13 0 l 1,23,-1
 243 700 l 1,24,-1
 334 700 l 1,25,-1
 566 0 l 1,18,-1
395 286 m 1,26,-1
 288 624 l 1,27,-1
 180 286 l 1,28,-1
 395 286 l 1,26,-1
EndSplineSet
EndChar

StartChar: Aring
Encoding: 197 197 136
Width: 579
GlyphClass: 2
Flags: W
LayerCount: 2
Fore
SplineSet
566 0 m 1,0,-1
 482 0 l 1,1,-1
 412 221 l 1,2,-1
 161 221 l 1,3,-1
 92 0 l 1,4,-1
 13 0 l 1,5,-1
 243 700 l 1,6,-1
 334 700 l 1,7,-1
 566 0 l 1,0,-1
395 286 m 1,8,-1
 288 624 l 1,9,-1
 180 286 l 1,10,-1
 395 286 l 1,8,-1
289 972 m 128,-1,12
 344 972 344 972 373 941.5 c 128,-1,13
 402 911 402 911 402 861 c 128,-1,14
 402 811 402 811 374 781.5 c 128,-1,15
 346 752 346 752 290 752 c 128,-1,16
 234 752 234 752 206 781.5 c 128,-1,17
 178 811 178 811 178 861 c 128,-1,18
 178 911 178 911 206 941.5 c 128,-1,11
 234 972 234 972 289 972 c 128,-1,12
290 928 m 0,19,20
 234 928 234 928 234 863 c 0,21,22
 234 832 234 832 246 815 c 128,-1,23
 258 798 258 798 290.5 798 c 128,-1,24
 323 798 323 798 335.5 815 c 128,-1,25
 348 832 348 832 348 863 c 0,26,27
 348 928 348 928 290 928 c 0,19,20
EndSplineSet
EndChar

StartChar: AE
Encoding: 198 198 137
Width: 851
GlyphClass: 2
Flags: W
LayerCount: 2
Fore
SplineSet
777 0 m 1,0,-1
 380 0 l 1,1,-1
 380 221 l 1,2,-1
 200 221 l 1,3,-1
 92 0 l 1,4,-1
 13 0 l 1,5,-1
 341 700 l 1,6,-1
 777 700 l 1,7,-1
 777 635 l 1,8,-1
 455 635 l 1,9,-1
 455 413 l 1,10,-1
 752 413 l 1,11,-1
 752 346 l 1,12,-1
 455 346 l 1,13,-1
 455 65 l 1,14,-1
 777 65 l 1,15,-1
 777 0 l 1,0,-1
380 634 m 1,16,-1
 230 286 l 1,17,-1
 380 286 l 1,18,-1
 380 634 l 1,16,-1
EndSplineSet
EndChar

StartChar: Ccedilla
Encoding: 199 199 138
Width: 584
GlyphClass: 2
Flags: W
LayerCount: 2
Fore
SplineSet
379 -5 m 1,0,1
 379 -53 379 -53 367.5 -85 c 128,-1,2
 356 -117 356 -117 316 -182 c 1,3,-1
 267 -151 l 1,4,5
 293 -99 293 -99 300 -74.5 c 128,-1,6
 307 -50 307 -50 307 -4 c 1,7,8
 182 9 182 9 116 104 c 128,-1,9
 50 199 50 199 50 358 c 128,-1,10
 50 517 50 517 130.5 612.5 c 128,-1,11
 211 708 211 708 356 708 c 0,12,13
 440 708 440 708 514 679 c 1,14,-1
 496 617 l 1,15,16
 435 643 435 643 352 643 c 0,17,18
 247 643 247 643 186 567 c 128,-1,19
 125 491 125 491 125 357.5 c 128,-1,20
 125 224 125 224 182.5 141.5 c 128,-1,21
 240 59 240 59 343 59 c 0,22,23
 415 59 415 59 514 98 c 1,24,-1
 534 46 l 1,25,26
 489 18 489 18 379 -5 c 1,0,1
EndSplineSet
EndChar

StartChar: Egrave
Encoding: 200 200 139
Width: 542
GlyphClass: 2
Flags: W
LayerCount: 2
Fore
SplineSet
468 0 m 1,0,-1
 91 0 l 1,1,-1
 91 700 l 1,2,-1
 468 700 l 1,3,-1
 468 635 l 1,4,-1
 166 635 l 1,5,-1
 166 413 l 1,6,-1
 443 413 l 1,7,-1
 443 346 l 1,8,-1
 166 346 l 1,9,-1
 166 65 l 1,10,-1
 468 65 l 1,11,-1
 468 0 l 1,0,-1
330 753 m 1,12,-1
 269 753 l 1,13,-1
 171 877 l 1,14,-1
 255 877 l 1,15,-1
 330 753 l 1,12,-1
EndSplineSet
EndChar

StartChar: Eacute
Encoding: 201 201 140
Width: 542
GlyphClass: 2
Flags: W
LayerCount: 2
Fore
SplineSet
468 0 m 1,0,-1
 91 0 l 1,1,-1
 91 700 l 1,2,-1
 468 700 l 1,3,-1
 468 635 l 1,4,-1
 166 635 l 1,5,-1
 166 413 l 1,6,-1
 443 413 l 1,7,-1
 443 346 l 1,8,-1
 166 346 l 1,9,-1
 166 65 l 1,10,-1
 468 65 l 1,11,-1
 468 0 l 1,0,-1
215 752 m 1,12,-1
 290 876 l 1,13,-1
 374 876 l 1,14,-1
 276 752 l 1,15,-1
 215 752 l 1,12,-1
EndSplineSet
EndChar

StartChar: Ecircumflex
Encoding: 202 202 141
Width: 543
GlyphClass: 2
Flags: W
LayerCount: 2
Fore
SplineSet
468 0 m 1,0,-1
 91 0 l 1,1,-1
 91 700 l 1,2,-1
 468 700 l 1,3,-1
 468 635 l 1,4,-1
 166 635 l 1,5,-1
 166 413 l 1,6,-1
 443 413 l 1,7,-1
 443 346 l 1,8,-1
 166 346 l 1,9,-1
 166 65 l 1,10,-1
 468 65 l 1,11,-1
 468 0 l 1,0,-1
238 880 m 1,12,-1
 285 880 l 1,13,-1
 421 780 l 1,14,-1
 402 751 l 1,15,-1
 261 826 l 1,16,-1
 119 751 l 1,17,-1
 100 780 l 1,18,-1
 238 880 l 1,12,-1
EndSplineSet
EndChar

StartChar: Edieresis
Encoding: 203 203 142
Width: 542
GlyphClass: 2
Flags: W
LayerCount: 2
Fore
SplineSet
468 0 m 1,0,-1
 91 0 l 1,1,-1
 91 700 l 1,2,-1
 468 700 l 1,3,-1
 468 635 l 1,4,-1
 166 635 l 1,5,-1
 166 413 l 1,6,-1
 443 413 l 1,7,-1
 443 346 l 1,8,-1
 166 346 l 1,9,-1
 166 65 l 1,10,-1
 468 65 l 1,11,-1
 468 0 l 1,0,-1
151 755 m 1,12,-1
 151 861 l 1,13,-1
 222 861 l 1,14,-1
 222 755 l 1,15,-1
 151 755 l 1,12,-1
330 755 m 1,16,-1
 330 861 l 1,17,-1
 401 861 l 1,18,-1
 401 755 l 1,19,-1
 330 755 l 1,16,-1
EndSplineSet
EndChar

StartChar: Igrave
Encoding: 204 204 143
Width: 253
GlyphClass: 2
Flags: W
LayerCount: 2
Fore
SplineSet
187 0 m 1,0,-1
 112 0 l 1,1,-1
 112 700 l 1,2,-1
 187 700 l 1,3,-1
 187 0 l 1,0,-1
181 753 m 1,4,-1
 120 753 l 1,5,-1
 22 877 l 1,6,-1
 106 877 l 1,7,-1
 181 753 l 1,4,-1
EndSplineSet
EndChar

StartChar: Iacute
Encoding: 205 205 144
Width: 254
GlyphClass: 2
Flags: W
LayerCount: 2
Fore
SplineSet
138 0 m 1,0,-1
 63 0 l 1,1,-1
 63 700 l 1,2,-1
 138 700 l 1,3,-1
 138 0 l 1,0,-1
70 753 m 1,4,-1
 145 877 l 1,5,-1
 229 877 l 1,6,-1
 131 753 l 1,7,-1
 70 753 l 1,4,-1
EndSplineSet
EndChar

StartChar: Icircumflex
Encoding: 206 206 145
Width: 312
GlyphClass: 2
Flags: W
LayerCount: 2
Fore
SplineSet
196 0 m 1,0,-1
 121 0 l 1,1,-1
 121 700 l 1,2,-1
 196 700 l 1,3,-1
 196 0 l 1,0,-1
137 883 m 1,4,-1
 184 883 l 1,5,-1
 320 783 l 1,6,-1
 301 754 l 1,7,-1
 160 829 l 1,8,-1
 18 754 l 1,9,-1
 -1 783 l 1,10,-1
 137 883 l 1,4,-1
EndSplineSet
EndChar

StartChar: Idieresis
Encoding: 207 207 146
Width: 226
GlyphClass: 2
Flags: W
LayerCount: 2
Fore
SplineSet
149 0 m 1,0,-1
 74 0 l 1,1,-1
 74 700 l 1,2,-1
 149 700 l 1,3,-1
 149 0 l 1,0,-1
-13 755 m 1,4,-1
 -13 861 l 1,5,-1
 58 861 l 1,6,-1
 58 755 l 1,7,-1
 -13 755 l 1,4,-1
166 755 m 1,8,-1
 166 861 l 1,9,-1
 237 861 l 1,10,-1
 237 755 l 1,11,-1
 166 755 l 1,8,-1
EndSplineSet
EndChar

StartChar: Eth
Encoding: 208 208 147
Width: 695
GlyphClass: 2
Flags: W
LayerCount: 2
Fore
SplineSet
119 317 m 1,0,-1
 36 317 l 1,1,-1
 36 382 l 1,2,-1
 119 382 l 1,3,-1
 119 700 l 1,4,-1
 296 700 l 2,5,6
 445 700 445 700 535 609 c 128,-1,7
 625 518 625 518 625 375 c 0,8,9
 625 206 625 206 527 103 c 128,-1,10
 429 0 429 0 265 0 c 2,11,-1
 119 0 l 1,12,-1
 119 317 l 1,0,-1
200 317 m 1,13,-1
 200 65 l 1,14,-1
 274 65 l 2,15,16
 387 65 387 65 465.5 150 c 128,-1,17
 544 235 544 235 544 383 c 0,18,19
 544 501 544 501 472 568 c 128,-1,20
 400 635 400 635 300 635 c 2,21,-1
 200 635 l 1,22,-1
 200 382 l 1,23,-1
 376 382 l 1,24,-1
 376 317 l 1,25,-1
 200 317 l 1,13,-1
EndSplineSet
EndChar

StartChar: Ntilde
Encoding: 209 209 148
Width: 679
GlyphClass: 2
Flags: W
LayerCount: 2
Fore
SplineSet
492 831 m 1,0,-1
 492 824 l 1,1,2
 471 796 471 796 444.5 775 c 128,-1,3
 418 754 418 754 398.5 754 c 128,-1,4
 379 754 379 754 321 781.5 c 128,-1,5
 263 809 263 809 250 809 c 128,-1,6
 237 809 237 809 222.5 799.5 c 128,-1,7
 208 790 208 790 200 780 c 2,8,-1
 192 771 l 1,9,-1
 159 804 l 1,10,11
 180 831 180 831 206 852.5 c 128,-1,12
 232 874 232 874 251.5 874 c 128,-1,13
 271 874 271 874 329 846.5 c 128,-1,14
 387 819 387 819 400 819 c 128,-1,15
 413 819 413 819 427.5 828.5 c 128,-1,16
 442 838 442 838 450 848 c 2,17,-1
 458 857 l 1,18,-1
 492 831 l 1,0,-1
588 -1 m 1,19,-1
 506 -1 l 1,20,-1
 169 560 l 1,21,-1
 169 0 l 1,22,-1
 91 0 l 1,23,-1
 91 700 l 1,24,-1
 169 700 l 1,25,-1
 513 118 l 1,26,-1
 513 700 l 1,27,-1
 588 700 l 1,28,-1
 588 -1 l 1,19,-1
EndSplineSet
EndChar

StartChar: Ograve
Encoding: 210 210 149
Width: 648
GlyphClass: 2
Flags: W
LayerCount: 2
Fore
SplineSet
323 -5 m 0,0,1
 186 -5 186 -5 116 96.5 c 128,-1,2
 46 198 46 198 46 355 c 128,-1,3
 46 512 46 512 116.5 611 c 128,-1,4
 187 710 187 710 323.5 710 c 128,-1,5
 460 710 460 710 531 611 c 128,-1,6
 602 512 602 512 602 355 c 0,7,8
 602 140 602 140 480 45 c 0,9,10
 415 -5 415 -5 323 -5 c 0,0,1
325 645 m 0,11,12
 223 645 223 645 172.5 560 c 128,-1,13
 122 475 122 475 122 352 c 128,-1,14
 122 229 122 229 173.5 145 c 128,-1,15
 225 61 225 61 325 61 c 128,-1,16
 425 61 425 61 476 146 c 128,-1,17
 527 231 527 231 527 360 c 0,18,19
 527 522 527 522 436 602 c 1,20,21
 389 645 389 645 325 645 c 0,11,12
336 753 m 1,22,-1
 275 753 l 1,23,-1
 177 877 l 1,24,-1
 261 877 l 1,25,-1
 336 753 l 1,22,-1
EndSplineSet
EndChar

StartChar: Oacute
Encoding: 211 211 150
Width: 648
GlyphClass: 2
Flags: W
LayerCount: 2
Fore
SplineSet
323 -5 m 0,0,1
 186 -5 186 -5 116 96.5 c 128,-1,2
 46 198 46 198 46 355 c 128,-1,3
 46 512 46 512 116.5 611 c 128,-1,4
 187 710 187 710 323.5 710 c 128,-1,5
 460 710 460 710 531 611 c 128,-1,6
 602 512 602 512 602 355 c 0,7,8
 602 140 602 140 480 45 c 0,9,10
 415 -5 415 -5 323 -5 c 0,0,1
325 645 m 0,11,12
 223 645 223 645 172.5 560 c 128,-1,13
 122 475 122 475 122 352 c 128,-1,14
 122 229 122 229 173.5 145 c 128,-1,15
 225 61 225 61 325 61 c 128,-1,16
 425 61 425 61 476 146 c 128,-1,17
 527 231 527 231 527 360 c 0,18,19
 527 522 527 522 436 602 c 1,20,21
 389 645 389 645 325 645 c 0,11,12
276 753 m 1,22,-1
 351 877 l 1,23,-1
 435 877 l 1,24,-1
 337 753 l 1,25,-1
 276 753 l 1,22,-1
EndSplineSet
EndChar

StartChar: Otilde
Encoding: 213 213 152
Width: 648
GlyphClass: 2
Flags: W
LayerCount: 2
Fore
SplineSet
467 824 m 1,0,1
 446 796 446 796 419.5 775 c 128,-1,2
 393 754 393 754 373.5 754 c 128,-1,3
 354 754 354 754 296 781.5 c 128,-1,4
 238 809 238 809 225 809 c 128,-1,5
 212 809 212 809 197.5 799.5 c 128,-1,6
 183 790 183 790 175 780 c 2,7,-1
 167 771 l 1,8,-1
 134 797 l 1,9,10
 155 824 155 824 181 845.5 c 128,-1,11
 207 867 207 867 226.5 867 c 128,-1,12
 246 867 246 867 304 839.5 c 128,-1,13
 362 812 362 812 375 812 c 128,-1,14
 388 812 388 812 402.5 821.5 c 128,-1,15
 417 831 417 831 425 840 c 2,16,-1
 433 850 l 1,17,-1
 467 824 l 1,0,1
323 -5 m 0,18,19
 186 -5 186 -5 116 96.5 c 128,-1,20
 46 198 46 198 46 355 c 128,-1,21
 46 512 46 512 116.5 611 c 128,-1,22
 187 710 187 710 323.5 710 c 128,-1,23
 460 710 460 710 531 611 c 128,-1,24
 602 512 602 512 602 355 c 0,25,26
 602 140 602 140 480 45 c 0,27,28
 415 -5 415 -5 323 -5 c 0,18,19
325 645 m 0,29,30
 223 645 223 645 172.5 560 c 128,-1,31
 122 475 122 475 122 352 c 128,-1,32
 122 229 122 229 173.5 145 c 128,-1,33
 225 61 225 61 325 61 c 128,-1,34
 425 61 425 61 476 146 c 128,-1,35
 527 231 527 231 527 360 c 0,36,37
 527 522 527 522 436 602 c 1,38,39
 389 645 389 645 325 645 c 0,29,30
EndSplineSet
EndChar

StartChar: Odieresis
Encoding: 214 214 153
Width: 648
GlyphClass: 2
Flags: W
LayerCount: 2
Fore
SplineSet
323 -5 m 0,0,1
 186 -5 186 -5 116 96.5 c 128,-1,2
 46 198 46 198 46 355 c 128,-1,3
 46 512 46 512 116.5 611 c 128,-1,4
 187 710 187 710 323.5 710 c 128,-1,5
 460 710 460 710 531 611 c 128,-1,6
 602 512 602 512 602 355 c 0,7,8
 602 140 602 140 480 45 c 0,9,10
 415 -5 415 -5 323 -5 c 0,0,1
325 645 m 0,11,12
 223 645 223 645 172.5 560 c 128,-1,13
 122 475 122 475 122 352 c 128,-1,14
 122 229 122 229 173.5 145 c 128,-1,15
 225 61 225 61 325 61 c 128,-1,16
 425 61 425 61 476 146 c 128,-1,17
 527 231 527 231 527 360 c 0,18,19
 527 522 527 522 436 602 c 1,20,21
 389 645 389 645 325 645 c 0,11,12
199 754 m 1,22,-1
 199 860 l 1,23,-1
 270 860 l 1,24,-1
 270 754 l 1,25,-1
 199 754 l 1,22,-1
378 754 m 1,26,-1
 378 860 l 1,27,-1
 449 860 l 1,28,-1
 449 754 l 1,29,-1
 378 754 l 1,26,-1
EndSplineSet
EndChar

StartChar: multiply
Encoding: 215 215 154
Width: 608
GlyphClass: 2
Flags: W
LayerCount: 2
Fore
SplineSet
555 498 m 1,0,-1
 353 296 l 1,1,-1
 553 95 l 1,2,-1
 500 42 l 1,3,-1
 300 243 l 1,4,-1
 106 50 l 1,5,-1
 61 96 l 1,6,-1
 254 289 l 1,7,-1
 55 489 l 1,8,-1
 108 542 l 1,9,-1
 307 342 l 1,10,-1
 509 544 l 1,11,-1
 555 498 l 1,0,-1
EndSplineSet
EndChar

StartChar: Oslash
Encoding: 216 216 155
Width: 648
GlyphClass: 2
Flags: W
LayerCount: 2
Fore
SplineSet
210 103 m 1,0,-1
 388 633 l 1,1,2
 360 645 360 645 325 645 c 0,3,4
 223 645 223 645 172.5 560 c 128,-1,5
 122 475 122 475 122 355 c 0,6,7
 122 179 122 179 210 103 c 1,0,-1
449 595 m 1,8,-1
 273 68 l 1,9,10
 295 61 295 61 324 61 c 0,11,12
 425 61 425 61 476 146 c 128,-1,13
 527 231 527 231 527 360 c 0,14,15
 527 427 527 427 506.5 491 c 128,-1,16
 486 555 486 555 449 595 c 1,8,-1
515 800 m 1,17,-1
 468 663 l 1,18,19
 531 617 531 617 566.5 536 c 128,-1,20
 602 455 602 455 602 354.5 c 128,-1,21
 602 254 602 254 573 174.5 c 128,-1,22
 544 95 544 95 479.5 45 c 128,-1,23
 415 -5 415 -5 323 -5 c 0,24,25
 266 -5 266 -5 244 11 c 1,26,-1
 200 -109 l 1,27,-1
 132 -109 l 1,28,-1
 180 35 l 1,29,30
 113 79 113 79 79.5 163 c 128,-1,31
 46 247 46 247 46 355 c 0,32,33
 46 512 46 512 116.5 611 c 128,-1,34
 187 710 187 710 323 710 c 0,35,36
 369 710 369 710 411 697 c 1,37,-1
 446 800 l 1,38,-1
 515 800 l 1,17,-1
EndSplineSet
EndChar

StartChar: Ugrave
Encoding: 217 217 156
Width: 664
GlyphClass: 2
Flags: W
LayerCount: 2
Fore
SplineSet
332 -6 m 128,-1,1
 214 -6 214 -6 152.5 60.5 c 128,-1,2
 91 127 91 127 91 258 c 2,3,-1
 91 700 l 1,4,-1
 167 700 l 1,5,-1
 167 246 l 2,6,7
 167 157 167 157 209.5 108 c 128,-1,8
 252 59 252 59 330.5 59 c 128,-1,9
 409 59 409 59 453 107.5 c 128,-1,10
 497 156 497 156 497 246 c 2,11,-1
 497 700 l 1,12,-1
 573 700 l 1,13,-1
 573 258 l 2,14,15
 573 127 573 127 511.5 60.5 c 128,-1,0
 450 -6 450 -6 332 -6 c 128,-1,1
367 754 m 1,16,-1
 306 754 l 1,17,-1
 208 878 l 1,18,-1
 292 878 l 1,19,-1
 367 754 l 1,16,-1
EndSplineSet
EndChar

StartChar: Uacute
Encoding: 218 218 157
Width: 664
GlyphClass: 2
Flags: W
LayerCount: 2
Fore
SplineSet
332 -6 m 128,-1,1
 214 -6 214 -6 152.5 60.5 c 128,-1,2
 91 127 91 127 91 258 c 2,3,-1
 91 700 l 1,4,-1
 167 700 l 1,5,-1
 167 246 l 2,6,7
 167 157 167 157 209.5 108 c 128,-1,8
 252 59 252 59 330.5 59 c 128,-1,9
 409 59 409 59 453 107.5 c 128,-1,10
 497 156 497 156 497 246 c 2,11,-1
 497 700 l 1,12,-1
 573 700 l 1,13,-1
 573 258 l 2,14,15
 573 127 573 127 511.5 60.5 c 128,-1,0
 450 -6 450 -6 332 -6 c 128,-1,1
298 753 m 1,16,-1
 373 877 l 1,17,-1
 457 877 l 1,18,-1
 359 753 l 1,19,-1
 298 753 l 1,16,-1
EndSplineSet
EndChar

StartChar: Yacute
Encoding: 221 221 160
Width: 552
GlyphClass: 2
Flags: W
LayerCount: 2
Fore
SplineSet
539 700 m 1,0,-1
 309 315 l 1,1,-1
 309 0 l 1,2,-1
 234 0 l 1,3,-1
 234 315 l 1,4,-1
 13 700 l 1,5,-1
 96 700 l 1,6,-1
 273 376 l 1,7,-1
 458 700 l 1,8,-1
 539 700 l 1,0,-1
228 752 m 1,9,-1
 303 876 l 1,10,-1
 387 876 l 1,11,-1
 289 752 l 1,12,-1
 228 752 l 1,9,-1
EndSplineSet
EndChar

StartChar: Thorn
Encoding: 222 222 161
Width: 546
GlyphClass: 2
Flags: W
LayerCount: 2
Fore
SplineSet
158 700 m 1,0,-1
 158 590 l 1,1,-1
 289 590 l 1,2,3
 402 589 402 589 452 540 c 128,-1,4
 502 491 502 491 502 388 c 128,-1,5
 502 285 502 285 440 234.5 c 128,-1,6
 378 184 378 184 266 184 c 2,7,-1
 164 184 l 1,8,-1
 164 0 l 1,9,-1
 89 0 l 1,10,-1
 89 700 l 1,11,-1
 158 700 l 1,0,-1
255 526 m 2,12,-1
 164 526 l 1,13,-1
 164 248 l 1,14,-1
 230 248 l 2,15,16
 333 248 333 248 380 279 c 128,-1,17
 427 310 427 310 427 385.5 c 128,-1,18
 427 461 427 461 386 493.5 c 128,-1,19
 345 526 345 526 255 526 c 2,12,-1
EndSplineSet
EndChar

StartChar: germandbls
Encoding: 223 223 162
Width: 568
GlyphClass: 2
Flags: W
LayerCount: 2
Fore
SplineSet
524 198 m 0,0,1
 524 99 524 99 459 46.5 c 128,-1,2
 394 -6 394 -6 274 -6 c 0,3,4
 257 -6 257 -6 242 -1 c 1,5,-1
 242 52 l 1,6,7
 349 52 349 52 399 90.5 c 128,-1,8
 449 129 449 129 449 209 c 0,9,10
 449 261 449 261 405.5 301.5 c 128,-1,11
 362 342 362 342 282 343 c 1,12,-1
 254 343 l 1,13,-1
 254 407 l 1,14,-1
 281 407 l 2,15,16
 334 407 334 407 377.5 442 c 128,-1,17
 421 477 421 477 421 528.5 c 128,-1,18
 421 580 421 580 387.5 612.5 c 128,-1,19
 354 645 354 645 296 645 c 0,20,21
 215 645 215 645 190.5 609.5 c 128,-1,22
 166 574 166 574 166 498 c 2,23,-1
 166 0 l 1,24,-1
 91 0 l 1,25,-1
 91 532 l 2,26,27
 91 624 91 624 137 667 c 128,-1,28
 183 710 183 710 284.5 710 c 128,-1,29
 386 710 386 710 441 658 c 128,-1,30
 496 606 496 606 496 535.5 c 128,-1,31
 496 465 496 465 461 427.5 c 128,-1,32
 426 390 426 390 363 382 c 1,33,34
 432 373 432 373 478 323.5 c 128,-1,35
 524 274 524 274 524 198 c 0,0,1
EndSplineSet
EndChar

StartChar: acircumflex
Encoding: 226 226 165
Width: 516
GlyphClass: 2
Flags: W
LayerCount: 2
Fore
SplineSet
307 299 m 2,0,-1
 348 299 l 1,1,2
 348 390 348 390 325 417.5 c 128,-1,3
 302 445 302 445 223 445 c 128,-1,4
 144 445 144 445 89 424 c 1,5,-1
 75 482 l 1,6,7
 159 510 159 510 249 510 c 0,8,9
 425 510 425 510 425 334 c 2,10,-1
 425 0 l 1,11,-1
 381 0 l 1,12,-1
 355 59 l 1,13,14
 309 21 309 21 275.5 7.5 c 128,-1,15
 242 -6 242 -6 198 -6 c 0,16,17
 128 -6 128 -6 89 35.5 c 128,-1,18
 50 77 50 77 50 145 c 0,19,20
 50 299 50 299 307 299 c 2,0,-1
349 236 m 1,21,-1
 304 236 l 2,22,23
 202 236 202 236 163.5 216 c 128,-1,24
 125 196 125 196 125 153.5 c 128,-1,25
 125 111 125 111 147 84 c 128,-1,26
 169 57 169 57 204.5 57 c 128,-1,27
 240 57 240 57 272.5 73.5 c 128,-1,28
 305 90 305 90 349 131 c 1,29,-1
 349 236 l 1,21,-1
229 712 m 1,30,-1
 276 712 l 1,31,-1
 412 612 l 1,32,-1
 393 583 l 1,33,-1
 252 658 l 1,34,-1
 110 583 l 1,35,-1
 91 612 l 1,36,-1
 229 712 l 1,30,-1
EndSplineSet
EndChar

StartChar: atilde
Encoding: 227 227 166
Width: 516
GlyphClass: 2
Flags: W
LayerCount: 2
Fore
SplineSet
307 299 m 2,0,-1
 348 299 l 1,1,2
 348 390 348 390 325 417.5 c 128,-1,3
 302 445 302 445 223 445 c 128,-1,4
 144 445 144 445 89 424 c 1,5,-1
 75 482 l 1,6,7
 159 510 159 510 249 510 c 0,8,9
 425 510 425 510 425 334 c 2,10,-1
 425 0 l 1,11,-1
 381 0 l 1,12,-1
 355 59 l 1,13,14
 309 21 309 21 275.5 7.5 c 128,-1,15
 242 -6 242 -6 198 -6 c 0,16,17
 128 -6 128 -6 89 35.5 c 128,-1,18
 50 77 50 77 50 145 c 0,19,20
 50 299 50 299 307 299 c 2,0,-1
349 236 m 1,21,-1
 304 236 l 2,22,23
 202 236 202 236 163.5 216 c 128,-1,24
 125 196 125 196 125 153.5 c 128,-1,25
 125 111 125 111 147 84 c 128,-1,26
 169 57 169 57 204.5 57 c 128,-1,27
 240 57 240 57 272.5 73.5 c 128,-1,28
 305 90 305 90 349 131 c 1,29,-1
 349 236 l 1,21,-1
419 657 m 1,30,-1
 419 650 l 1,31,32
 398 622 398 622 371.5 601 c 128,-1,33
 345 580 345 580 325.5 580 c 128,-1,34
 306 580 306 580 248 607.5 c 128,-1,35
 190 635 190 635 177 635 c 128,-1,36
 164 635 164 635 149.5 625.5 c 128,-1,37
 135 616 135 616 127 606 c 2,38,-1
 119 597 l 1,39,-1
 86 630 l 1,40,41
 107 657 107 657 133 678.5 c 128,-1,42
 159 700 159 700 178.5 700 c 128,-1,43
 198 700 198 700 256 672.5 c 128,-1,44
 314 645 314 645 327 645 c 128,-1,45
 340 645 340 645 354.5 654.5 c 128,-1,46
 369 664 369 664 377 674 c 2,47,-1
 385 683 l 1,48,-1
 419 657 l 1,30,-1
EndSplineSet
EndChar

StartChar: ae
Encoding: 230 230 169
Width: 789
GlyphClass: 2
Flags: W
LayerCount: 2
Fore
SplineSet
349 236 m 1,0,-1
 304 236 l 2,1,2
 202 236 202 236 163.5 216 c 128,-1,3
 125 196 125 196 125 153.5 c 128,-1,4
 125 111 125 111 147 84 c 128,-1,5
 169 57 169 57 204.5 57 c 128,-1,6
 240 57 240 57 272.5 73.5 c 128,-1,7
 305 90 305 90 349 131 c 1,8,-1
 349 236 l 1,0,-1
384 84 m 1,9,10
 298 -6 298 -6 198 -6 c 0,11,12
 128 -6 128 -6 89 35.5 c 128,-1,13
 50 77 50 77 50 145 c 0,14,15
 50 299 50 299 307 299 c 2,16,-1
 348 299 l 1,17,18
 348 390 348 390 325 417.5 c 128,-1,19
 302 445 302 445 223 445 c 128,-1,20
 144 445 144 445 89 424 c 1,21,-1
 75 482 l 1,22,23
 159 510 159 510 249 510 c 0,24,25
 362 510 362 510 402 440 c 1,26,27
 460 510 460 510 549.5 510 c 128,-1,28
 639 510 639 510 689 452 c 128,-1,29
 739 394 739 394 739 295 c 0,30,31
 739 268 739 268 737 234 c 1,32,-1
 418 234 l 1,33,34
 418 138 418 138 463.5 98 c 128,-1,35
 509 58 509 58 578 58 c 0,36,37
 613 58 613 58 627 61.5 c 128,-1,38
 641 65 641 65 653.5 68.5 c 128,-1,39
 666 72 666 72 671 74 c 0,40,41
 696 81 696 81 714 87 c 1,42,-1
 726 29 l 1,43,44
 626 -6 626 -6 570 -6 c 0,45,46
 441 -6 441 -6 384 84 c 1,9,10
423 291 m 1,47,-1
 667 291 l 1,48,49
 667 365 667 365 641 405 c 128,-1,50
 615 445 615 445 550.5 445 c 128,-1,51
 486 445 486 445 456 402 c 128,-1,52
 426 359 426 359 423 291 c 1,47,-1
EndSplineSet
EndChar

StartChar: ccedilla
Encoding: 231 231 170
Width: 433
GlyphClass: 2
Flags: W
LayerCount: 2
Fore
SplineSet
221 -2 m 1,0,-1
 208 0 l 1,1,2
 126 16 126 16 85 83.5 c 128,-1,3
 44 151 44 151 44 266 c 128,-1,4
 44 381 44 381 100 445.5 c 128,-1,5
 156 510 156 510 265 510 c 1,6,7
 326 506 326 506 397 486 c 1,8,-1
 367 428 l 1,9,10
 312 444 312 444 268 444 c 0,11,12
 192 444 192 444 158.5 399 c 128,-1,13
 125 354 125 354 125 257 c 0,14,15
 125 60 125 60 266 60 c 0,16,17
 322 60 322 60 385 78 c 1,18,-1
 400 19 l 1,19,20
 392 17 392 17 289 -5 c 1,21,22
 289 -53 289 -53 277.5 -85 c 128,-1,23
 266 -117 266 -117 226 -182 c 1,24,-1
 177 -151 l 1,25,26
 205 -98 205 -98 213 -72.5 c 128,-1,27
 221 -47 221 -47 221 -2 c 1,0,-1
EndSplineSet
EndChar

StartChar: egrave
Encoding: 232 232 171
Width: 489
GlyphClass: 2
Flags: W
LayerCount: 2
Fore
SplineSet
438 234 m 1,0,-1
 119 234 l 1,1,2
 119 138 119 138 164.5 98 c 128,-1,3
 210 58 210 58 279 58 c 0,4,5
 314 58 314 58 328 61.5 c 128,-1,6
 342 65 342 65 354.5 68.5 c 128,-1,7
 367 72 367 72 372 74 c 0,8,9
 397 81 397 81 415 87 c 1,10,-1
 427 29 l 1,11,12
 327 -6 327 -6 271 -6 c 0,13,14
 168 -6 168 -6 106 56.5 c 128,-1,15
 44 119 44 119 44 244.5 c 128,-1,16
 44 370 44 370 102.5 440 c 128,-1,17
 161 510 161 510 250.5 510 c 128,-1,18
 340 510 340 510 390 452 c 128,-1,19
 440 394 440 394 440 295 c 0,20,21
 440 268 440 268 438 234 c 1,0,-1
124 291 m 1,22,-1
 368 291 l 1,23,24
 368 365 368 365 342 405 c 128,-1,25
 316 445 316 445 251.5 445 c 128,-1,26
 187 445 187 445 157 402 c 128,-1,27
 127 359 127 359 124 291 c 1,22,-1
310 592 m 1,28,-1
 252 571 l 1,29,-1
 122 703 l 1,30,-1
 197 733 l 1,31,-1
 310 592 l 1,28,-1
EndSplineSet
EndChar

StartChar: eacute
Encoding: 233 233 172
Width: 489
GlyphClass: 2
Flags: W
LayerCount: 2
Fore
SplineSet
438 234 m 1,0,-1
 119 234 l 1,1,2
 119 138 119 138 164.5 98 c 128,-1,3
 210 58 210 58 279 58 c 0,4,5
 314 58 314 58 328 61.5 c 128,-1,6
 342 65 342 65 354.5 68.5 c 128,-1,7
 367 72 367 72 372 74 c 0,8,9
 397 81 397 81 415 87 c 1,10,-1
 427 29 l 1,11,12
 327 -6 327 -6 271 -6 c 0,13,14
 168 -6 168 -6 106 56.5 c 128,-1,15
 44 119 44 119 44 244.5 c 128,-1,16
 44 370 44 370 102.5 440 c 128,-1,17
 161 510 161 510 250.5 510 c 128,-1,18
 340 510 340 510 390 452 c 128,-1,19
 440 394 440 394 440 295 c 0,20,21
 440 268 440 268 438 234 c 1,0,-1
124 291 m 1,22,-1
 368 291 l 1,23,24
 368 365 368 365 342 405 c 128,-1,25
 316 445 316 445 251.5 445 c 128,-1,26
 187 445 187 445 157 402 c 128,-1,27
 127 359 127 359 124 291 c 1,22,-1
240 571 m 1,28,-1
 182 592 l 1,29,-1
 295 733 l 1,30,-1
 370 703 l 1,31,-1
 240 571 l 1,28,-1
EndSplineSet
EndChar

StartChar: ecircumflex
Encoding: 234 234 173
Width: 489
GlyphClass: 2
Flags: W
LayerCount: 2
Fore
SplineSet
438 234 m 1,0,-1
 119 234 l 1,1,2
 119 138 119 138 164.5 98 c 128,-1,3
 210 58 210 58 279 58 c 0,4,5
 314 58 314 58 328 61.5 c 128,-1,6
 342 65 342 65 354.5 68.5 c 128,-1,7
 367 72 367 72 372 74 c 0,8,9
 397 81 397 81 415 87 c 1,10,-1
 427 29 l 1,11,12
 327 -6 327 -6 271 -6 c 0,13,14
 168 -6 168 -6 106 56.5 c 128,-1,15
 44 119 44 119 44 244.5 c 128,-1,16
 44 370 44 370 102.5 440 c 128,-1,17
 161 510 161 510 250.5 510 c 128,-1,18
 340 510 340 510 390 452 c 128,-1,19
 440 394 440 394 440 295 c 0,20,21
 440 268 440 268 438 234 c 1,0,-1
124 291 m 1,22,-1
 368 291 l 1,23,24
 368 365 368 365 342 405 c 128,-1,25
 316 445 316 445 251.5 445 c 128,-1,26
 187 445 187 445 157 402 c 128,-1,27
 127 359 127 359 124 291 c 1,22,-1
226 712 m 1,28,-1
 273 712 l 1,29,-1
 409 612 l 1,30,-1
 390 583 l 1,31,-1
 249 658 l 1,32,-1
 107 583 l 1,33,-1
 88 612 l 1,34,-1
 226 712 l 1,28,-1
EndSplineSet
EndChar

StartChar: edieresis
Encoding: 235 235 174
Width: 489
GlyphClass: 2
Flags: W
LayerCount: 2
Fore
SplineSet
438 234 m 1,0,-1
 119 234 l 1,1,2
 119 138 119 138 164.5 98 c 128,-1,3
 210 58 210 58 279 58 c 0,4,5
 314 58 314 58 328 61.5 c 128,-1,6
 342 65 342 65 354.5 68.5 c 128,-1,7
 367 72 367 72 372 74 c 0,8,9
 397 81 397 81 415 87 c 1,10,-1
 427 29 l 1,11,12
 327 -6 327 -6 271 -6 c 0,13,14
 168 -6 168 -6 106 56.5 c 128,-1,15
 44 119 44 119 44 244.5 c 128,-1,16
 44 370 44 370 102.5 440 c 128,-1,17
 161 510 161 510 250.5 510 c 128,-1,18
 340 510 340 510 390 452 c 128,-1,19
 440 394 440 394 440 295 c 0,20,21
 440 268 440 268 438 234 c 1,0,-1
124 291 m 1,22,-1
 368 291 l 1,23,24
 368 365 368 365 342 405 c 128,-1,25
 316 445 316 445 251.5 445 c 128,-1,26
 187 445 187 445 157 402 c 128,-1,27
 127 359 127 359 124 291 c 1,22,-1
123 595 m 1,28,-1
 123 701 l 1,29,-1
 194 701 l 1,30,-1
 194 595 l 1,31,-1
 123 595 l 1,28,-1
302 595 m 1,32,-1
 302 701 l 1,33,-1
 373 701 l 1,34,-1
 373 595 l 1,35,-1
 302 595 l 1,32,-1
EndSplineSet
EndChar

StartChar: igrave
Encoding: 236 236 175
Width: 226
GlyphClass: 2
Flags: W
LayerCount: 2
Fore
SplineSet
77 0 m 1,0,-1
 77 500 l 1,1,-1
 150 500 l 1,2,-1
 150 0 l 1,3,-1
 77 0 l 1,0,-1
152 586 m 1,4,-1
 94 565 l 1,5,-1
 -36 697 l 1,6,-1
 39 727 l 1,7,-1
 152 586 l 1,4,-1
EndSplineSet
EndChar

StartChar: iacute
Encoding: 237 237 176
Width: 226
GlyphClass: 2
Flags: W
LayerCount: 2
Fore
SplineSet
77 0 m 1,0,-1
 77 500 l 1,1,-1
 150 500 l 1,2,-1
 150 0 l 1,3,-1
 77 0 l 1,0,-1
139 571 m 1,4,-1
 81 592 l 1,5,-1
 194 733 l 1,6,-1
 269 703 l 1,7,-1
 139 571 l 1,4,-1
EndSplineSet
EndChar

StartChar: icircumflex
Encoding: 238 238 177
Width: 228
GlyphClass: 2
Flags: W
LayerCount: 2
Fore
SplineSet
77 0 m 1,0,-1
 77 500 l 1,1,-1
 152 500 l 1,2,-1
 152 0 l 1,3,-1
 77 0 l 1,0,-1
92 712 m 1,4,-1
 139 712 l 1,5,-1
 275 612 l 1,6,-1
 256 583 l 1,7,-1
 115 658 l 1,8,-1
 -27 583 l 1,9,-1
 -46 612 l 1,10,-1
 92 712 l 1,4,-1
EndSplineSet
EndChar

StartChar: idieresis
Encoding: 239 239 178
Width: 228
GlyphClass: 2
Flags: W
LayerCount: 2
Fore
SplineSet
77 0 m 1,0,-1
 77 500 l 1,1,-1
 152 500 l 1,2,-1
 152 0 l 1,3,-1
 77 0 l 1,0,-1
-10 594 m 1,4,-1
 -10 700 l 1,5,-1
 61 700 l 1,6,-1
 61 594 l 1,7,-1
 -10 594 l 1,4,-1
169 594 m 1,8,-1
 169 700 l 1,9,-1
 240 700 l 1,10,-1
 240 594 l 1,11,-1
 169 594 l 1,8,-1
EndSplineSet
EndChar

StartChar: eth
Encoding: 240 240 179
Width: 573
GlyphClass: 2
Flags: W
LayerCount: 2
Fore
SplineSet
406.5 396 m 128,-1,1
 372 443 372 443 295.5 443 c 128,-1,2
 219 443 219 443 189.5 397 c 128,-1,3
 160 351 160 351 160 252 c 0,4,5
 160 59 160 59 297 59 c 0,6,7
 370 59 370 59 405.5 106 c 128,-1,8
 441 153 441 153 441 251 c 128,-1,0
 441 349 441 349 406.5 396 c 128,-1,1
379 701 m 1,9,-1
 267 643 l 1,10,11
 402 515 402 515 459 449 c 128,-1,12
 516 383 516 383 516 258 c 128,-1,13
 516 133 516 133 459 63.5 c 128,-1,14
 402 -6 402 -6 298.5 -6 c 128,-1,15
 195 -6 195 -6 139 63.5 c 128,-1,16
 83 133 83 133 83 254 c 128,-1,17
 83 375 83 375 140 442.5 c 128,-1,18
 197 510 197 510 308 511 c 1,19,-1
 211 609 l 1,20,-1
 102 548 l 1,21,-1
 63 588 l 1,22,-1
 176 651 l 1,23,24
 101 713 101 713 86 723 c 1,25,-1
 138 758 l 1,26,-1
 229 681 l 1,27,-1
 341 739 l 1,28,-1
 379 701 l 1,9,-1
EndSplineSet
EndChar

StartChar: otilde
Encoding: 245 245 184
Width: 518
GlyphClass: 2
Flags: W
LayerCount: 2
Fore
SplineSet
147.5 396.5 m 128,-1,1
 117 348 117 348 117 248 c 0,2,3
 117 59 117 59 256 59 c 0,4,5
 329 59 329 59 364.5 104.5 c 128,-1,6
 400 150 400 150 400 246.5 c 128,-1,7
 400 343 400 343 362 394 c 128,-1,8
 324 445 324 445 251 445 c 128,-1,0
 178 445 178 445 147.5 396.5 c 128,-1,1
257 -6 m 128,-1,10
 153 -6 153 -6 97.5 61.5 c 128,-1,11
 42 129 42 129 42 250.5 c 128,-1,12
 42 372 42 372 95.5 441 c 128,-1,13
 149 510 149 510 252.5 510 c 128,-1,14
 356 510 356 510 415.5 440 c 128,-1,15
 475 370 475 370 475 250 c 128,-1,16
 475 130 475 130 418 62 c 128,-1,9
 361 -6 361 -6 257 -6 c 128,-1,10
426 657 m 1,17,-1
 426 650 l 1,18,19
 405 622 405 622 378.5 601 c 128,-1,20
 352 580 352 580 332.5 580 c 128,-1,21
 313 580 313 580 255 607.5 c 128,-1,22
 197 635 197 635 184 635 c 128,-1,23
 171 635 171 635 156.5 625.5 c 128,-1,24
 142 616 142 616 134 606 c 2,25,-1
 126 597 l 1,26,-1
 93 630 l 1,27,28
 114 657 114 657 140 678.5 c 128,-1,29
 166 700 166 700 185.5 700 c 128,-1,30
 205 700 205 700 263 672.5 c 128,-1,31
 321 645 321 645 334 645 c 128,-1,32
 347 645 347 645 361.5 654.5 c 128,-1,33
 376 664 376 664 384 674 c 2,34,-1
 392 683 l 1,35,-1
 426 657 l 1,17,-1
EndSplineSet
EndChar

StartChar: divide
Encoding: 247 247 186
Width: 524
GlyphClass: 2
Flags: W
LayerCount: 2
Fore
SplineSet
305 0 m 1,0,-1
 230 0 l 1,1,-1
 230 106 l 1,2,-1
 305 106 l 1,3,-1
 305 0 l 1,0,-1
305 394 m 1,4,-1
 230 394 l 1,5,-1
 230 500 l 1,6,-1
 305 500 l 1,7,-1
 305 394 l 1,4,-1
478 228 m 1,8,-1
 46 228 l 1,9,-1
 46 293 l 1,10,-1
 478 293 l 1,11,-1
 478 228 l 1,8,-1
EndSplineSet
EndChar

StartChar: oslash
Encoding: 248 248 187
Width: 518
GlyphClass: 2
Flags: W
LayerCount: 2
Fore
SplineSet
389 338 m 1,0,-1
 178 82 l 1,1,2
 205 59 205 59 256 59 c 0,3,4
 329 59 329 59 364.5 106 c 128,-1,5
 400 153 400 153 400 252 c 0,6,7
 400 302 400 302 389 338 c 1,0,-1
137 139 m 1,8,-1
 361 406 l 1,9,10
 323 446 323 446 249.5 446 c 128,-1,11
 176 446 176 446 146.5 397.5 c 128,-1,12
 117 349 117 349 117 249 c 0,13,14
 117 197 117 197 137 139 c 1,8,-1
530 507 m 1,15,-1
 443 403 l 1,16,17
 475 342 475 342 475 254 c 0,18,19
 475 133 475 133 418 63.5 c 128,-1,20
 361 -6 361 -6 257 -6 c 0,21,22
 186 -6 186 -6 134 30 c 1,23,-1
 74 -43 l 1,24,-1
 22 1 l 1,25,-1
 90 80 l 1,26,27
 42 156 42 156 42 266 c 128,-1,28
 42 376 42 376 95.5 443.5 c 128,-1,29
 149 511 149 511 244 511 c 128,-1,30
 339 511 339 511 401 457 c 1,31,-1
 473 545 l 1,32,-1
 530 507 l 1,15,-1
EndSplineSet
EndChar

StartChar: ugrave
Encoding: 249 249 188
Width: 554
GlyphClass: 2
Flags: W
LayerCount: 2
Fore
SplineSet
387 500 m 1,0,-1
 463 500 l 1,1,-1
 463 0 l 1,2,-1
 419 0 l 1,3,-1
 394 59 l 1,4,5
 314 -6 314 -6 241 -6 c 128,-1,6
 168 -6 168 -6 129.5 36.5 c 128,-1,7
 91 79 91 79 91 157 c 2,8,-1
 91 500 l 1,9,-1
 166 500 l 1,10,-1
 166 169 l 2,11,12
 166 110 166 110 183.5 84 c 128,-1,13
 201 58 201 58 241.5 58 c 128,-1,14
 282 58 282 58 324 80 c 128,-1,15
 366 102 366 102 387 127 c 1,16,-1
 387 500 l 1,0,-1
333 592 m 1,17,-1
 275 571 l 1,18,-1
 145 703 l 1,19,-1
 220 733 l 1,20,-1
 333 592 l 1,17,-1
EndSplineSet
EndChar

StartChar: uacute
Encoding: 250 250 189
Width: 554
GlyphClass: 2
Flags: W
LayerCount: 2
Fore
SplineSet
387 127 m 1,0,-1
 387 500 l 1,1,-1
 463 500 l 1,2,-1
 463 0 l 1,3,-1
 419 0 l 1,4,-1
 394 59 l 1,5,6
 314 -6 314 -6 241 -6 c 128,-1,7
 168 -6 168 -6 129.5 36.5 c 128,-1,8
 91 79 91 79 91 157 c 2,9,-1
 91 500 l 1,10,-1
 166 500 l 1,11,-1
 166 169 l 2,12,13
 166 110 166 110 183.5 84 c 128,-1,14
 201 58 201 58 241.5 58 c 128,-1,15
 282 58 282 58 324 80 c 128,-1,16
 366 102 366 102 387 127 c 1,0,-1
271 571 m 1,17,-1
 213 592 l 1,18,-1
 326 733 l 1,19,-1
 401 703 l 1,20,-1
 271 571 l 1,17,-1
EndSplineSet
EndChar

StartChar: ucircumflex
Encoding: 251 251 190
Width: 554
GlyphClass: 2
Flags: W
LayerCount: 2
Fore
SplineSet
387 127 m 1,0,-1
 387 500 l 1,1,-1
 463 500 l 1,2,-1
 463 0 l 1,3,-1
 419 0 l 1,4,-1
 394 59 l 1,5,6
 314 -6 314 -6 241 -6 c 128,-1,7
 168 -6 168 -6 129.5 36.5 c 128,-1,8
 91 79 91 79 91 157 c 2,9,-1
 91 500 l 1,10,-1
 166 500 l 1,11,-1
 166 169 l 2,12,13
 166 110 166 110 183.5 84 c 128,-1,14
 201 58 201 58 241.5 58 c 128,-1,15
 282 58 282 58 324 80 c 128,-1,16
 366 102 366 102 387 127 c 1,0,-1
254 712 m 1,17,-1
 301 712 l 1,18,-1
 437 612 l 1,19,-1
 418 583 l 1,20,-1
 277 658 l 1,21,-1
 135 583 l 1,22,-1
 116 612 l 1,23,-1
 254 712 l 1,17,-1
EndSplineSet
EndChar

StartChar: udieresis
Encoding: 252 252 191
Width: 554
GlyphClass: 2
Flags: W
LayerCount: 2
Fore
SplineSet
387 500 m 1,0,-1
 463 500 l 1,1,-1
 463 0 l 1,2,-1
 419 0 l 1,3,-1
 394 59 l 1,4,5
 314 -6 314 -6 241 -6 c 128,-1,6
 168 -6 168 -6 129.5 36.5 c 128,-1,7
 91 79 91 79 91 157 c 2,8,-1
 91 500 l 1,9,-1
 166 500 l 1,10,-1
 166 169 l 2,11,12
 166 110 166 110 183.5 84 c 128,-1,13
 201 58 201 58 241.5 58 c 128,-1,14
 282 58 282 58 324 80 c 128,-1,15
 366 102 366 102 387 127 c 1,16,-1
 387 500 l 1,0,-1
152 594 m 1,17,-1
 152 700 l 1,18,-1
 223 700 l 1,19,-1
 223 594 l 1,20,-1
 152 594 l 1,17,-1
331 594 m 1,21,-1
 331 700 l 1,22,-1
 402 700 l 1,23,-1
 402 594 l 1,24,-1
 331 594 l 1,21,-1
EndSplineSet
EndChar

StartChar: thorn
Encoding: 254 254 193
Width: 546
GlyphClass: 2
Flags: W
LayerCount: 2
Fore
SplineSet
91 700 m 1,0,-1
 166 700 l 1,1,-1
 166 450 l 1,2,3
 252 511 252 511 320 511 c 0,4,5
 500 511 500 511 500 252 c 0,6,7
 500 105 500 105 436 46 c 0,8,9
 379 -6 379 -6 304 -6 c 128,-1,10
 229 -6 229 -6 165 44 c 1,11,-1
 165 -201 l 1,12,-1
 91 -201 l 1,13,-1
 91 700 l 1,0,-1
166 379 m 1,14,-1
 166 107 l 1,15,16
 186 84 186 84 219.5 71 c 128,-1,17
 253 58 253 58 285 58 c 0,18,19
 363 58 363 58 394 104 c 128,-1,20
 425 150 425 150 425 248 c 128,-1,21
 425 346 425 346 394 396 c 128,-1,22
 363 446 363 446 315 446 c 0,23,24
 243 446 243 446 166 379 c 1,14,-1
EndSplineSet
EndChar

StartChar: ydieresis
Encoding: 255 255 194
Width: 445
GlyphClass: 2
Flags: W
LayerCount: 2
Fore
SplineSet
100 596 m 1,0,-1
 100 702 l 1,1,-1
 171 702 l 1,2,-1
 171 596 l 1,3,-1
 100 596 l 1,0,-1
279 596 m 1,4,-1
 279 702 l 1,5,-1
 350 702 l 1,6,-1
 350 596 l 1,7,-1
 279 596 l 1,4,-1
11 500 m 1,8,-1
 96 500 l 1,9,-1
 223 80 l 1,10,-1
 351 500 l 1,11,-1
 434 500 l 1,12,-1
 262 0 l 2,13,14
 229 -97 229 -97 189 -150 c 128,-1,15
 149 -203 149 -203 86 -236 c 1,16,-1
 58 -184 l 1,17,18
 98 -161 98 -161 133 -116 c 128,-1,19
 168 -71 168 -71 180 -10 c 1,20,-1
 11 500 l 1,8,-1
EndSplineSet
EndChar

StartChar: hbar
Encoding: 295 295 195
Width: 556
GlyphClass: 2
Flags: W
LayerCount: 2
Fore
SplineSet
465 0 m 1,0,-1
 390 0 l 1,1,-1
 390 329 l 2,2,3
 390 450 390 450 289 450 c 0,4,5
 214 450 214 450 166 402 c 1,6,-1
 166 0 l 1,7,-1
 91 0 l 1,8,-1
 91 700 l 1,9,-1
 165 700 l 1,10,-1
 165 463 l 1,11,12
 187 481 187 481 199.5 489 c 128,-1,13
 212 497 212 497 240.5 505 c 128,-1,14
 269 513 269 513 305 513 c 0,15,16
 374 513 374 513 419.5 471 c 128,-1,17
 465 429 465 429 465 351 c 2,18,-1
 465 0 l 1,0,-1
6 585 m 1,19,-1
 6 640 l 1,20,-1
 323 640 l 1,21,-1
 323 585 l 1,22,-1
 6 585 l 1,19,-1
EndSplineSet
EndChar

StartChar: itilde
Encoding: 297 297 197
Width: 228
GlyphClass: 2
Flags: W
LayerCount: 2
Fore
SplineSet
77 0 m 1,0,-1
 77 500 l 1,1,-1
 152 500 l 1,2,-1
 152 0 l 1,3,-1
 77 0 l 1,0,-1
281 664 m 1,4,-1
 281 657 l 1,5,6
 260 629 260 629 233.5 608 c 128,-1,7
 207 587 207 587 187.5 587 c 128,-1,8
 168 587 168 587 110 614.5 c 128,-1,9
 52 642 52 642 39 642 c 128,-1,10
 26 642 26 642 11.5 632.5 c 128,-1,11
 -3 623 -3 623 -11 614 c 2,12,-1
 -19 604 l 1,13,-1
 -52 637 l 1,14,15
 -31 664 -31 664 -5 685.5 c 128,-1,16
 21 707 21 707 40.5 707 c 128,-1,17
 60 707 60 707 118 679.5 c 128,-1,18
 176 652 176 652 189 652 c 128,-1,19
 202 652 202 652 216.5 661.5 c 128,-1,20
 231 671 231 671 239 680 c 2,21,-1
 247 690 l 1,22,-1
 281 664 l 1,4,-1
EndSplineSet
EndChar

StartChar: dotlessi
Encoding: 305 305 198
Width: 228
GlyphClass: 2
Flags: W
LayerCount: 2
Fore
SplineSet
77 0 m 1,0,-1
 77 500 l 1,1,-1
 152 500 l 1,2,-1
 152 0 l 1,3,-1
 77 0 l 1,0,-1
EndSplineSet
EndChar

StartChar: ij
Encoding: 307 307 199
Width: 450
GlyphClass: 2
Flags: W
LayerCount: 2
Fore
SplineSet
77 0 m 1,0,-1
 77 500 l 1,1,-1
 152 500 l 1,2,-1
 152 0 l 1,3,-1
 77 0 l 1,0,-1
152 700 m 1,4,-1
 152 611 l 1,5,-1
 77 611 l 1,6,-1
 77 700 l 1,7,-1
 152 700 l 1,4,-1
374 700 m 1,8,-1
 374 612 l 1,9,-1
 299 612 l 1,10,-1
 299 700 l 1,11,-1
 374 700 l 1,8,-1
258 -204 m 1,12,13
 299 -151 299 -151 299 -34 c 2,14,-1
 299 500 l 1,15,-1
 374 500 l 1,16,-1
 374 -10 l 2,17,18
 374 -96 374 -96 357.5 -147 c 128,-1,19
 341 -198 341 -198 302 -239 c 1,20,-1
 258 -204 l 1,12,13
EndSplineSet
EndChar

StartChar: jcircumflex
Encoding: 309 309 201
Width: 222
GlyphClass: 2
Flags: W
LayerCount: 2
Fore
SplineSet
30 -204 m 1,0,1
 71 -151 71 -151 71 -34 c 2,2,-1
 71 500 l 1,3,-1
 146 500 l 1,4,-1
 146 -10 l 2,5,6
 146 -96 146 -96 129.5 -147 c 128,-1,7
 113 -198 113 -198 74 -239 c 1,8,-1
 30 -204 l 1,0,1
89 712 m 1,9,-1
 136 712 l 1,10,-1
 272 612 l 1,11,-1
 253 583 l 1,12,-1
 112 658 l 1,13,-1
 -30 583 l 1,14,-1
 -49 612 l 1,15,-1
 89 712 l 1,9,-1
EndSplineSet
EndChar

StartChar: kgreenlandic
Encoding: 312 312 203
Width: 509
GlyphClass: 2
Flags: W
LayerCount: 2
Fore
SplineSet
91 500 m 1,0,-1
 166 500 l 1,1,-1
 166 288 l 1,2,-1
 380 500 l 1,3,-1
 475 500 l 1,4,-1
 263 297 l 1,5,-1
 486 0 l 1,6,-1
 401 0 l 1,7,-1
 219 250 l 1,8,-1
 166 196 l 1,9,-1
 166 0 l 1,10,-1
 91 0 l 1,11,-1
 91 500 l 1,0,-1
EndSplineSet
EndChar

StartChar: ldot
Encoding: 320 320 204
Width: 385
GlyphClass: 2
Flags: W
LayerCount: 2
Fore
SplineSet
91 0 m 1,0,-1
 91 700 l 1,1,-1
 166 700 l 1,2,-1
 166 0 l 1,3,-1
 91 0 l 1,0,-1
335 247 m 1,4,-1
 260 247 l 1,5,-1
 260 350 l 1,6,-1
 335 350 l 1,7,-1
 335 247 l 1,4,-1
EndSplineSet
EndChar

StartChar: Lslash
Encoding: 321 321 205
Width: 426
GlyphClass: 2
Flags: W
LayerCount: 2
Fore
SplineSet
106 345 m 1,0,-1
 23 295 l 1,1,-1
 23 367 l 1,2,-1
 106 416 l 1,3,-1
 106 699 l 1,4,-1
 181 699 l 1,5,-1
 181 448 l 1,6,-1
 291 514 l 1,7,-1
 291 442 l 1,8,-1
 181 378 l 1,9,-1
 181 66 l 1,10,-1
 396 66 l 1,11,-1
 396 0 l 1,12,-1
 106 0 l 1,13,-1
 106 345 l 1,0,-1
EndSplineSet
EndChar

StartChar: lslash
Encoding: 322 322 206
Width: 303
GlyphClass: 2
Flags: W
LayerCount: 2
Fore
SplineSet
173 448 m 1,0,-1
 173 0 l 1,1,-1
 103 0 l 1,2,-1
 103 415 l 1,3,-1
 20 365 l 1,4,-1
 20 437 l 1,5,-1
 103 486 l 1,6,-1
 103 733 l 1,7,-1
 173 733 l 1,8,-1
 173 518 l 1,9,-1
 283 584 l 1,10,-1
 283 512 l 1,11,-1
 173 448 l 1,0,-1
EndSplineSet
EndChar

StartChar: Nacute
Encoding: 323 323 207
Width: 679
GlyphClass: 2
Flags: W
LayerCount: 2
Fore
SplineSet
588 -1 m 1,0,-1
 506 -1 l 1,1,-1
 169 560 l 1,2,-1
 169 0 l 1,3,-1
 91 0 l 1,4,-1
 91 700 l 1,5,-1
 169 700 l 1,6,-1
 513 118 l 1,7,-1
 513 700 l 1,8,-1
 588 700 l 1,9,-1
 588 -1 l 1,0,-1
318 752 m 1,10,-1
 393 876 l 1,11,-1
 477 876 l 1,12,-1
 379 752 l 1,13,-1
 318 752 l 1,10,-1
EndSplineSet
EndChar

StartChar: OE
Encoding: 338 338 209
Width: 873
GlyphClass: 2
Flags: W
LayerCount: 2
Fore
SplineSet
798 0 m 1,0,-1
 322 1 l 2,1,2
 185 1 185 1 115 100 c 128,-1,3
 45 199 45 199 45 355 c 128,-1,4
 45 511 45 511 115.5 605.5 c 128,-1,5
 186 700 186 700 322 700 c 2,6,-1
 798 700 l 1,7,-1
 798 634 l 1,8,-1
 496 634 l 1,9,-1
 496 413 l 1,10,-1
 773 413 l 1,11,-1
 773 346 l 1,12,-1
 496 346 l 1,13,-1
 496 71 l 1,14,-1
 798 71 l 1,15,-1
 798 0 l 1,0,-1
323 70 m 2,16,-1
 429 70 l 1,17,-1
 429 634 l 1,18,-1
 324 634 l 2,19,20
 271 634 271 634 230.5 611 c 128,-1,21
 190 588 190 588 167 548 c 0,22,23
 121 468 121 468 121 349 c 128,-1,24
 121 230 121 230 172.5 150 c 128,-1,25
 224 70 224 70 323 70 c 2,16,-1
EndSplineSet
EndChar

StartChar: oe
Encoding: 339 339 210
Width: 861
GlyphClass: 2
Flags: W
LayerCount: 2
Fore
SplineSet
362 398 m 128,-1,1
 324 449 324 449 251 449 c 128,-1,2
 178 449 178 449 148.5 400.5 c 128,-1,3
 119 352 119 352 119 252 c 0,4,5
 119 59 119 59 256 59 c 0,6,7
 329 59 329 59 364.5 106 c 128,-1,8
 400 153 400 153 400 250 c 128,-1,0
 400 347 400 347 362 398 c 128,-1,1
447 404 m 1,9,10
 475 454 475 454 521.5 482 c 128,-1,11
 568 510 568 510 624 510 c 0,12,13
 712 510 712 510 762 452 c 128,-1,14
 812 394 812 394 812 295 c 0,15,16
 812 268 812 268 810 234 c 1,17,-1
 491 234 l 1,18,19
 491 138 491 138 536.5 98 c 128,-1,20
 582 58 582 58 651 58 c 0,21,22
 686 58 686 58 700 61.5 c 128,-1,23
 714 65 714 65 726.5 68.5 c 128,-1,24
 739 72 739 72 744 74 c 0,25,26
 769 81 769 81 787 87 c 1,27,-1
 799 29 l 1,28,29
 699 -6 699 -6 643 -6 c 0,30,31
 500 -6 500 -6 444 103 c 1,32,33
 389 -6 389 -6 257 -6 c 0,34,35
 154 -6 154 -6 98 63.5 c 128,-1,36
 42 133 42 133 42 254.5 c 128,-1,37
 42 376 42 376 95.5 445 c 128,-1,38
 149 514 149 514 252 514 c 0,39,40
 312 514 312 514 368 481.5 c 128,-1,41
 424 449 424 449 447 404 c 1,9,10
496 291 m 1,42,-1
 740 291 l 1,43,44
 740 365 740 365 714 405 c 128,-1,45
 688 445 688 445 623.5 445 c 128,-1,46
 559 445 559 445 529 402 c 128,-1,47
 499 359 499 359 496 291 c 1,42,-1
EndSplineSet
EndChar

StartChar: Racute
Encoding: 340 340 211
Width: 603
GlyphClass: 2
Flags: W
LayerCount: 2
Fore
SplineSet
166 329 m 1,0,-1
 166 1 l 1,1,-1
 91 1 l 1,2,-1
 91 701 l 1,3,-1
 293 701 l 2,4,5
 395 701 395 701 446.5 654.5 c 128,-1,6
 498 608 498 608 498 522 c 0,7,8
 498 462 498 462 456.5 412 c 128,-1,9
 415 362 415 362 354 354 c 1,10,11
 403 343 403 343 423.5 322.5 c 128,-1,12
 444 302 444 302 472 235 c 2,13,-1
 571 1 l 1,14,-1
 492 1 l 1,15,-1
 395 225 l 2,16,17
 368 288 368 288 334.5 308.5 c 128,-1,18
 301 329 301 329 228 329 c 2,19,-1
 166 329 l 1,0,-1
166 637 m 1,20,-1
 166 393 l 1,21,-1
 279 393 l 2,22,23
 341 393 341 393 377.5 429.5 c 128,-1,24
 414 466 414 466 414 522 c 128,-1,25
 414 578 414 578 381 607.5 c 128,-1,26
 348 637 348 637 289 637 c 2,27,-1
 166 637 l 1,20,-1
254 752 m 1,28,-1
 329 876 l 1,29,-1
 413 876 l 1,30,-1
 315 752 l 1,31,-1
 254 752 l 1,28,-1
EndSplineSet
EndChar

StartChar: Rcommaaccent
Encoding: 342 342 212
Width: 603
GlyphClass: 2
Flags: W
LayerCount: 2
Fore
SplineSet
228 329 m 2,0,-1
 166 329 l 1,1,-1
 166 1 l 1,2,-1
 91 1 l 1,3,-1
 91 701 l 1,4,-1
 293 701 l 2,5,6
 395 701 395 701 446.5 654.5 c 128,-1,7
 498 608 498 608 498 522 c 0,8,9
 498 462 498 462 456.5 412 c 128,-1,10
 415 362 415 362 354 354 c 1,11,12
 403 343 403 343 423.5 322.5 c 128,-1,13
 444 302 444 302 472 235 c 2,14,-1
 571 1 l 1,15,-1
 492 1 l 1,16,-1
 395 225 l 2,17,18
 368 288 368 288 334.5 308.5 c 128,-1,19
 301 329 301 329 228 329 c 2,0,-1
289 637 m 2,20,-1
 166 637 l 1,21,-1
 166 393 l 1,22,-1
 279 393 l 2,23,24
 341 393 341 393 377.5 429.5 c 128,-1,25
 414 466 414 466 414 522 c 128,-1,26
 414 578 414 578 381 607.5 c 128,-1,27
 348 637 348 637 289 637 c 2,20,-1
350 -40 m 1,28,29
 350 -88 350 -88 338.5 -120 c 128,-1,30
 327 -152 327 -152 287 -217 c 1,31,-1
 238 -186 l 1,32,33
 264 -133 264 -133 271.5 -108.5 c 128,-1,34
 279 -84 279 -84 279 -40 c 1,35,-1
 350 -40 l 1,28,29
EndSplineSet
EndChar

StartChar: Rcaron
Encoding: 344 344 214
Width: 603
GlyphClass: 2
Flags: W
LayerCount: 2
Fore
SplineSet
310 773 m 1,0,-1
 263 773 l 1,1,-1
 127 873 l 1,2,-1
 146 902 l 1,3,-1
 287 827 l 1,4,-1
 429 902 l 1,5,-1
 448 873 l 1,6,-1
 310 773 l 1,0,-1
228 328 m 2,7,-1
 166 328 l 1,8,-1
 166 0 l 1,9,-1
 91 0 l 1,10,-1
 91 700 l 1,11,-1
 293 700 l 2,12,13
 395 700 395 700 446.5 653.5 c 128,-1,14
 498 607 498 607 498 521 c 0,15,16
 498 461 498 461 456.5 411 c 128,-1,17
 415 361 415 361 354 353 c 1,18,19
 403 342 403 342 423.5 321.5 c 128,-1,20
 444 301 444 301 472 234 c 2,21,-1
 571 0 l 1,22,-1
 492 0 l 1,23,-1
 395 224 l 2,24,25
 368 287 368 287 334.5 307.5 c 128,-1,26
 301 328 301 328 228 328 c 2,7,-1
289 636 m 2,27,-1
 166 636 l 1,28,-1
 166 392 l 1,29,-1
 279 392 l 2,30,31
 341 392 341 392 377.5 428.5 c 128,-1,32
 414 465 414 465 414 521 c 128,-1,33
 414 577 414 577 381 606.5 c 128,-1,34
 348 636 348 636 289 636 c 2,27,-1
EndSplineSet
EndChar

StartChar: rcaron
Encoding: 345 345 215
Width: 371
GlyphClass: 2
Flags: W
LayerCount: 2
Fore
SplineSet
235 589 m 1,0,-1
 188 589 l 1,1,-1
 52 689 l 1,2,-1
 71 718 l 1,3,-1
 212 643 l 1,4,-1
 354 718 l 1,5,-1
 373 689 l 1,6,-1
 235 589 l 1,0,-1
166 382 m 1,7,-1
 166 0 l 1,8,-1
 91 0 l 1,9,-1
 91 500 l 1,10,-1
 139 500 l 1,11,-1
 151 441 l 1,12,13
 199 479 199 479 231 494.5 c 128,-1,14
 263 510 263 510 304 510 c 0,15,16
 324 510 324 510 334 508 c 2,17,-1
 348 504 l 1,18,-1
 336 435 l 1,19,20
 318 441 318 441 287 441 c 0,21,22
 227 441 227 441 166 382 c 1,7,-1
EndSplineSet
EndChar

StartChar: Scaron
Encoding: 352 352 216
Width: 551
GlyphClass: 2
Flags: W
LayerCount: 2
Fore
SplineSet
293 773 m 1,0,-1
 246 773 l 1,1,-1
 110 873 l 1,2,-1
 129 902 l 1,3,-1
 270 827 l 1,4,-1
 412 902 l 1,5,-1
 431 873 l 1,6,-1
 293 773 l 1,0,-1
443 675 m 1,7,-1
 427 608 l 1,8,-1
 369 625 l 1,9,10
 307 640 307 640 262 640 c 0,11,12
 144 640 144 640 144 535 c 0,13,14
 144 489 144 489 180 459.5 c 128,-1,15
 216 430 216 430 267.5 412.5 c 128,-1,16
 319 395 319 395 370.5 374.5 c 128,-1,17
 422 354 422 354 458 311.5 c 128,-1,18
 494 269 494 269 494 204 c 0,19,20
 494 105 494 105 433 49.5 c 128,-1,21
 372 -6 372 -6 260 -6 c 0,22,23
 204 -6 204 -6 147.5 10.5 c 128,-1,24
 91 27 91 27 55 49 c 1,25,-1
 80 106 l 1,26,27
 171 64 171 64 252.5 64 c 128,-1,28
 334 64 334 64 376.5 97 c 128,-1,29
 419 130 419 130 419 193 c 0,30,31
 419 257 419 257 350 293 c 0,32,33
 319 309 319 309 281.5 323 c 128,-1,34
 244 337 244 337 206.5 353.5 c 128,-1,35
 169 370 169 370 138.5 391 c 128,-1,36
 108 412 108 412 88.5 448 c 128,-1,37
 69 484 69 484 69 532 c 0,38,39
 69 618 69 618 120.5 664 c 128,-1,40
 172 710 172 710 259 710 c 128,-1,41
 346 710 346 710 443 675 c 1,7,-1
EndSplineSet
EndChar

StartChar: scaron
Encoding: 353 353 217
Width: 445
GlyphClass: 2
Flags: W
LayerCount: 2
Fore
SplineSet
243 589 m 1,0,-1
 196 589 l 1,1,-1
 60 689 l 1,2,-1
 79 718 l 1,3,-1
 220 643 l 1,4,-1
 362 718 l 1,5,-1
 381 689 l 1,6,-1
 243 589 l 1,0,-1
72 89 m 1,7,8
 137 59 137 59 196 59 c 128,-1,9
 255 59 255 59 285.5 82.5 c 128,-1,10
 316 106 316 106 316 145 c 128,-1,11
 316 184 316 184 290 205.5 c 128,-1,12
 264 227 264 227 226.5 239 c 128,-1,13
 189 251 189 251 151.5 265 c 128,-1,14
 114 279 114 279 88 307 c 128,-1,15
 62 335 62 335 62 378 c 0,16,17
 62 441 62 441 103 475.5 c 128,-1,18
 144 510 144 510 214 510 c 128,-1,19
 284 510 284 510 344 489 c 1,20,-1
 351 486 l 1,21,-1
 338 422 l 1,22,23
 278 445 278 445 226.5 445 c 128,-1,24
 175 445 175 445 156 429 c 128,-1,25
 137 413 137 413 137 375 c 0,26,27
 137 351 137 351 163 334 c 128,-1,28
 189 317 189 317 226.5 304.5 c 128,-1,29
 264 292 264 292 301.5 275.5 c 128,-1,30
 339 259 339 259 365 226 c 128,-1,31
 391 193 391 193 391 145 c 0,32,33
 391 75 391 75 342 34.5 c 128,-1,34
 293 -6 293 -6 207 -6 c 128,-1,35
 121 -6 121 -6 54 33 c 1,36,-1
 72 89 l 1,7,8
EndSplineSet
EndChar

StartChar: Zcaron
Encoding: 381 381 219
Width: 508
GlyphClass: 2
Flags: W
LayerCount: 2
Fore
SplineSet
270 773 m 1,0,-1
 223 773 l 1,1,-1
 87 873 l 1,2,-1
 106 902 l 1,3,-1
 247 827 l 1,4,-1
 389 902 l 1,5,-1
 408 873 l 1,6,-1
 270 773 l 1,0,-1
479 0 m 1,7,-1
 40 0 l 1,8,-1
 40 62 l 1,9,-1
 360 635 l 1,10,-1
 39 635 l 1,11,-1
 39 700 l 1,12,-1
 448 700 l 1,13,-1
 448 643 l 1,14,-1
 131 66 l 1,15,-1
 479 66 l 1,16,-1
 479 0 l 1,7,-1
EndSplineSet
EndChar

StartChar: zcaron
Encoding: 382 382 220
Width: 412
GlyphClass: 2
Flags: W
LayerCount: 2
Fore
SplineSet
223 589 m 1,0,-1
 176 589 l 1,1,-1
 40 689 l 1,2,-1
 59 718 l 1,3,-1
 200 643 l 1,4,-1
 342 718 l 1,5,-1
 361 689 l 1,6,-1
 223 589 l 1,0,-1
46 500 m 1,7,-1
 350 500 l 1,8,-1
 350 440 l 1,9,-1
 130 65 l 1,10,-1
 365 65 l 1,11,-1
 365 0 l 1,12,-1
 46 0 l 1,13,-1
 46 60 l 1,14,-1
 266 435 l 1,15,-1
 46 435 l 1,16,-1
 46 500 l 1,7,-1
EndSplineSet
EndChar

StartChar: florin
Encoding: 402 402 221
Width: 310
GlyphClass: 2
Flags: W
LayerCount: 2
Fore
SplineSet
35 442 m 1,0,-1
 55 598 l 1,1,2
 61 659 61 659 101.5 685.5 c 128,-1,3
 142 712 142 712 197 712 c 128,-1,4
 252 712 252 712 288 700 c 1,5,-1
 272 646 l 1,6,7
 242 651 242 651 211.5 651 c 128,-1,8
 181 651 181 651 156 633 c 128,-1,9
 131 615 131 615 127 584 c 2,10,-1
 109 442 l 1,11,-1
 221 442 l 1,12,-1
 214 382 l 1,13,-1
 102 382 l 1,14,-1
 38 -143 l 1,15,-1
 -40 -153 l 1,16,-1
 27 382 l 1,17,-1
 -50 382 l 1,18,-1
 -43 442 l 1,19,-1
 35 442 l 1,0,-1
EndSplineSet
EndChar

StartChar: circumflex
Encoding: 710 710 222
Width: 491
GlyphClass: 2
Flags: W
LayerCount: 2
Fore
SplineSet
223 820 m 1,0,-1
 270 820 l 1,1,-1
 406 720 l 1,2,-1
 387 691 l 1,3,-1
 246 766 l 1,4,-1
 104 691 l 1,5,-1
 85 720 l 1,6,-1
 223 820 l 1,0,-1
EndSplineSet
EndChar

StartChar: caron
Encoding: 711 711 223
Width: 441
GlyphClass: 2
Flags: W
LayerCount: 2
Fore
SplineSet
349 690 m 1,0,-1
 210 543 l 1,1,-1
 76 690 l 1,2,-1
 113 731 l 1,3,-1
 213 637 l 1,4,-1
 312 731 l 1,5,-1
 349 690 l 1,0,-1
EndSplineSet
EndChar

StartChar: breve
Encoding: 728 728 224
Width: 400
GlyphClass: 2
Flags: W
LayerCount: 2
Fore
SplineSet
200 43 m 128,-1,1
 236 43 236 43 253 59 c 128,-1,2
 270 75 270 75 270 115 c 1,3,-1
 314 115 l 1,4,-1
 314 102 l 2,5,6
 314 51 314 51 285 23 c 128,-1,7
 256 -5 256 -5 200 -5 c 128,-1,8
 144 -5 144 -5 115 23 c 128,-1,9
 86 51 86 51 86 102 c 2,10,-1
 86 115 l 1,11,-1
 130 115 l 1,12,13
 130 75 130 75 147 59 c 128,-1,0
 164 43 164 43 200 43 c 128,-1,1
EndSplineSet
EndChar

StartChar: dotaccent
Encoding: 729 729 225
Width: 245
GlyphClass: 2
Flags: W
LayerCount: 2
Fore
SplineSet
155 705 m 1,0,-1
 90 705 l 1,1,-1
 90 801 l 1,2,-1
 155 801 l 1,3,-1
 155 705 l 1,0,-1
EndSplineSet
EndChar

StartChar: ring
Encoding: 730 730 226
Width: 398
GlyphClass: 2
Flags: W
LayerCount: 2
Fore
SplineSet
198 772 m 128,-1,1
 253 772 253 772 282 741.5 c 128,-1,2
 311 711 311 711 311 661 c 128,-1,3
 311 611 311 611 283 581.5 c 128,-1,4
 255 552 255 552 199 552 c 128,-1,5
 143 552 143 552 115 581.5 c 128,-1,6
 87 611 87 611 87 661 c 128,-1,7
 87 711 87 711 115 741.5 c 128,-1,0
 143 772 143 772 198 772 c 128,-1,1
199 728 m 0,8,9
 143 728 143 728 143 663 c 0,10,11
 143 632 143 632 155 615 c 128,-1,12
 167 598 167 598 199.5 598 c 128,-1,13
 232 598 232 598 244.5 615 c 128,-1,14
 257 632 257 632 257 663 c 0,15,16
 257 728 257 728 199 728 c 0,8,9
EndSplineSet
EndChar

StartChar: ogonek
Encoding: 731 731 227
Width: 301
GlyphClass: 2
Flags: W
LayerCount: 2
Fore
SplineSet
60 -118 m 0,0,1
 60 -48 60 -48 136 0 c 1,2,-1
 219 0 l 1,3,4
 131 -47 131 -47 131 -101 c 0,5,6
 131 -141 131 -141 181 -141 c 0,7,8
 197 -141 197 -141 241 -129 c 1,9,-1
 254 -169 l 1,10,11
 206 -194 206 -194 157 -194 c 0,12,13
 60 -194 60 -194 60 -118 c 0,0,1
EndSplineSet
EndChar

StartChar: tilde
Encoding: 732 732 228
Width: 516
GlyphClass: 2
Flags: W
LayerCount: 2
Fore
SplineSet
433 760 m 1,0,-1
 433 753 l 1,1,2
 412 725 412 725 385.5 704 c 128,-1,3
 359 683 359 683 339.5 683 c 128,-1,4
 320 683 320 683 262 710.5 c 128,-1,5
 204 738 204 738 191 738 c 128,-1,6
 178 738 178 738 163.5 728.5 c 128,-1,7
 149 719 149 719 141 710 c 2,8,-1
 133 700 l 1,9,-1
 100 733 l 1,10,11
 121 760 121 760 147 781.5 c 128,-1,12
 173 803 173 803 192.5 803 c 128,-1,13
 212 803 212 803 270 775.5 c 128,-1,14
 328 748 328 748 341 748 c 128,-1,15
 354 748 354 748 368.5 757.5 c 128,-1,16
 383 767 383 767 391 776 c 2,17,-1
 399 786 l 1,18,-1
 433 760 l 1,0,-1
EndSplineSet
EndChar

StartChar: hungarumlaut
Encoding: 733 733 229
Width: 499
GlyphClass: 2
Flags: W
LayerCount: 2
Fore
SplineSet
139 571 m 1,0,-1
 81 592 l 1,1,-1
 194 733 l 1,2,-1
 269 703 l 1,3,-1
 139 571 l 1,0,-1
305 571 m 1,4,-1
 247 592 l 1,5,-1
 360 733 l 1,6,-1
 435 703 l 1,7,-1
 305 571 l 1,4,-1
EndSplineSet
EndChar

StartChar: Delta
Encoding: 916 916 230
AltUni2: 002206.ffffffff.0
Width: 613
GlyphClass: 2
Flags: W
LayerCount: 2
Fore
SplineSet
583 0 m 1,0,-1
 30 0 l 1,1,-1
 260 700 l 1,2,-1
 351 700 l 1,3,-1
 583 0 l 1,0,-1
476 77 m 1,4,-1
 305 624 l 1,5,-1
 125 77 l 1,6,-1
 476 77 l 1,4,-1
EndSplineSet
EndChar

StartChar: Omega
Encoding: 937 937 231
AltUni2: 002126.ffffffff.0
Width: 738
GlyphClass: 2
Flags: W
LayerCount: 2
Fore
SplineSet
538 65 m 1,0,-1
 666 65 l 1,1,-1
 666 0 l 1,2,-1
 401 0 l 1,3,-1
 401 65 l 1,4,5
 505 97 505 97 538 186 c 0,6,7
 564 258 564 258 564 346 c 128,-1,8
 564 434 564 434 542.5 497 c 128,-1,9
 521 560 521 560 473.5 602.5 c 128,-1,10
 426 645 426 645 362 645 c 0,11,12
 260 645 260 645 209.5 560 c 128,-1,13
 159 475 159 475 159 355 c 0,14,15
 159 207 159 207 232 121 c 0,16,17
 272 73 272 73 332 65 c 1,18,-1
 332 0 l 1,19,-1
 67 0 l 1,20,-1
 67 65 l 1,21,-1
 180 65 l 1,22,23
 83 162 83 162 83 355 c 0,24,25
 83 512 83 512 153.5 611 c 128,-1,26
 224 710 224 710 360.5 710 c 128,-1,27
 497 710 497 710 568 611 c 128,-1,28
 639 512 639 512 639 355 c 0,29,30
 639 162 639 162 538 65 c 1,0,-1
EndSplineSet
EndChar

StartChar: pi
Encoding: 960 960 232
Width: 583
GlyphClass: 2
Flags: W
LayerCount: 2
Fore
SplineSet
529 544 m 1,0,-1
 529 479 l 1,1,-1
 433 479 l 1,2,-1
 433 0 l 1,3,-1
 359 0 l 1,4,-1
 359 479 l 1,5,-1
 207 479 l 1,6,-1
 207 0 l 1,7,-1
 132 0 l 1,8,-1
 132 479 l 1,9,-1
 40 479 l 1,10,-1
 40 544 l 1,11,-1
 529 544 l 1,0,-1
EndSplineSet
EndChar

StartChar: endash
Encoding: 8211 8211 233
Width: 500
GlyphClass: 2
Flags: W
LayerCount: 2
Fore
SplineSet
500 257 m 1,0,-1
 0 257 l 1,1,-1
 0 322 l 1,2,-1
 500 322 l 1,3,-1
 500 257 l 1,0,-1
EndSplineSet
EndChar

StartChar: emdash
Encoding: 8212 8212 234
Width: 800
GlyphClass: 2
Flags: W
LayerCount: 2
Fore
SplineSet
800 257 m 1,0,-1
 0 257 l 1,1,-1
 0 322 l 1,2,-1
 800 322 l 1,3,-1
 800 257 l 1,0,-1
EndSplineSet
EndChar

StartChar: quoteleft
Encoding: 8216 8216 235
Width: 268
GlyphClass: 2
Flags: W
LayerCount: 2
Fore
SplineSet
57 510 m 1,0,-1
 171 769 l 1,1,-1
 226 752 l 1,2,-1
 139 485 l 1,3,-1
 57 510 l 1,0,-1
EndSplineSet
EndChar

StartChar: quoteright
Encoding: 8217 8217 236
Width: 267
GlyphClass: 2
Flags: W
LayerCount: 2
Fore
SplineSet
210 745 m 1,0,-1
 97 485 l 1,1,-1
 41 502 l 1,2,-1
 129 769 l 1,3,-1
 210 745 l 1,0,-1
EndSplineSet
EndChar

StartChar: quotesinglbase
Encoding: 8218 8218 237
Width: 268
GlyphClass: 2
Flags: W
LayerCount: 2
Fore
SplineSet
210 98 m 1,0,-1
 97 -162 l 1,1,-1
 41 -145 l 1,2,-1
 129 122 l 1,3,-1
 210 98 l 1,0,-1
EndSplineSet
EndChar

StartChar: quotedblleft
Encoding: 8220 8220 238
Width: 466
GlyphClass: 2
Flags: W
LayerCount: 2
Fore
SplineSet
57 512 m 1,0,-1
 171 767 l 1,1,-1
 224 751 l 1,2,-1
 135 488 l 1,3,-1
 57 512 l 1,0,-1
259 510 m 1,4,-1
 370 767 l 1,5,-1
 423 751 l 1,6,-1
 336 486 l 1,7,-1
 259 510 l 1,4,-1
EndSplineSet
EndChar

StartChar: quotedblright
Encoding: 8221 8221 239
Width: 465
GlyphClass: 2
Flags: W
LayerCount: 2
Fore
SplineSet
407 741 m 1,0,-1
 293 486 l 1,1,-1
 240 502 l 1,2,-1
 329 765 l 1,3,-1
 407 741 l 1,0,-1
205 743 m 1,4,-1
 94 486 l 1,5,-1
 41 502 l 1,6,-1
 128 767 l 1,7,-1
 205 743 l 1,4,-1
EndSplineSet
EndChar

StartChar: quotedblbase
Encoding: 8222 8222 240
Width: 465
GlyphClass: 2
Flags: W
LayerCount: 2
Fore
SplineSet
407 96 m 1,0,-1
 293 -159 l 1,1,-1
 240 -143 l 1,2,-1
 329 120 l 1,3,-1
 407 96 l 1,0,-1
205 98 m 1,4,-1
 94 -159 l 1,5,-1
 41 -143 l 1,6,-1
 128 122 l 1,7,-1
 205 98 l 1,4,-1
EndSplineSet
EndChar

StartChar: dagger
Encoding: 8224 8224 241
Width: 502
GlyphClass: 2
Flags: W
LayerCount: 2
Fore
SplineSet
285 78 m 1,0,-1
 210 78 l 1,1,-1
 210 499 l 1,2,-1
 43 499 l 1,3,-1
 43 564 l 1,4,-1
 210 564 l 1,5,-1
 210 740 l 1,6,-1
 285 740 l 1,7,-1
 285 564 l 1,8,-1
 459 564 l 1,9,-1
 459 499 l 1,10,-1
 285 499 l 1,11,-1
 285 78 l 1,0,-1
EndSplineSet
EndChar

StartChar: daggerdbl
Encoding: 8225 8225 242
Width: 520
GlyphClass: 2
Flags: W
LayerCount: 2
Fore
SplineSet
287 183 m 1,0,-1
 287 0 l 1,1,-1
 222 0 l 1,2,-1
 222 183 l 1,3,-1
 45 183 l 1,4,-1
 45 248 l 1,5,-1
 222 248 l 1,6,-1
 222 510 l 1,7,-1
 45 510 l 1,8,-1
 45 575 l 1,9,-1
 222 575 l 1,10,-1
 222 750 l 1,11,-1
 287 750 l 1,12,-1
 287 575 l 1,13,-1
 475 575 l 1,14,-1
 475 510 l 1,15,-1
 287 510 l 1,16,-1
 287 248 l 1,17,-1
 475 248 l 1,18,-1
 475 183 l 1,19,-1
 287 183 l 1,0,-1
EndSplineSet
EndChar

StartChar: bullet
Encoding: 8226 8226 243
Width: 470
GlyphClass: 2
Flags: W
LayerCount: 2
Fore
SplineSet
319 356 m 128,-1,1
 357 318 357 318 357 264.5 c 128,-1,2
 357 211 357 211 319 173.5 c 128,-1,3
 281 136 281 136 228 136 c 128,-1,4
 175 136 175 136 137 173.5 c 128,-1,5
 99 211 99 211 99 264.5 c 128,-1,6
 99 318 99 318 137 356 c 128,-1,7
 175 394 175 394 228 394 c 128,-1,0
 281 394 281 394 319 356 c 128,-1,1
EndSplineSet
EndChar

StartChar: ellipsis
Encoding: 8230 8230 244
Width: 738
GlyphClass: 2
Flags: W
LayerCount: 2
Fore
SplineSet
130 0 m 1,0,-1
 55 0 l 1,1,-1
 55 106 l 1,2,-1
 130 106 l 1,3,-1
 130 0 l 1,0,-1
401 0 m 1,4,-1
 326 0 l 1,5,-1
 326 106 l 1,6,-1
 401 106 l 1,7,-1
 401 0 l 1,4,-1
672 0 m 1,8,-1
 597 0 l 1,9,-1
 597 106 l 1,10,-1
 672 106 l 1,11,-1
 672 0 l 1,8,-1
EndSplineSet
EndChar

StartChar: perthousand
Encoding: 8240 8240 245
Width: 1059
GlyphClass: 2
Flags: W
LayerCount: 2
Fore
SplineSet
594 688 m 1,0,-1
 186 0 l 1,1,-1
 108 0 l 1,2,-1
 516 688 l 1,3,-1
 594 688 l 1,0,-1
600 252 m 128,-1,5
 582 286 582 286 546.5 286 c 128,-1,6
 511 286 511 286 493 252 c 128,-1,7
 475 218 475 218 475 164 c 0,8,9
 475 44 475 44 545 44 c 0,10,11
 618 44 618 44 618 164 c 0,12,4
 618 218 618 218 600 252 c 128,-1,5
545 336 m 0,13,14
 678 336 678 336 678 165 c 128,-1,15
 678 -6 678 -6 543 -6 c 0,16,17
 478 -6 478 -6 446.5 39.5 c 128,-1,18
 415 85 415 85 415 160.5 c 128,-1,19
 415 236 415 236 447 286 c 128,-1,20
 479 336 479 336 545 336 c 0,13,14
230 612 m 128,-1,22
 212 646 212 646 176.5 646 c 128,-1,23
 141 646 141 646 123 612 c 128,-1,24
 105 578 105 578 105 524 c 0,25,26
 105 404 105 404 175 404 c 0,27,28
 248 404 248 404 248 524 c 0,29,21
 248 578 248 578 230 612 c 128,-1,22
175 696 m 0,30,31
 308 696 308 696 308 525 c 128,-1,32
 308 354 308 354 173 354 c 0,33,34
 108 354 108 354 76.5 399.5 c 128,-1,35
 45 445 45 445 45 520.5 c 128,-1,36
 45 596 45 596 77 646 c 128,-1,37
 109 696 109 696 175 696 c 0,30,31
922 252 m 128,-1,39
 904 286 904 286 868.5 286 c 128,-1,40
 833 286 833 286 815 252 c 128,-1,41
 797 218 797 218 797 164 c 0,42,43
 797 44 797 44 867 44 c 0,44,45
 940 44 940 44 940 164 c 0,46,38
 940 218 940 218 922 252 c 128,-1,39
867 336 m 0,47,48
 1000 336 1000 336 1000 165 c 128,-1,49
 1000 -6 1000 -6 865 -6 c 0,50,51
 800 -6 800 -6 768.5 39.5 c 128,-1,52
 737 85 737 85 737 160.5 c 128,-1,53
 737 236 737 236 769 286 c 128,-1,54
 801 336 801 336 867 336 c 0,47,48
EndSplineSet
EndChar

StartChar: guilsinglleft
Encoding: 8249 8249 246
Width: 330
GlyphClass: 2
Flags: W
LayerCount: 2
Fore
SplineSet
253 105 m 1,0,-1
 197 82 l 1,1,-1
 59 296 l 1,2,-1
 198 512 l 1,3,-1
 253 489 l 1,4,-1
 145 298 l 1,5,-1
 253 105 l 1,0,-1
EndSplineSet
EndChar

StartChar: guilsinglright
Encoding: 8250 8250 247
Width: 330
GlyphClass: 2
Flags: W
LayerCount: 2
Fore
SplineSet
78 489 m 1,0,-1
 134 512 l 1,1,-1
 272 298 l 1,2,-1
 133 82 l 1,3,-1
 78 105 l 1,4,-1
 186 296 l 1,5,-1
 78 489 l 1,0,-1
EndSplineSet
EndChar

StartChar: fraction
Encoding: 8260 8260 248
Width: 406
GlyphClass: 2
Flags: W
LayerCount: 2
Fore
SplineSet
476 688 m 1,0,-1
 68 1 l 1,1,-1
 -10 1 l 1,2,-1
 398 688 l 1,3,-1
 476 688 l 1,0,-1
EndSplineSet
EndChar

StartChar: Euro
Encoding: 8364 8364 249
Width: 630
GlyphClass: 2
Flags: W
LayerCount: 2
Fore
SplineSet
98 305 m 1,0,-1
 97 362 l 2,1,2
 97 371 97 371 99 401 c 1,3,-1
 21 401 l 1,4,-1
 21 466 l 1,5,-1
 109 466 l 1,6,7
 135 580 135 580 212 645 c 128,-1,8
 289 710 289 710 406 710 c 0,9,10
 482 710 482 710 562 680 c 1,11,-1
 544 618 l 1,12,13
 480 645 480 645 398.5 645 c 128,-1,14
 317 645 317 645 261.5 597.5 c 128,-1,15
 206 550 206 550 185 466 c 1,16,-1
 421 466 l 1,17,-1
 421 400 l 1,18,-1
 175 400 l 1,19,20
 173 364 173 364 173 344 c 128,-1,21
 173 324 173 324 174 305 c 1,22,-1
 421 305 l 1,23,-1
 421 240 l 1,24,-1
 181 240 l 1,25,26
 201 154 201 154 255.5 106.5 c 128,-1,27
 310 59 310 59 386.5 59 c 128,-1,28
 463 59 463 59 562 98 c 1,29,-1
 582 46 l 1,30,31
 496 -6 496 -6 385.5 -6 c 128,-1,32
 275 -6 275 -6 200.5 60.5 c 128,-1,33
 126 127 126 127 104 240 c 1,34,-1
 21 240 l 1,35,-1
 21 305 l 1,36,-1
 98 305 l 1,0,-1
EndSplineSet
EndChar

StartChar: trademark
Encoding: 8482 8482 250
Width: 686
GlyphClass: 2
Flags: W
LayerCount: 2
Fore
SplineSet
629 418 m 1,0,-1
 575 418 l 1,1,-1
 575 612 l 1,2,-1
 484 495 l 1,3,-1
 474 495 l 1,4,-1
 393 612 l 1,5,-1
 393 418 l 1,6,-1
 340 418 l 1,7,-1
 340 700 l 1,8,-1
 397 700 l 1,9,-1
 484 570 l 1,10,-1
 575 700 l 1,11,-1
 629 700 l 1,12,-1
 629 418 l 1,0,-1
129 418 m 1,13,-1
 129 648 l 1,14,-1
 50 648 l 1,15,-1
 50 700 l 1,16,-1
 266 700 l 1,17,-1
 266 648 l 1,18,-1
 185 648 l 1,19,-1
 185 418 l 1,20,-1
 129 418 l 1,13,-1
EndSplineSet
EndChar

StartChar: arrowleft
Encoding: 8592 8592 251
Width: 745
GlyphClass: 2
Flags: W
LayerCount: 2
Fore
SplineSet
294 74 m 1,0,-1
 46 319 l 1,1,-1
 291 548 l 1,2,-1
 344 495 l 1,3,-1
 192 352 l 1,4,-1
 697 352 l 1,5,-1
 697 277 l 1,6,-1
 192 277 l 1,7,-1
 348 126 l 1,8,-1
 294 74 l 1,0,-1
EndSplineSet
EndChar

StartChar: arrowup
Encoding: 8593 8593 252
Width: 705
GlyphClass: 2
Flags: W
LayerCount: 2
Fore
SplineSet
115 375 m 1,0,-1
 360 623 l 1,1,-1
 589 378 l 1,2,-1
 536 325 l 1,3,-1
 393 477 l 1,4,-1
 393 -28 l 1,5,-1
 318 -28 l 1,6,-1
 318 477 l 1,7,-1
 167 321 l 1,8,-1
 115 375 l 1,0,-1
EndSplineSet
EndChar

StartChar: arrowright
Encoding: 8594 8594 253
Width: 745
GlyphClass: 2
Flags: W
LayerCount: 2
Fore
SplineSet
451 555 m 1,0,-1
 699 310 l 1,1,-1
 454 81 l 1,2,-1
 401 134 l 1,3,-1
 553 277 l 1,4,-1
 48 277 l 1,5,-1
 48 352 l 1,6,-1
 553 352 l 1,7,-1
 397 503 l 1,8,-1
 451 555 l 1,0,-1
EndSplineSet
EndChar

StartChar: arrowdown
Encoding: 8595 8595 254
Width: 705
GlyphClass: 2
Flags: W
LayerCount: 2
Fore
SplineSet
589 195 m 1,0,-1
 344 -53 l 1,1,-1
 115 192 l 1,2,-1
 168 245 l 1,3,-1
 311 93 l 1,4,-1
 311 598 l 1,5,-1
 386 598 l 1,6,-1
 386 93 l 1,7,-1
 537 249 l 1,8,-1
 589 195 l 1,0,-1
EndSplineSet
EndChar

StartChar: partialdiff
Encoding: 8706 8706 255
Width: 508
GlyphClass: 2
Flags: W
LayerCount: 2
Fore
SplineSet
370 436 m 1,0,1
 357 512 357 512 277.5 586.5 c 128,-1,2
 198 661 198 661 124 670 c 1,3,-1
 145 738 l 1,4,5
 291 707 291 707 377 592.5 c 128,-1,6
 463 478 463 478 463 314 c 0,7,8
 463 -6 463 -6 225 -6 c 0,9,10
 127 -6 127 -6 67 53 c 128,-1,11
 7 112 7 112 7 218 c 128,-1,12
 7 324 7 324 69.5 386 c 128,-1,13
 132 448 132 448 235 448 c 0,14,15
 293 448 293 448 370 436 c 1,0,1
388 309 m 0,16,17
 388 343 388 343 384 368 c 1,18,19
 291 383 291 383 231 383 c 128,-1,20
 171 383 171 383 126.5 341 c 128,-1,21
 82 299 82 299 82 225.5 c 128,-1,22
 82 152 82 152 120 108.5 c 128,-1,23
 158 65 158 65 227.5 65 c 128,-1,24
 297 65 297 65 342.5 125.5 c 128,-1,25
 388 186 388 186 388 309 c 0,16,17
EndSplineSet
EndChar

StartChar: product
Encoding: 8719 8719 256
Width: 521
GlyphClass: 2
Flags: W
LayerCount: 2
Fore
SplineSet
82 0 m 1,0,-1
 7 0 l 1,1,-1
 7 700 l 1,2,-1
 430 700 l 1,3,-1
 430 0 l 1,4,-1
 355 0 l 1,5,-1
 355 635 l 1,6,-1
 82 635 l 1,7,-1
 82 0 l 1,0,-1
EndSplineSet
EndChar

StartChar: summation
Encoding: 8721 8721 257
Width: 460
GlyphClass: 2
Flags: W
LayerCount: 2
Fore
SplineSet
369 0 m 1,0,-1
 7 0 l 1,1,-1
 7 61 l 1,2,-1
 211 339 l 1,3,-1
 17 640 l 1,4,-1
 17 700 l 1,5,-1
 358 700 l 1,6,-1
 358 635 l 1,7,-1
 106 635 l 1,8,-1
 295 343 l 1,9,-1
 92 65 l 1,10,-1
 369 65 l 1,11,-1
 369 0 l 1,0,-1
EndSplineSet
EndChar

StartChar: minus
Encoding: 8722 8722 258
Width: 570
GlyphClass: 2
Flags: W
LayerCount: 2
Fore
SplineSet
501 275 m 1,0,-1
 69 275 l 1,1,-1
 69 340 l 1,2,-1
 501 340 l 1,3,-1
 501 275 l 1,0,-1
EndSplineSet
EndChar

StartChar: radical
Encoding: 8730 8730 259
Width: 615
GlyphClass: 2
Flags: W
LayerCount: 2
Fore
SplineSet
226 0 m 1,0,-1
 107 435 l 1,1,-1
 1 435 l 1,2,-1
 1 500 l 1,3,-1
 166 500 l 1,4,-1
 282 75 l 1,5,-1
 497 800 l 1,6,-1
 579 800 l 1,7,-1
 331 0 l 1,8,-1
 226 0 l 1,0,-1
EndSplineSet
EndChar

StartChar: infinity
Encoding: 8734 8734 260
Width: 892
GlyphClass: 2
Flags: W
LayerCount: 2
Fore
SplineSet
450 338 m 1,0,1
 561 457 561 457 657 457 c 0,2,3
 733 457 733 457 781 414.5 c 128,-1,4
 829 372 829 372 829 298 c 128,-1,5
 829 224 829 224 778.5 178.5 c 128,-1,6
 728 133 728 133 652 133 c 0,7,8
 557 133 557 133 442 254 c 1,9,10
 332 133 332 133 235 133 c 0,11,12
 158 133 158 133 110.5 175 c 128,-1,13
 63 217 63 217 63 291.5 c 128,-1,14
 63 366 63 366 113.5 411.5 c 128,-1,15
 164 457 164 457 241 457 c 0,16,17
 295 457 295 457 345 425 c 128,-1,18
 395 393 395 393 450 338 c 1,0,1
394 294 m 1,19,20
 295 397 295 397 234 397 c 0,21,22
 186 397 186 397 157 369.5 c 128,-1,23
 128 342 128 342 128 295.5 c 128,-1,24
 128 249 128 249 157 222.5 c 128,-1,25
 186 196 186 196 238 196 c 0,26,27
 302 196 302 196 394 294 c 1,19,20
492 294 m 1,28,29
 584 196 584 196 648 196 c 0,30,31
 700 196 700 196 729 222.5 c 128,-1,32
 758 249 758 249 758 295.5 c 128,-1,33
 758 342 758 342 729 369.5 c 128,-1,34
 700 397 700 397 652 397 c 0,35,36
 591 397 591 397 492 294 c 1,28,29
EndSplineSet
EndChar

StartChar: integral
Encoding: 8747 8747 261
Width: 352
GlyphClass: 2
Flags: W
LayerCount: 2
Fore
SplineSet
131 -73 m 2,0,-1
 132 680 l 2,1,2
 132 742 132 742 170.5 773 c 128,-1,3
 209 804 209 804 252.5 804 c 128,-1,4
 296 804 296 804 330 793 c 1,5,-1
 323 744 l 1,6,-1
 275 744 l 2,7,8
 206 744 206 744 206 676 c 2,9,-1
 206 -77 l 2,10,11
 206 -139 206 -139 167 -170 c 128,-1,12
 128 -201 128 -201 84.5 -201 c 128,-1,13
 41 -201 41 -201 7 -190 c 1,14,-1
 14 -141 l 1,15,-1
 62 -141 l 2,16,17
 131 -141 131 -141 131 -73 c 2,0,-1
EndSplineSet
EndChar

StartChar: approxequal
Encoding: 8776 8776 262
Width: 569
GlyphClass: 2
Flags: W
LayerCount: 2
Fore
SplineSet
494 418 m 1,0,1
 476 379 476 379 445 357.5 c 128,-1,2
 414 336 414 336 372.5 336 c 128,-1,3
 331 336 331 336 277 365.5 c 128,-1,4
 223 395 223 395 184 395 c 128,-1,5
 145 395 145 395 100 350 c 1,6,-1
 75 397 l 1,7,8
 94 425 94 425 125.5 443 c 128,-1,9
 157 461 157 461 197.5 461 c 128,-1,10
 238 461 238 461 292 431 c 128,-1,11
 346 401 346 401 384.5 401 c 128,-1,12
 423 401 423 401 469 447 c 1,13,-1
 494 418 l 1,0,1
494 213 m 1,14,15
 476 174 476 174 445 152.5 c 128,-1,16
 414 131 414 131 372.5 131 c 128,-1,17
 331 131 331 131 277 160.5 c 128,-1,18
 223 190 223 190 184 190 c 128,-1,19
 145 190 145 190 100 145 c 1,20,-1
 75 192 l 1,21,22
 94 220 94 220 125.5 238 c 128,-1,23
 157 256 157 256 197.5 256 c 128,-1,24
 238 256 238 256 292 226 c 128,-1,25
 346 196 346 196 384.5 196 c 128,-1,26
 423 196 423 196 469 242 c 1,27,-1
 494 213 l 1,14,15
EndSplineSet
EndChar

StartChar: notequal
Encoding: 8800 8800 263
Width: 401
GlyphClass: 2
Flags: W
LayerCount: 2
Fore
SplineSet
374 672 m 1,0,-1
 290 428 l 1,1,-1
 438 428 l 1,2,-1
 438 363 l 1,3,-1
 268 363 l 1,4,-1
 227 243 l 1,5,-1
 438 243 l 1,6,-1
 438 177 l 1,7,-1
 204 177 l 1,8,-1
 144 1 l 1,9,-1
 74 1 l 1,10,-1
 135 177 l 1,11,-1
 7 177 l 1,12,-1
 7 243 l 1,13,-1
 157 243 l 1,14,-1
 199 363 l 1,15,-1
 7 363 l 1,16,-1
 7 428 l 1,17,-1
 221 428 l 1,18,-1
 305 672 l 1,19,-1
 374 672 l 1,0,-1
EndSplineSet
EndChar

StartChar: lessequal
Encoding: 8804 8804 264
Width: 490
GlyphClass: 2
Flags: W
LayerCount: 2
Fore
SplineSet
400 118 m 1,0,-1
 8 342 l 1,1,-1
 8 399 l 1,2,-1
 400 624 l 1,3,-1
 400 544 l 1,4,-1
 81 371 l 1,5,-1
 400 196 l 1,6,-1
 400 118 l 1,0,-1
400 -1 m 1,7,-1
 8 -1 l 1,8,-1
 8 64 l 1,9,-1
 400 64 l 1,10,-1
 400 -1 l 1,7,-1
EndSplineSet
EndChar

StartChar: greaterequal
Encoding: 8805 8805 265
Width: 490
GlyphClass: 2
Flags: W
LayerCount: 2
Fore
SplineSet
400 346 m 1,0,-1
 8 122 l 1,1,-1
 8 199 l 1,2,-1
 327 374 l 1,3,-1
 8 547 l 1,4,-1
 8 627 l 1,5,-1
 400 402 l 1,6,-1
 400 346 l 1,0,-1
400 -1 m 1,7,-1
 9 -1 l 1,8,-1
 9 64 l 1,9,-1
 400 64 l 1,10,-1
 400 -1 l 1,7,-1
EndSplineSet
EndChar

StartChar: flecha01
Encoding: 9655 9655 266
Width: 665
GlyphClass: 2
Flags: W
LayerCount: 2
Fore
SplineSet
110 -47 m 1,0,-1
 110 623 l 1,1,-1
 645 288 l 1,2,-1
 110 -47 l 1,0,-1
185 96 m 1,3,-1
 507 285 l 1,4,-1
 185 488 l 1,5,-1
 185 96 l 1,3,-1
EndSplineSet
EndChar

StartChar: lozenge
Encoding: 9674 9674 267
Width: 543
GlyphClass: 2
Flags: W
LayerCount: 2
Fore
SplineSet
503 352 m 1,0,-1
 301 -1 l 1,1,-1
 240 -1 l 1,2,-1
 40 350 l 1,3,-1
 242 701 l 1,4,-1
 303 701 l 1,5,-1
 503 352 l 1,0,-1
411 350 m 1,6,-1
 271 618 l 1,7,-1
 132 352 l 1,8,-1
 272 85 l 1,9,-1
 411 350 l 1,6,-1
EndSplineSet
EndChar

StartChar: fi
Encoding: 64257 64257 268
Width: 519
GlyphClass: 2
Flags: W
LayerCount: 2
Fore
SplineSet
353 0 m 1,0,-1
 353 439 l 1,1,-1
 160 439 l 1,2,-1
 160 0 l 1,3,-1
 85 0 l 1,4,-1
 85 440 l 1,5,-1
 8 440 l 1,6,-1
 8 500 l 1,7,-1
 86 500 l 1,8,-1
 86 596 l 2,9,10
 86 657 86 657 123.5 683.5 c 128,-1,11
 161 710 161 710 204.5 710 c 128,-1,12
 248 710 248 710 289 697 c 1,13,-1
 278 643 l 1,14,15
 245 649 245 649 229 649 c 0,16,17
 160 649 160 649 160 582 c 2,18,-1
 160 500 l 1,19,-1
 428 500 l 1,20,-1
 428 0 l 1,21,-1
 353 0 l 1,0,-1
428 699 m 1,22,-1
 428 610 l 1,23,-1
 353 610 l 1,24,-1
 353 699 l 1,25,-1
 428 699 l 1,22,-1
EndSplineSet
EndChar

StartChar: fl
Encoding: 64258 64258 269
Width: 456
GlyphClass: 2
Flags: W
LayerCount: 2
Fore
SplineSet
291 0 m 1,0,-1
 291 640 l 1,1,2
 244 649 244 649 228 649 c 0,3,4
 159 649 159 649 159 582 c 2,5,-1
 159 500 l 1,6,-1
 261 500 l 1,7,-1
 261 440 l 1,8,-1
 159 440 l 1,9,-1
 159 0 l 1,10,-1
 84 0 l 1,11,-1
 84 440 l 1,12,-1
 7 440 l 1,13,-1
 7 500 l 1,14,-1
 85 500 l 1,15,-1
 85 596 l 2,16,17
 85 657 85 657 122.5 683.5 c 128,-1,18
 160 710 160 710 214 710 c 0,19,20
 235 710 235 710 291 700 c 1,21,-1
 365 711 l 1,22,-1
 365 0 l 1,23,-1
 291 0 l 1,0,-1
EndSplineSet
EndChar

StartChar: graveMAY
Encoding: 65543 -1 274
Width: 438
GlyphClass: 2
Flags: W
LayerCount: 2
Fore
SplineSet
255 701 m 1,0,-1
 194 701 l 1,1,-1
 96 825 l 1,2,-1
 180 825 l 1,3,-1
 255 701 l 1,0,-1
EndSplineSet
EndChar

StartChar: acuteMAY
Encoding: 65544 -1 275
Width: 438
GlyphClass: 2
Flags: W
LayerCount: 2
Fore
SplineSet
183 701 m 1,0,-1
 258 825 l 1,1,-1
 342 825 l 1,2,-1
 244 701 l 1,3,-1
 183 701 l 1,0,-1
EndSplineSet
EndChar

StartChar: flecha02
Encoding: 65545 -1 276
Width: 1009
GlyphClass: 2
Flags: W
LayerCount: 2
Fore
SplineSet
110 -47 m 1,0,-1
 110 623 l 1,1,-1
 1006 280 l 1,2,-1
 110 -47 l 1,0,-1
184 58 m 1,3,-1
 809 287 l 1,4,-1
 184 510 l 1,5,-1
 184 58 l 1,3,-1
EndSplineSet
EndChar

StartChar: "C+AMIAkgAA-rculo0" 
Encoding: 65546 -1 277
Width: 630
GlyphClass: 2
Flags: W
LayerCount: 2
Fore
SplineSet
277 159 m 1,0,-1
 277 436 l 1,1,-1
 348 436 l 1,2,-1
 348 159 l 1,3,-1
 277 159 l 1,0,-1
312 -5 m 0,4,5
 175 -5 175 -5 105 96.5 c 128,-1,6
 35 198 35 198 35 355 c 128,-1,7
 35 512 35 512 105.5 611 c 128,-1,8
 176 710 176 710 312.5 710 c 128,-1,9
 449 710 449 710 520 611 c 128,-1,10
 591 512 591 512 591 355 c 0,11,12
 591 140 591 140 468 45 c 0,13,14
 404 -5 404 -5 312 -5 c 0,4,5
314 645 m 0,15,16
 212 645 212 645 161.5 560 c 128,-1,17
 111 475 111 475 111 352 c 128,-1,18
 111 229 111 229 162.5 145 c 128,-1,19
 214 61 214 61 314 61 c 128,-1,20
 414 61 414 61 465 146 c 128,-1,21
 516 231 516 231 516 360 c 0,22,23
 516 522 516 522 426 602 c 0,24,25
 378 645 378 645 314 645 c 0,15,16
350 565 m 1,26,-1
 350 476 l 1,27,-1
 275 476 l 1,28,-1
 275 565 l 1,29,-1
 350 565 l 1,26,-1
EndSplineSet
EndChar
